<?xml version="1.0" encoding="UTF-8" standalone="no"?>
<!-- Created with Inkscape (http://www.inkscape.org/) -->

<svg
   xmlns:dc="http://purl.org/dc/elements/1.1/"
   xmlns:cc="http://creativecommons.org/ns#"
   xmlns:rdf="http://www.w3.org/1999/02/22-rdf-syntax-ns#"
   xmlns:svg="http://www.w3.org/2000/svg"
   xmlns="http://www.w3.org/2000/svg"
   xmlns:sodipodi="http://sodipodi.sourceforge.net/DTD/sodipodi-0.dtd"
   xmlns:inkscape="http://www.inkscape.org/namespaces/inkscape"
   id="svg3387"
   version="1.1"
   inkscape:version="0.91 r13725"
   width="245.30685"
   height="380.95667"
   viewBox="0 0 245.30685 380.95667"
   sodipodi:docname="silhouette-femme-70.svg">
  <title
     id="title3340">Silhouette Femme 70</title>
  <metadata
     id="metadata3393">
    <rdf:RDF>
      <cc:Work
         rdf:about="">
        <dc:format>image/svg+xml</dc:format>
        <dc:type
           rdf:resource="http://purl.org/dc/dcmitype/StillImage" />
        <dc:title>Silhouette Femme 70</dc:title>
        <cc:license
           rdf:resource="http://creativecommons.org/publicdomain/zero/1.0/" />
        <dc:date>2017-03-13</dc:date>
        <dc:creator>
          <cc:Agent>
            <dc:title>JLouis</dc:title>
          </cc:Agent>
        </dc:creator>
        <dc:rights>
          <cc:Agent>
            <dc:title>Domaine pubic</dc:title>
          </cc:Agent>
        </dc:rights>
        <dc:publisher>
          <cc:Agent>
            <dc:title>inkscape</dc:title>
          </cc:Agent>
        </dc:publisher>
        <dc:subject>
          <rdf:Bag>
            <rdf:li>silhouette</rdf:li>
            <rdf:li>woman</rdf:li>
            <rdf:li>femme</rdf:li>
          </rdf:Bag>
        </dc:subject>
        <dc:description>A woman in silhouette - Une femme en silhouette</dc:description>
      </cc:Work>
      <cc:License
         rdf:about="http://creativecommons.org/publicdomain/zero/1.0/">
        <cc:permits
           rdf:resource="http://creativecommons.org/ns#Reproduction" />
        <cc:permits
           rdf:resource="http://creativecommons.org/ns#Distribution" />
        <cc:permits
           rdf:resource="http://creativecommons.org/ns#DerivativeWorks" />
      </cc:License>
    </rdf:RDF>
  </metadata>
  <defs
     id="defs3391" />
  <sodipodi:namedview
     pagecolor="#ffffff"
     bordercolor="#666666"
     borderopacity="1"
     objecttolerance="10"
     gridtolerance="10"
     guidetolerance="10"
     inkscape:pageopacity="0"
     inkscape:pageshadow="2"
     inkscape:window-width="1235"
     inkscape:window-height="756"
     id="namedview3389"
     showgrid="false"
     inkscape:zoom="1.4831083"
     inkscape:cx="-11.861359"
     inkscape:cy="190.47833"
     inkscape:window-x="0"
     inkscape:window-y="0"
     inkscape:window-maximized="1"
     inkscape:current-layer="svg3387" />
  <g
     id="g3397"
     transform="translate(-2.0227765,0.67425965)">
    <path
       style="fill:#f5e9e7"
       d="m 63.125873,378.88722 c -1.637353,-1.1126 -3.351656,-2.72296 -3.809563,-3.57857 -2.072627,-3.87274 -0.09153,-12.64079 3.770913,-16.68952 2.365595,-2.47969 5.956096,-9.32357 5.956096,-11.35294 0,-3.01419 1.677754,-6.85148 4.019499,-9.19323 3.306978,-3.30697 5.524203,-11.16817 7.732686,-27.41633 3.737878,-27.50016 5.950343,-38.05257 10.244992,-48.86373 1.339806,-3.37275 2.320757,-6.24753 2.1799,-6.38839 -0.140856,-0.14085 -2.539047,-0.62376 -5.329315,-1.07312 -4.537365,-0.73072 -11.538363,-3.71015 -11.536629,-4.90967 9.75e-4,-0.69014 -9.796547,-0.22588 -12.590916,0.59662 -1.806969,0.53187 -4.320661,0.20521 -9.725136,-1.2638 -10.128635,-2.7531 -13.123646,-4.07382 -15.415887,-6.79799 -1.115509,-1.32572 -3.160244,-2.58676 -4.667552,-2.87862 -2.004779,-0.38819 -4.888241,-2.7556 -11.414348,-9.37153 -4.802572,-4.86867 -8.731949,-9.35542 -8.731949,-9.97053 0,-0.61512 -1.292241,-2.48857 -2.871646,-4.16323 -3.2240351,-3.41847 -8.7709531,-12.17654 -8.7709531,-13.8485 0,-0.60081 -0.3046028,-1.09238 -0.6768953,-1.09238 -1.1199165,0 -0.7618065,-5.20321 0.4801454,-6.97635 1.4460856,-2.06458 34.032272,-18.39154 41.12204,-20.60376 9.968911,-3.11061 9.53733,-2.51375 16.054671,-22.20317 3.17963,-9.60592 6.732881,-19.60536 7.896113,-22.22098 2.288058,-5.14487 3.72204,-14.06106 5.247046,-32.625006 2.302003,-28.022352 2.370609,-28.265096 8.936872,-31.620894 1.957317,-1.000318 3.642007,-2.27965 3.743752,-2.84296 0.101754,-0.563311 0.737033,-3.582865 1.411741,-6.710121 0.674708,-3.127257 1.487583,-8.061823 1.806384,-10.965704 0.31881,-2.903881 0.636149,-5.705066 0.705193,-6.224855 0.06904,-0.51979 0.712429,-2.164645 1.429732,-3.655234 1.678395,-3.487788 3.900964,-11.255483 3.900964,-13.63356 0,-3.14215 4.869154,-11.1742494 9.333517,-15.3964601 4.50614,-4.26171676 8.68565,-5.79948201 11.56876,-4.25648782 0.86832,0.46470842 2.34475,0.64461242 3.28097,0.39978672 2.68049,-0.70096513 7.23909,1.2090908 9.62989,4.0349305 2.78201,3.2882282 7.37364,13.2986917 8.98513,19.5889357 0.68355,2.66819 1.70646,5.599601 2.27313,6.514247 1.34077,2.164136 2.21121,6.942776 1.26464,6.942776 -0.9819,0 0.33568,4.48698 2.115,7.202565 1.30923,1.998132 2.17941,10.928936 0.99352,10.196671 -0.28066,-0.173308 -0.74214,0.844067 -1.02549,2.260834 -0.66098,3.304896 0.75484,4.914732 1.94009,2.205963 0.83144,-1.900132 0.84795,-1.90358 0.49812,-0.103943 -0.29551,1.520197 0.0644,1.946613 1.96359,2.326453 1.79196,0.358391 2.45191,1.049431 2.87674,3.012278 0.30323,1.400956 1.21803,3.490898 2.03289,4.644316 0.81487,1.153417 3.54592,10.108742 6.06901,19.900721 5.52298,21.434378 7.69132,27.314678 15.61519,42.346838 l 6.08666,11.54684 10.03591,4.9447 c 5.51976,2.71957 11.10479,5.84409 12.41121,6.94336 3.57008,3.00403 9.59444,7.18377 15.69024,10.88599 2.99904,1.82143 5.74046,3.77853 6.09205,4.34911 0.3516,0.57057 2.28412,2.00173 4.2945,3.18034 2.01038,1.17861 6.03114,4.18385 8.93502,6.6783 2.90388,2.49445 5.7614,4.9305 6.35005,5.41345 0.58865,0.48295 0.85313,1.44395 0.58774,2.13556 -0.65274,1.70098 -6.72944,10.21739 -9.97414,13.9786 -2.55807,2.96527 -2.76973,3.04458 -7.71661,2.89121 -6.7828,-0.21027 -11.15859,1.13067 -24.05812,7.37253 -8.08297,3.91121 -12.01775,6.3565 -15.43321,9.59108 -4.94587,4.68393 -6.01515,5.20763 -14.38557,7.04564 -3.02804,0.66491 -5.71079,2.17791 -10.15343,5.72626 -3.3209,2.65242 -8.52034,6.72938 -11.55431,9.05992 -3.13934,2.41147 -5.72707,5.07358 -6.00543,6.17804 -0.26902,1.06738 -0.0161,5.51454 0.56202,9.88259 1.27438,9.62841 0.71691,17.48581 -2.10026,29.6027 -1.14257,4.91426 -2.63599,11.8592 -3.31871,15.43321 -0.68273,3.57401 -2.18568,10.15343 -3.33989,14.62094 -1.5425,5.97042 -2.16849,10.70553 -2.36243,17.87003 -0.14513,5.36101 -0.55692,15.68634 -0.91507,22.94518 -0.71966,14.58521 -0.89099,15.01006 -6.50032,16.11844 -3.1386,0.62017 -8.94959,-0.0186 -10.03399,-1.10302 -0.41285,-0.41286 -0.96483,-3.30555 -1.22662,-6.42823 -0.36717,-4.37955 -0.1865,-6.12608 0.79024,-7.63928 1.42944,-2.21454 2.90682,-9.94831 2.90758,-15.22062 2.8e-4,-1.93141 0.44948,-4.05262 0.99821,-4.71381 0.54874,-0.66118 1.25792,-2.73618 1.57597,-4.61109 0.31805,-1.87492 1.17443,-5.62448 1.90305,-8.33238 1.09683,-4.07628 1.33012,-9.59697 1.35577,-32.08483 0.0171,-14.93877 0.0387,-29.42304 0.0481,-32.18727 0.025,-7.34497 -0.87523,-8.58031 -6.0072,-8.24339 l -4.15631,0.27287 -2.26919,6.49819 c -1.24805,3.57401 -3.18017,10.2497 -4.29359,14.83489 -1.92731,7.93685 -4.72884,15.46809 -14.269104,38.3591 -2.824408,6.77691 -4.462042,12.03388 -4.934234,15.83935 -1.164346,9.38381 -3.188899,16.65555 -6.787226,24.37821 -1.873442,4.02076 -3.850392,9.09583 -4.39322,11.27794 -2.771655,11.14175 -8.699797,15.67328 -14.948781,11.42698 z M 83.01023,141.70525 c 4.477394,-4.67605 5.652438,-6.47202 6.425439,-9.82084 1.095628,-4.74651 0.193622,-11.45644 -2.332828,-17.35373 l -1.565934,-3.65523 -0.995735,6.80361 c -1.392547,9.51495 -3.53188,17.43972 -6.912787,25.60713 -3.159148,7.63169 -3.555339,9.3115 -1.455764,6.17229 0.746995,-1.11688 3.82392,-4.60583 6.837609,-7.75323 z m 73.40555,-8.69533 c -0.9329,-3.90445 -7.30199,-22.16421 -10.6247,-30.46028 -1.5658,-3.909488 -3.2788,-4.676835 -2.57404,-1.15307 0.30553,1.52769 -0.2204,3.76729 -1.56747,6.67479 -2.10994,4.55409 -3.72855,13.18011 -3.64742,19.43814 0.0361,2.78772 0.47397,3.95961 1.87386,5.01555 1.0047,0.75784 2.01829,1.33098 2.25242,1.27365 0.89077,-0.2181 11.85393,2.093 13.01597,2.74385 2.16162,1.2107 2.30772,0.80476 1.27138,-3.53263 z"
       id="path3411"
       inkscape:connector-curvature="0" />
    <path
       style="fill:#f2dad7"
       d="m 61.285899,377.31555 c -2.915292,-2.74947 -2.989675,-2.96391 -2.65121,-7.64315 0.263458,-3.64225 0.93016,-5.64971 2.738542,-8.24581 5.191497,-7.45288 7.608251,-11.8365 7.638466,-13.85503 0.04973,-3.32294 1.787479,-7.50234 3.767296,-9.06065 2.841252,-2.23634 5.929178,-11.52869 7.245291,-21.80291 3.851424,-30.06608 6.607585,-43.81702 10.997383,-54.86768 1.329441,-3.34669 2.206698,-6.42544 1.94945,-6.84166 -0.257247,-0.41623 -2.182386,-0.76481 -4.278086,-0.77463 -3.915341,-0.0183 -9.577311,-2.08987 -11.255013,-4.11787 -0.69194,-0.83641 -2.439401,-1.0683 -6.498195,-0.86231 -12.48588,0.63368 -15.163391,0.37538 -22.573547,-2.17763 -5.491909,-1.89212 -7.920079,-3.21095 -9.908948,-5.38192 -1.7458,-1.90565 -3.36007,-2.87564 -4.78565,-2.87564 -1.642418,0 -4.035835,-1.89387 -10.119455,-8.00734 -4.38253,-4.40403 -8.716145,-9.42997 -9.630253,-11.16877 -0.91411,-1.73879 -2.591549,-4.02094 -3.727642,-5.07144 -1.1360931,-1.0505 -1.8256003,-2.32983 -1.5322385,-2.84296 0.293361,-0.51312 0.2217622,-0.64947 -0.1591091,-0.30301 -0.7840789,0.71328 -6.1594189,-7.53851 -5.5514804,-8.52217 0.2164103,-0.35016 -0.015194,-0.63666 -0.514677,-0.63666 -0.4994827,0 -0.6822444,-0.36552 -0.4061372,-0.81227 0.2761073,-0.44675 0.1149176,-0.81228 -0.3581991,-0.81228 -1.39857701,0 -0.98090293,-5.36168 0.5612677,-7.205 1.6622499,-1.98684 33.9592816,-18.19465 38.9061626,-19.52452 4.568787,-1.22821 10.430762,-3.87668 11.540791,-5.21419 0.500371,-0.60291 3.466423,-8.80649 6.591227,-18.23019 3.124803,-9.42369 6.622779,-19.26069 7.773281,-21.86001 2.266407,-5.12045 3.746082,-14.14454 5.236726,-31.937202 2.459514,-29.357321 2.332868,-28.90026 8.944115,-32.279048 1.957317,-1.000318 3.657984,-2.27965 3.779273,-2.84296 0.121289,-0.563311 0.630747,-2.669057 1.132123,-4.679436 1.33105,-5.33713 1.360495,-5.51917 2.001859,-12.378318 0.323285,-3.457444 0.453842,-6.434637 0.29012,-6.615985 -0.163714,-0.181348 0.367927,-1.065194 1.181428,-1.964102 1.355158,-1.49744 4.602192,-12.384616 4.620899,-15.49373 0.01681,-2.795008 4.177381,-10.075799 8.170391,-14.2978266 4.48571,-4.7429785 8.4586,-6.62373874 11.9686,-5.66592286 1.20484,0.328779 3.66205,0.64575106 5.46048,0.70438236 6.01817,0.1962011 9.50925,4.0540044 14.39766,15.9100591 1.19731,2.903881 2.59085,6.924639 3.09676,8.935018 0.5059,2.010379 1.23047,4.035148 1.61015,4.499488 0.96898,1.185057 2.35359,7.684627 1.63706,7.684627 -1.16787,0 -0.3134,3.287104 1.63354,6.284076 1.78461,2.747105 1.92773,3.578905 1.41153,8.203517 -0.31596,2.830541 -0.96321,5.614851 -1.43834,6.187355 -0.63006,0.759165 -0.49759,1.344917 0.48938,2.164031 0.7443,0.617714 1.38848,1.00814 1.43149,0.867615 0.0431,-0.140525 0.7179,-0.04914 1.49972,0.203068 0.78181,0.252213 1.9353,0.616633 2.56329,0.809821 0.628,0.193189 1.40144,1.53331 1.71876,2.978046 0.31732,1.444736 1.24627,3.345232 2.06433,4.223322 0.81807,0.878091 1.83018,3.101823 2.24913,4.941629 2.32927,10.228736 8.43227,32.607696 10.32671,37.866756 2.25799,6.26833 9.50189,21.26201 13.26906,27.46479 1.84864,3.04384 3.32948,4.09436 11.30442,8.01941 5.04742,2.48421 12.81003,7.21328 17.25026,10.50905 4.44023,3.29577 8.25356,5.99231 8.47408,5.99231 0.8873,0 9.3675,5.78102 9.3675,6.3859 0,0.35753 1.00519,1.16043 2.23375,1.78423 2.54311,1.29124 9.48324,6.54485 14.70018,11.12786 l 3.53141,3.10231 -4.87641,7.27909 c -6.62757,9.89311 -7.62524,10.69194 -13.15211,10.53085 -6.83348,-0.19917 -12.40238,1.47949 -24.26049,7.31295 -7.98358,3.92745 -12.06915,6.49184 -15.43321,9.68701 -4.50264,4.27658 -6.90309,5.34511 -16.38166,7.29208 -1.1325,0.23263 -4.78774,2.64866 -8.12274,5.36897 -3.335,2.7203 -8.54596,6.8452 -11.57993,9.16644 -3.03397,2.32124 -5.72861,5.06268 -5.9881,6.0921 -0.25949,1.02941 -0.23153,3.77084 0.0621,6.09206 1.90468,15.05521 1.50301,20.15486 -3.14741,39.96046 -1.04899,4.46751 -2.34944,10.86417 -2.88991,14.2148 -0.54045,3.35063 -1.83644,8.83349 -2.87997,12.18412 -1.51193,4.85459 -1.90388,7.9895 -1.92962,15.43321 -0.0465,13.43838 -1.19016,34.34741 -1.94414,35.54278 -1.42639,2.26142 -5.63569,3.62923 -10.04366,3.26368 -2.39977,-0.199 -4.70559,-0.70418 -5.12402,-1.12262 -0.41844,-0.41843 -1.00673,-3.40703 -1.30733,-6.64133 -0.43991,-4.73324 -0.29979,-6.15607 0.71822,-7.29275 1.43571,-1.60311 3.0175,-9.23233 3.0604,-14.76086 0.0158,-2.04002 0.55117,-4.62293 1.18963,-5.7398 0.63846,-1.11688 1.17851,-2.9445 1.20011,-4.06137 0.0216,-1.11688 0.77324,-4.37236 1.67033,-7.2344 1.49462,-4.76836 1.6336,-7.48662 1.66123,-32.49098 0.0166,-15.00799 0.0792,-29.4804 0.13905,-32.1609 0.0599,-2.68051 -0.15755,-5.90472 -0.4832,-7.16491 -0.5709,-2.20922 -0.75678,-2.28363 -5.19137,-2.07822 l -4.59927,0.21305 -1.89517,5.32731 c -1.04235,2.93002 -3.12882,10.07912 -4.6366,15.88688 -1.50779,5.80776 -4.45644,14.58032 -6.55257,19.49458 -9.479778,22.22488 -11.989551,29.23238 -13.079534,36.51926 -1.679824,11.23008 -3.157221,16.29405 -7.183324,24.62176 -2.031746,4.20253 -3.694086,8.32901 -3.694086,9.16996 0,2.61663 -3.778034,10.21975 -5.772387,11.61665 -3.285172,2.30102 -7.505551,1.72194 -10.92005,-1.49835 z M 83.35569,141.34734 c 5.912634,-6.29343 7.215717,-9.62348 6.441961,-16.46255 -0.503285,-4.44845 -3.469346,-14.10119 -4.129968,-13.44056 -0.151108,0.1511 -0.854643,3.92293 -1.563409,8.38186 -1.542501,9.70395 -3.060171,15.25165 -6.106536,22.32192 -1.251194,2.90388 -2.508378,6.19359 -2.793742,7.31047 -0.497715,1.948 -0.443523,1.93193 1.330817,-0.39453 1.017313,-1.33387 4.086709,-4.80634 6.820877,-7.71661 z m 73.33343,-7.72544 c -0.37529,-2.00886 -2.52124,-8.55945 -4.76877,-14.55686 -2.24753,-5.99742 -4.08642,-11.13961 -4.08642,-11.4271 0,-1.73666 -3.63875,-8.540469 -4.56753,-8.540469 -1.2439,0 -1.30283,0.465376 -0.35999,2.842959 0.43708,1.10218 -0.0115,3.06108 -1.39508,6.09206 -2.53629,5.55627 -4.488,16.878 -3.7159,21.55574 0.48874,2.96101 2.18801,3.8156 11.23338,5.64949 3.56107,0.72198 6.63756,1.47557 6.83664,1.67466 1.12729,1.12729 1.42604,-0.0662 0.82367,-3.29048 z"
       id="path3409"
       inkscape:connector-curvature="0" />
    <path
       style="fill:#e9c9c6"
       d="m 62.800034,378.56027 c -1.423428,-0.86792 -2.976903,-2.30461 -3.452166,-3.19266 -2.204709,-4.11954 -0.205604,-11.76037 4.571664,-17.47349 2.516234,-3.00915 6.015682,-9.89032 5.362132,-10.54387 -0.885031,-0.88503 1.691937,-7.36572 3.507878,-8.8218 2.919368,-2.34083 5.861972,-11.1063 7.220364,-21.50815 0.687689,-5.26595 1.585594,-11.7676 1.995345,-14.4481 0.40976,-2.68051 1.175906,-7.79784 1.70256,-11.37185 1.338531,-9.08363 4.528153,-21.6354 7.327657,-28.83574 1.302733,-3.35063 2.370289,-6.50638 2.372344,-7.01277 0.0024,-0.55225 -2.027924,-1.05663 -5.072978,-1.26033 -3.79631,-0.25396 -5.990417,-0.92214 -8.699473,-2.64933 -3.841056,-2.44889 -8.628337,-2.94589 -15.986033,-1.6596 -2.634904,0.46064 -5.36161,0.006 -12.590252,-2.10014 -7.84344,-2.28507 -9.688382,-3.15188 -12.304365,-5.78096 -1.938253,-1.94795 -3.834222,-3.09282 -5.121902,-3.09282 -1.513672,0 -4.145325,-2.12448 -10.136096,-8.18265 -4.450386,-4.50046 -8.784074,-9.52641 -9.630419,-11.16877 -0.846345,-1.64237 -2.625633,-4.08675 -3.9539738,-5.43197 -2.7861766,-2.82155 -8.0034837,-11.32315 -6.4714652,-10.54524 0.5646596,0.28672 0.4462864,0.0373 -0.2630517,-0.55427 -0.7093381,-0.59157 -1.1188223,-1.58337 -0.909965,-2.204 0.2530017,-0.7518 0.032211,-0.91362 -0.6615413,-0.48485 -0.8109033,0.50116 -0.9360193,-0.14125 -0.5655083,-2.90361 0.3394114,-2.53051 1.0714407,-3.98107 2.5540804,-5.0611 2.9503594,-2.14919 31.9013369,-16.40554 35.8004359,-17.62923 5.398649,-1.69432 11.288506,-4.29724 12.76373,-5.64073 0.765539,-0.69718 3.939342,-8.94358 7.052896,-18.32535 3.113554,-9.38177 6.614571,-19.20437 7.780038,-21.82802 2.263246,-5.09491 3.725047,-13.89612 5.278714,-31.782085 2.657242,-30.590438 2.297405,-29.283287 9.004301,-32.709298 1.984224,-1.01358 3.633108,-2.110151 3.664178,-2.436823 0.03103,-0.326673 0.537782,-2.238806 1.126023,-4.249185 1.150611,-3.932292 1.22898,-4.428875 2.169203,-13.743954 0.341789,-3.386223 0.650778,-6.339529 0.686656,-6.562905 0.0359,-0.223375 0.692716,-1.343094 1.459657,-2.488263 0.766942,-1.145171 2.106317,-5.483046 2.976393,-9.639723 1.994288,-9.527492 4.877813,-15.2501879 10.239066,-20.3206362 4.41956,-4.17984034 8.63657,-5.75330515 11.45819,-4.27533074 0.82887,0.43415544 2.60359,0.64066344 3.94384,0.45890664 1.55304,-0.21061302 3.59453,0.3402022 5.62892,1.5187342 3.80256,2.2028392 8.46004,10.1317331 11.10608,18.9069621 0.94297,3.127257 2.20446,6.782491 2.8033,8.122744 1.69358,3.790342 2.76396,8.52888 1.92659,8.52888 -1.15862,0 -0.47697,2.610556 1.60023,6.128499 1.61761,2.739586 1.8362,3.971247 1.48448,8.364305 -0.22686,2.833407 -0.81737,5.556557 -1.31226,6.051444 -1.54139,1.541393 -1.02457,2.113894 2.95617,3.274621 3.3636,0.98078 3.95998,1.492105 4.67058,4.00445 0.44803,1.584056 1.41088,3.556444 2.13966,4.383085 0.72879,0.82664 3.38722,9.614665 5.90765,19.528942 5.29388,20.82386 6.78742,25.07567 13.54085,38.54791 6.42843,12.8239 8.49401,16.02024 10.95829,16.95716 4.38504,1.66719 17.42579,8.40193 18.86463,9.74242 1.78987,1.66752 13.00607,9.73196 13.53542,9.73196 0.79319,0 8.20202,5.25999 8.81329,6.2571 0.35902,0.58564 2.06929,1.78746 3.80059,2.6707 1.73131,0.88325 5.42343,3.53072 8.20472,5.88328 2.78129,2.35255 5.95066,5.02135 7.04305,5.93066 l 1.98615,1.65328 -4.87267,7.28472 c -6.68958,10.00103 -7.2376,10.42611 -13.16549,10.2122 -5.42389,-0.19572 -13.88414,1.82549 -17.17703,4.10372 -1.18584,0.82043 -2.4337,1.49171 -2.77302,1.49171 -2.25905,0 -16.08907,8.19381 -19.87468,11.77507 -4.45224,4.2119 -7.82162,5.71842 -16.18669,7.23745 -1.54747,0.28101 -3.74061,1.39479 -4.87365,2.47507 -1.13304,1.08029 -3.40018,2.99279 -5.03808,4.25001 -13.17939,10.11624 -15.36873,12.03151 -15.82326,13.84248 -0.27629,1.10083 -0.18258,4.25101 0.20824,7.00041 1.49621,10.52598 0.78547,21.20108 -2.33382,35.05308 -1.60964,7.14801 -3.51494,16.10334 -4.234,19.90072 -0.71906,3.79738 -2.01051,9.09747 -2.86989,11.77798 -1.16165,3.62331 -1.56748,7.27012 -1.58186,14.2148 -0.0275,13.29635 -1.17076,34.3372 -1.93118,35.54278 -1.42639,2.26142 -5.63569,3.62923 -10.04366,3.26368 -2.39977,-0.199 -4.70559,-0.70418 -5.12402,-1.12262 -0.41844,-0.41843 -1.00673,-3.40703 -1.30733,-6.64133 -0.43991,-4.73324 -0.29979,-6.15607 0.71822,-7.29275 1.42609,-1.59236 3.03162,-9.28748 3.03162,-14.53023 0,-1.91317 0.50202,-4.67884 1.11562,-6.14594 0.61359,-1.4671 1.90584,-5.95716 2.87167,-9.97792 1.61432,-6.7205 1.75749,-9.47371 1.77399,-34.11553 0.01,-14.74277 0.0672,-28.99819 0.12734,-31.67869 0.0602,-2.68051 -0.15054,-5.87884 -0.46826,-7.10741 -0.54915,-2.12344 -0.81757,-2.23375 -5.43584,-2.23375 -3.2363,0 -4.85817,0.32532 -4.85817,0.97445 0,0.53596 -1.06833,3.91705 -2.37408,7.51354 -1.30575,3.5965 -3.11602,9.73564 -4.02281,13.64252 -1.56931,6.76128 -4.38307,14.26153 -13.942848,37.16552 -3.191824,7.6472 -4.506546,12.05816 -5.32631,17.87003 -1.516744,10.75334 -2.411659,13.80706 -6.929098,23.64438 -2.176461,4.7395 -3.957198,9.20345 -3.957198,9.91988 0,2.78233 -3.455431,10.34295 -5.440768,11.90462 -2.633379,2.07141 -6.399597,2.09421 -9.737534,0.0589 z M 83.771696,140.90115 c 5.986608,-6.41951 6.966528,-9.16617 6.008686,-16.84198 -0.482426,-3.86597 -3.545894,-13.18175 -4.139553,-12.58809 -0.13634,0.13633 -0.834068,3.89608 -1.550518,8.35501 -1.495925,9.31013 -3.412997,15.9464 -6.904816,23.90219 -2.867135,6.53251 -3.110452,8.76558 -0.583512,5.35526 0.98037,-1.32309 4.206742,-5.00517 7.169713,-8.18239 z m 73.319114,-6.26668 c -0.82248,-4.82721 -11.96387,-34.87939 -13.09142,-35.312064 -1.61649,-0.620302 -1.98172,0.09348 -1.17026,2.287054 0.73346,1.98276 0.63718,2.33936 -1.95351,7.2353 -0.82739,1.56363 -1.80913,5.0361 -2.18163,7.71661 -0.3725,2.6805 -0.86539,6.15298 -1.0953,7.71661 -1.07419,7.30566 0.35434,8.72886 11.00174,10.96061 3.32546,0.69703 6.21919,1.44023 6.43051,1.65155 0.21132,0.21132 0.86244,0.38423 1.44694,0.38423 0.74973,0 0.93025,-0.77753 0.61293,-2.6399 z"
       id="path3407"
       inkscape:connector-curvature="0" />
    <path
       style="fill:#e9c1bd"
       d="m 62.800034,378.56027 c -3.238556,-1.97468 -4.318459,-3.95653 -4.308347,-7.9067 0.0088,-3.43298 3.009921,-10.57272 5.208869,-12.39198 1.770105,-1.46447 6.255661,-10.23679 5.579912,-10.91254 -0.932562,-0.93256 1.755611,-7.35743 3.941692,-9.42083 1.196144,-1.12903 2.89801,-4.06316 3.781926,-6.52029 1.55926,-4.33447 1.980217,-6.65199 4.647591,-25.58664 3.345408,-23.74771 5.270295,-32.65851 9.335168,-43.21483 1.333592,-3.46326 2.424704,-6.76208 2.424704,-7.33072 0,-0.68937 -1.285644,-1.03981 -3.858303,-1.05171 -3.633596,-0.0168 -9.650447,-2.1093 -12.2365,-4.25553 -1.476042,-1.22501 -6.600711,-1.36926 -12.334799,-0.3472 -3.904517,0.69595 -5.433751,0.51806 -12.134939,-1.41165 -9.035606,-2.60195 -11.859388,-3.95528 -14.782794,-7.08479 -1.341344,-1.43592 -2.993644,-2.3162 -4.347516,-2.3162 -1.700072,0 -3.982883,-1.84442 -10.304761,-8.32581 -4.466494,-4.5792 -8.787699,-9.60515 -9.602675,-11.16878 -0.814978,-1.56362 -2.701987,-4.09729 -4.1933537,-5.63036 -1.4913674,-1.53307 -2.1632913,-2.50655 -1.4931649,-2.16327 0.6701263,0.34328 0.4571301,-0.0473 -0.4733245,-0.86783 -1.8274903,-1.61169 -5.7476004,-8.01055 -4.3955588,-7.17494 0.4820056,0.2979 0.433638,-0.34093 -0.1173765,-1.55028 -0.5154682,-1.13133 -1.304922,-1.8297 -1.7543417,-1.55195 -0.52406219,0.32389 -0.65348177,-0.71505 -0.3608495,-2.89679 0.3141214,-2.34195 1.1105491,-3.91645 2.5562893,-5.05367 3.6413784,-2.8643 35.9289873,-18.60162 38.1525493,-18.59594 0.50285,0.002 3.18139,-0.95996 5.952312,-2.1361 l 5.03804,-2.13844 2.376473,-6.59584 c 1.30706,-3.62772 3.915778,-11.34765 5.79715,-17.15541 1.881372,-5.80777 4.468663,-13.02768 5.749536,-16.04427 2.815436,-6.63062 3.561206,-10.72432 5.215832,-28.63082 0.701784,-7.594769 1.634565,-17.619428 2.072848,-22.277026 0.475534,-5.053469 1.30601,-9.245392 2.059442,-10.395276 1.419325,-2.166162 5.820337,-5.089919 7.672493,-5.097128 1.478924,-0.0058 3.809859,-9.592277 4.542871,-18.683641 0.270147,-3.350631 1.157426,-7.418942 1.971723,-9.04069 0.814297,-1.621748 2.421845,-6.854677 3.572334,-11.628731 2.407476,-9.990089 4.624741,-14.2259116 10.153835,-19.3977324 3.95387,-3.69837702 8.57788,-5.46739797 10.76229,-4.11735719 0.57987,0.35838052 2.56937,0.70275919 4.42111,0.76528579 5.41187,0.1827399 8.63661,2.7791077 12.33091,9.9280998 1.78486,3.453965 3.8684,8.473075 4.63009,11.153581 0.76169,2.680505 1.98669,6.120918 2.72223,7.645362 0.73554,1.524444 1.36054,4.631394 1.38889,6.904332 0.0296,2.369244 0.69447,5.345696 1.5583,6.975576 1.98978,3.754298 2.36707,9.861799 0.83562,13.527046 -0.67029,1.60426 -1.21873,3.043899 -1.21873,3.199197 0,0.155298 1.73519,0.788315 3.85597,1.406705 3.30399,0.963399 3.97257,1.519227 4.67058,3.882883 0.44803,1.517195 1.43511,3.672345 2.19352,4.789222 0.75839,1.116878 3.42836,9.99024 5.93326,19.718586 5.2909,20.548386 6.76208,24.709436 13.46138,38.073696 7.96835,15.89586 7.37042,15.23619 18.83348,20.77751 5.54199,2.67904 10.7771,5.5831 11.63357,6.45347 1.67588,1.70307 12.13166,9.20056 12.83084,9.20056 0.83779,0 8.23585,5.21656 8.87374,6.2571 0.35902,0.58564 2.06929,1.78746 3.80059,2.6707 1.73131,0.88325 5.42343,3.53072 8.20472,5.88328 2.78129,2.35255 5.95675,5.02621 7.05658,5.94145 l 1.9997,1.66408 -4.30277,6.45867 c -7.03631,10.56186 -7.4915,10.92617 -13.65196,10.92617 -5.9626,0 -14.06746,1.96636 -17.28754,4.19421 -1.18584,0.82043 -2.48904,1.49171 -2.89599,1.49171 -2.25578,0 -15.81807,8.04981 -19.37195,11.49811 -3.16739,3.07328 -5.32227,4.36128 -9.34116,5.58332 -2.8732,0.87366 -6.02419,1.59126 -7.00221,1.59467 -0.97802,0.003 -3.41395,1.37692 -5.41319,3.05224 -6.85986,5.7484 -10.59578,8.73644 -14.69553,11.75365 -6.85026,5.04147 -6.43826,4.17245 -5.65974,11.93808 1.32297,13.19626 0.77825,22.2524 -2.08051,34.58895 -1.44937,6.25451 -3.30774,14.99181 -4.12973,19.41622 -0.822,4.4244 -2.23922,10.4961 -3.1494,13.49266 -1.23854,4.0776 -1.66152,7.77568 -1.6813,14.69931 -0.039,13.65625 -1.17088,34.26918 -1.95095,35.52974 -1.71121,2.76525 -9.47344,4.23383 -13.76129,2.6036 -1.77321,-0.67417 -2.08389,-1.41901 -2.59928,-6.23159 -0.4546,-4.24509 -0.3012,-6.02436 0.68686,-7.96626 1.85882,-3.65325 2.34184,-5.7446 3.00721,-13.02043 0.32883,-3.59573 0.99298,-7.63426 1.4759,-8.97451 4.00491,-11.11505 4.24504,-13.48537 4.28322,-42.28002 0.0201,-15.16657 0.0972,-29.76872 0.17125,-32.44922 0.0741,-2.68051 -0.1401,-5.87884 -0.47595,-7.10741 -0.57947,-2.11977 -0.85852,-2.23375 -5.4688,-2.23375 -3.65054,0 -4.85817,0.28613 -4.85817,1.15107 0,0.63309 -0.75713,2.91738 -1.68251,5.07622 -0.92538,2.15883 -2.89602,8.67718 -4.37918,14.48521 -1.48317,5.80804 -4.59218,15.12911 -6.90892,20.71349 -2.316733,5.58439 -5.878385,14.17419 -7.914781,19.08845 -2.61281,6.30525 -3.99864,11.08663 -4.708576,16.24549 -1.436353,10.43745 -2.586354,14.44124 -6.611913,23.01985 -1.958042,4.17265 -3.927432,9.22587 -4.376425,11.22936 -1.085884,4.84544 -4.458996,11.38125 -6.413738,12.42739 -2.416373,1.29321 -5.878466,0.99884 -8.734603,-0.74268 z M 83.771696,140.90115 c 6.045393,-6.48254 6.989995,-9.21023 5.99374,-17.30791 -0.488948,-3.97428 -3.471945,-12.78678 -4.10707,-12.1333 -0.12176,0.12528 -0.974396,4.4313 -1.894744,9.56894 -1.671035,9.32816 -4.111213,17.46657 -7.306452,24.36823 -2.230533,4.81791 -2.153153,6.78774 0.144813,3.68643 0.98037,-1.32309 4.206742,-5.00517 7.169713,-8.18239 z m 73.224024,-6.67281 c -0.43176,-2.72082 -6.87689,-21.4747 -10.67762,-31.0695 -2.02549,-5.113289 -3.74819,-5.211184 -3.81911,-0.21702 -0.0335,2.3647 -0.65759,4.8035 -1.59524,6.23453 -1.41369,2.15756 -1.86148,4.21403 -3.32297,15.26064 -0.9827,7.42761 0.21805,8.59948 11.14602,10.87803 3.28613,0.68518 6.13534,1.40633 6.33157,1.60256 0.19624,0.19623 0.82117,0.35679 1.38875,0.35679 0.73691,0 0.89377,-0.87092 0.5486,-3.04603 z"
       id="path3405"
       inkscape:connector-curvature="0" />
    <path
       style="fill:#e5adaa"
       d="m 63.164541,378.87287 c -6.176953,-3.35157 -6.009343,-12.66728 0.36441,-20.25374 2.696586,-3.20966 6.111332,-10.22984 5.747312,-11.81557 -0.434968,-1.89481 1.793132,-6.61479 4.176991,-8.8485 2.466643,-2.31128 5.691391,-11.84186 6.475283,-19.13738 0.288016,-2.6805 1.088234,-8.71164 1.77826,-13.40252 3.732344,-25.37289 5.234629,-32.3029 9.280048,-42.8087 1.333592,-3.46326 2.424704,-6.76208 2.424704,-7.33072 0,-0.68937 -1.285644,-1.03981 -3.858303,-1.05171 -3.612436,-0.0167 -9.647521,-2.10687 -12.200143,-4.22537 -1.57595,-1.30792 -7.999469,-1.53966 -12.524962,-0.45187 -3.282975,0.78913 -4.741352,0.66138 -10.559566,-0.92504 -9.482825,-2.5856 -13.956564,-4.66209 -16.000444,-7.42659 -1.297731,-1.75527 -2.436055,-2.3865 -4.303677,-2.3865 -2.169323,0 -3.733745,-1.25535 -10.738318,-8.61686 -4.509483,-4.73927 -8.754837,-9.67017 -9.434118,-10.95756 -0.679282,-1.28738 -2.506899,-3.69675 -4.0613719,-5.35416 -1.5544729,-1.6574 -2.2780291,-2.73054 -1.6079027,-2.38474 0.7184972,0.37077 0.6403581,0.15447 -0.190443,-0.52716 -0.7748699,-0.63574 -1.1708537,-1.39389 -0.8799639,-1.68478 0.2908899,-0.29089 0.1385515,-0.52889 -0.3385297,-0.52889 -0.4770811,0 -1.6352023,-1.3013 -2.5736026,-2.89176 -0.9384003,-1.59048 -1.3372552,-2.66376 -0.8863441,-2.38508 0.4820056,0.2979 0.433638,-0.34093 -0.1173765,-1.55028 -0.5154682,-1.13133 -1.2492886,-1.86409 -1.6307121,-1.62836 -0.3814235,0.23574 -0.69349716,-0.68376 -0.69349716,-2.04334 0,-4.11924 3.51361856,-6.88328 17.58963166,-13.83711 14.982679,-7.40173 22.012651,-10.59289 23.328225,-10.58954 0.50285,0.002 3.179257,-0.95905 5.947573,-2.13409 4.016613,-1.70488 5.222489,-2.64877 5.969912,-4.67291 0.515136,-1.39507 3.427098,-9.84695 6.471026,-18.78197 3.043928,-8.93502 6.441431,-18.43863 7.550006,-21.11913 2.14307,-5.18189 3.839715,-17.38225 5.422032,-38.989173 1.254591,-17.131742 1.503013,-18.30189 4.527765,-21.327278 1.454427,-1.454733 3.689144,-2.853916 4.966039,-3.109295 2.121092,-0.424217 2.440503,-0.967554 3.6977,-6.290049 0.756845,-3.204148 1.607459,-8.749911 1.890268,-12.323919 0.294133,-3.717183 1.150311,-7.760111 2.000567,-9.446827 0.817506,-1.621748 2.427677,-6.854677 3.578166,-11.628731 1.150481,-4.774054 3.038272,-10.295143 4.19508,-12.269087 4.264095,-7.276137 13.305385,-13.3569968 16.721045,-11.24600259 0.57987,0.35838052 2.56937,0.70275919 4.42111,0.76528579 5.41187,0.1827399 8.63661,2.7791077 12.33091,9.9280998 1.78486,3.453965 3.87552,8.473075 4.64591,11.153581 0.77039,2.680505 1.98506,6.296817 2.69926,8.036248 0.7142,1.739432 1.33104,4.846381 1.37075,6.904332 0.0397,2.057952 0.75128,5.021062 1.58128,6.58469 1.99178,3.752305 2.37012,9.860017 0.83793,13.527046 -0.67029,1.60426 -1.21873,3.043899 -1.21873,3.199197 0,0.155298 1.73519,0.788315 3.85597,1.406705 3.30399,0.963399 3.97257,1.519227 4.67058,3.882883 0.44803,1.517195 1.43511,3.672345 2.19352,4.789222 0.75839,1.116878 3.42836,9.99024 5.93326,19.718586 5.2909,20.548386 6.76208,24.709436 13.46138,38.073696 7.94855,15.85636 7.44497,15.29316 18.36781,20.54234 5.27731,2.5361 10.50891,5.44093 11.62579,6.45517 2.30077,2.08933 12.65858,9.43403 13.30429,9.43403 0.83779,0 8.23585,5.21656 8.87374,6.2571 0.35902,0.58564 2.09341,1.79976 3.85419,2.69804 3.00757,1.53435 13.84729,10.21564 15.93982,12.76585 0.7616,0.92819 0.12252,2.40669 -3.19287,7.3867 -6.84629,10.2837 -7.36127,10.69376 -13.43033,10.69376 -6.13578,0 -14.23258,1.92979 -17.31964,4.12797 -1.20336,0.85687 -2.52089,1.55795 -2.92784,1.55795 -2.25578,0 -15.81807,8.04981 -19.37195,11.49811 -3.16739,3.07328 -5.32227,4.36128 -9.34116,5.58332 -2.8732,0.87366 -6.20761,1.59126 -7.40981,1.59467 -1.2022,0.003 -2.41373,0.37497 -2.69228,0.82569 -0.27856,0.45071 -3.13293,2.90688 -6.34307,5.45815 -3.21012,2.55128 -6.53703,5.28186 -7.39311,6.06796 -0.85608,0.7861 -3.04922,2.44105 -4.87364,3.67765 -1.82443,1.2366 -3.61336,2.61491 -3.97542,3.06292 -0.36206,0.448 -0.37408,3.92151 -0.0267,7.71889 1.06928,11.68945 0.65783,21.73364 -1.23114,30.05415 -0.96352,4.24413 -2.51848,11.5546 -3.45543,16.24549 -0.93697,4.69088 -2.65306,12.18411 -3.81354,16.65162 -1.58238,6.09166 -2.17905,10.6616 -2.38622,18.27618 -0.52015,19.11798 -1.48253,35.33385 -2.16219,36.43215 -1.74559,2.82081 -8.64119,4.12131 -13.2793,2.50445 -2.34769,-0.81841 -2.51042,-1.15901 -3.03119,-6.34461 -0.47033,-4.68334 -0.29968,-5.96062 1.17414,-8.78821 1.20772,-2.31705 1.86495,-5.46643 2.19332,-10.51008 0.25788,-3.96091 0.97412,-8.01122 1.59166,-9.00069 0.61753,-0.98947 1.12751,-2.63433 1.13327,-3.65523 0.006,-1.02091 0.74737,-4.20721 1.64802,-7.08068 1.50261,-4.79399 1.64,-7.47121 1.66747,-32.49097 0.0165,-14.99657 0.093,-29.6424 0.17011,-32.54628 0.0771,-2.90388 -0.13667,-6.28497 -0.47502,-7.51354 -0.57994,-2.10576 -0.88191,-2.23363 -5.27029,-2.23164 l -4.6551,0.002 -2.2131,6.29301 c -1.2172,3.46116 -3.27796,10.49654 -4.57945,15.63417 -1.3015,5.13764 -4.26313,13.9102 -6.5814,19.49459 -2.318272,5.58438 -5.881183,14.17418 -7.917579,19.08844 -2.509757,6.05659 -4.051974,11.29011 -4.787212,16.24549 -1.700147,11.45861 -2.906366,15.72521 -6.641651,23.49264 -1.913179,3.97841 -3.839835,8.84579 -4.281455,10.81639 -1.074186,4.79323 -4.455269,11.32662 -6.400334,12.36758 -2.198132,1.17641 -5.74525,0.99414 -8.370096,-0.43009 z M 83.811506,140.89466 c 6.105159,-6.58593 6.869826,-8.73782 5.981986,-16.83411 -0.47501,-4.33167 -4.378808,-15.73454 -4.472066,-13.06275 -0.01795,0.51404 -0.742889,5.08927 -1.611,10.16715 -1.432145,8.37716 -2.864618,13.11061 -8.070757,26.66898 l -1.715433,4.46751 2.230119,-2.77619 c 1.226565,-1.52691 4.672282,-5.41067 7.657151,-8.63059 z m 73.277744,-6.66632 c -0.51346,-2.76534 -7.2043,-22.06512 -10.77115,-31.0695 -2.04017,-5.150337 -3.85715,-5.259815 -3.8595,-0.23254 -8.1e-4,2.43954 -0.57218,4.75678 -1.53295,6.2206 -1.66803,2.5414 -2.59553,7.21767 -3.36364,16.95869 -0.46108,5.8474 -0.38497,6.29513 1.07008,6.29513 0.86155,0 1.91371,0.33713 2.33812,0.74918 0.42441,0.41205 3.68526,1.34573 7.24633,2.07485 3.56106,0.72911 6.63755,1.48854 6.83664,1.68763 0.19909,0.19909 0.8659,0.36199 1.48182,0.36199 0.85306,0 0.9851,-0.72564 0.55425,-3.04603 z"
       id="path3403"
       inkscape:connector-curvature="0" />
    <path
       style="fill:#e3a09d"
       d="m 63.164541,378.87287 c -6.176953,-3.35157 -6.009343,-12.66728 0.36441,-20.25374 2.716715,-3.23362 6.194607,-10.28994 5.725337,-11.61619 -0.566841,-1.602 1.397377,-5.95888 3.918036,-8.69067 3.278807,-3.55345 5.471033,-10.14084 6.847436,-20.57577 4.216898,-31.96961 6.534057,-43.61762 10.967085,-55.13004 1.333592,-3.46326 2.424704,-6.76208 2.424704,-7.33072 0,-0.68937 -1.285644,-1.03981 -3.858303,-1.05171 -3.612436,-0.0167 -9.647521,-2.10687 -12.200143,-4.22537 -1.570561,-1.30344 -7.993757,-1.54092 -12.486787,-0.46165 -3.311485,0.79544 -4.731866,0.63919 -11.659301,-1.28259 -8.191025,-2.27232 -14.217847,-4.88144 -14.217847,-6.15516 0,-1.55215 -2.655926,-3.2906 -5.027227,-3.2906 -1.81232,0 -3.263797,-0.83147 -5.424832,-3.10757 -1.622757,-1.70916 -5.551908,-5.8213 -8.731447,-9.13808 -3.179538,-3.31679 -6.058618,-6.92114 -6.397956,-8.00967 -0.339337,-1.08853 -1.941416,-3.25141 -3.5601752,-4.80639 -1.6187596,-1.55498 -2.3949138,-2.55626 -1.7247874,-2.22506 0.6701263,0.3312 0.5088834,0.0268 -0.3583183,-0.67646 -0.8672014,-0.70326 -1.2542433,-1.27865 -0.8600932,-1.27865 0.3941501,0 0.118577,-0.4569 -0.6123848,-1.01534 -0.7309617,-0.55844 -1.4404901,-1.5623 -1.5767297,-2.23081 -0.1362397,-0.66851 -0.7959937,-1.70081 -1.46612,-2.294 -0.6701264,-0.59319 -0.7587337,-0.84536 -0.1969052,-0.56039 0.8062703,0.40894 0.8240308,0.0847 0.084291,-1.53885 -0.5154682,-1.13133 -1.3063368,-1.82883 -1.7574858,-1.55001 -1.92367874,1.18891 0.2873131,-5.86968 2.4574771,-7.84548 2.6535163,-2.41586 28.6843185,-15.41458 35.1526935,-17.55381 2.45713,-0.81264 6.571919,-2.39521 9.143977,-3.51686 5.376175,-2.34448 4.475428,-0.57501 12.647696,-24.84571 2.707687,-8.04152 5.824137,-16.81408 6.925447,-19.49458 2.122716,-5.16654 3.793464,-17.26467 5.384392,-38.989173 1.162038,-15.867907 1.567934,-18.067596 3.829963,-20.755865 1.094329,-1.300537 3.399326,-2.786949 5.122217,-3.303139 3.066741,-0.918819 3.158455,-1.059846 4.367615,-6.715934 0.679305,-3.177574 1.469339,-8.701595 1.755634,-12.275603 0.302401,-3.775089 1.158165,-7.762149 2.04213,-9.514393 0.83687,-1.658909 2.453077,-6.882516 3.591569,-11.608015 2.114618,-8.777104 4.33787,-13.336483 8.845932,-18.1410078 4.28131,-4.5628581 10.92625,-7.2138612 12.34165,-4.92370408 0.31811,0.51471538 1.56623,0.69137918 2.94142,0.41634158 2.86549,-0.57309906 7.06558,1.0427563 9.55698,3.6767542 2.6205,2.7704871 7.0599,11.8876221 8.91471,18.3080161 0.88035,3.047287 2.18518,7.148665 2.89965,9.114172 0.72158,1.98511 1.08406,4.55238 0.81543,5.775442 -0.32821,1.494329 0.0928,3.178759 1.31038,5.24235 2.24599,3.806675 2.75266,10.075531 1.1285,13.962679 -0.67029,1.60426 -1.21873,3.043899 -1.21873,3.199197 0,0.155298 1.73519,0.788315 3.85597,1.406705 3.34786,0.976191 3.9633,1.499484 4.67058,3.971224 0.44803,1.565782 1.31898,3.45005 1.93543,4.187261 1.22409,1.463907 2.50791,5.809472 7.35088,24.881851 3.8401,15.122961 5.80785,20.469331 12.30185,33.424051 7.97171,15.90255 7.473,15.34473 18.38368,20.56265 5.26857,2.51964 9.94475,5.04941 10.3915,5.62173 1.07981,1.38328 11.17457,8.50312 16.14364,11.38611 2.17773,1.26349 5.32899,3.5345 7.00278,5.04667 1.6738,1.51217 3.43192,2.7494 3.90694,2.7494 0.87887,0 10.92972,7.79547 14.96923,11.61019 l 2.22115,2.09754 -4.52718,6.75173 c -6.79158,10.12876 -6.85688,10.18075 -12.95728,10.31303 -7.97794,0.17299 -13.61614,1.87399 -24.72859,7.46044 -7.23328,3.6363 -11.49051,6.37761 -14.80247,9.53158 -3.84695,3.66343 -5.59567,4.68975 -10.13585,5.9487 -3.01774,0.8368 -6.22576,1.52993 -7.12894,1.54029 -0.90317,0.0104 -2.9742,1.19832 -4.60229,2.63989 -1.62809,1.44158 -6.37989,5.29813 -10.55956,8.57011 -4.17968,3.27198 -8.28402,6.50523 -9.12077,7.18497 -1.35112,1.09762 -1.46053,1.97702 -0.97779,7.8596 1.44629,17.62415 1.44302,17.77347 -0.60843,27.74283 -1.10316,5.36101 -2.81268,13.76805 -3.79893,18.68231 -0.98624,4.91426 -2.74485,12.59025 -3.908,17.05776 -1.69246,6.50048 -2.12534,10.10033 -2.16751,18.02457 -0.029,5.44601 -0.31821,10.16735 -0.64273,10.49188 -0.32452,0.32453 -0.63329,5.37231 -0.68615,11.21731 -0.0529,5.84499 -0.327,11.72382 -0.6092,13.06407 -0.90013,4.27483 -7.77336,6.48701 -13.71726,4.41495 -2.3477,-0.81841 -2.51042,-1.15901 -3.03119,-6.34461 -0.46567,-4.63691 -0.29413,-5.97192 1.11528,-8.67939 1.10218,-2.11731 1.91299,-5.89733 2.39701,-11.17492 0.40229,-4.38642 1.14502,-8.3889 1.65052,-8.8944 0.50551,-0.5055 0.9191,-1.79444 0.9191,-2.8643 0,-1.06986 0.78263,-4.52183 1.73917,-7.67105 1.64165,-5.40477 1.71339,-6.86939 1.27929,-26.11888 -0.25351,-11.24155 -0.0939,-24.76717 0.35572,-30.14032 0.47394,-5.66395 0.52685,-11.44868 0.12632,-13.80866 l -0.68929,-4.06137 -4.85778,-0.23109 -4.85776,-0.23108 -2.2131,6.32314 c -1.2172,3.47773 -3.27796,10.52666 -4.57946,15.6643 -1.3015,5.13763 -4.26312,13.9102 -6.58139,19.49458 -2.318274,5.58439 -5.881185,14.17419 -7.917581,19.08845 -2.509757,6.05658 -4.051974,11.2901 -4.787212,16.24549 -1.702714,11.47593 -2.907024,15.72665 -6.675807,23.56279 -1.931963,4.017 -3.720046,8.4002 -3.973512,9.74045 -0.790053,4.17757 -4.856081,12.40038 -6.590842,13.32879 -2.275237,1.21768 -5.794501,1.05718 -8.453375,-0.38551 z M 83.811506,140.89466 c 6.087054,-6.56641 6.892562,-8.81052 5.998613,-16.71199 -0.473637,-4.18638 -3.541678,-14.1707 -4.156554,-13.52667 -0.115229,0.12069 -0.952351,4.60573 -1.860262,9.96674 -1.497306,8.84122 -2.909131,13.55291 -8.153634,27.21119 l -1.715433,4.46751 2.230119,-2.77619 c 1.226565,-1.52691 4.672282,-5.41067 7.657151,-8.63059 z m 73.275954,-6.66632 c -0.51391,-2.75891 -8.62758,-26.05336 -11.31691,-32.49098 -1.4763,-3.533903 -3.9753,-3.658311 -3.20687,-0.15964 0.39702,1.8076 -0.006,3.62497 -1.48453,6.70126 -2.13325,4.43727 -2.73799,7.51097 -3.50732,17.82661 -0.43361,5.81421 -0.35122,6.29513 1.07862,6.29513 0.85145,0 1.89879,0.35069 2.32741,0.77931 0.66981,0.66981 12.56598,3.71273 15.62482,3.99667 0.7818,0.0725 0.90636,-0.68503 0.48478,-2.94836 z"
       id="path3401"
       inkscape:connector-curvature="0" />
    <path
       style="fill:#e29390"
       d="m 63.613033,378.9555 c -6.787311,-2.952 -6.648035,-11.70066 0.333561,-20.95274 3.185975,-4.22209 5.690432,-9.29338 5.258205,-10.64737 -0.48364,-1.51505 1.815777,-6.72264 3.931554,-8.90397 3.261992,-3.36306 5.618523,-10.32169 6.924016,-20.44601 0.633675,-4.91426 1.521151,-11.31092 1.972159,-14.2148 0.451015,-2.90388 1.387332,-8.93502 2.080705,-13.40253 1.542794,-9.94043 4.455471,-21.25889 7.22423,-28.07284 2.895831,-7.12668 2.782048,-8.07231 -0.971943,-8.0779 -4.213104,-0.006 -8.420361,-1.2868 -11.829946,-3.6006 -1.83814,-1.2474 -3.523674,-1.79021 -4.646902,-1.49647 -0.969398,0.2535 -2.008419,0.0631 -2.308935,-0.42317 -0.385234,-0.62332 -2.044867,-0.50662 -5.626816,0.39568 -4.896705,1.23348 -5.321885,1.21163 -11.757647,-0.60431 -9.809829,-2.76798 -14.706179,-5.11353 -15.831837,-7.58409 -0.767454,-1.68437 -1.535362,-2.11572 -3.766528,-2.11572 -2.101126,0 -3.477719,-0.68135 -5.500266,-2.72237 -9.222997,-9.30726 -13.638802,-14.26087 -14.856393,-16.66574 -0.762016,-1.50507 -2.462792,-3.7896 -3.779501,-5.07672 -1.3167095,-1.28712 -2.1779876,-2.34022 -1.9139513,-2.34022 0.2640363,0 -0.1559526,-1.0767 -0.9333075,-2.39266 -0.7773552,-1.31595 -1.6735278,-2.23186 -1.9914946,-2.03534 -0.3179669,0.19651 -0.7949978,-0.20787 -1.0600686,-0.89864 -0.2706694,-0.70535 -0.1369128,-1.04269 0.3051134,-0.76951 0.4328833,0.26754 0.1644105,-0.59847 -0.5966062,-1.92446 -0.7610167,-1.326 -1.6634791,-2.23797 -2.005472,-2.02661 -0.3419929,0.21137 -0.4041235,-0.18297 -0.138068,-0.8763 0.2660555,-0.69333 0.1525044,-1.2606 -0.2523359,-1.2606 -0.4048404,0 -0.586262,-1.28324 -0.4031592,-2.85165 0.2240974,-1.91956 1.0383557,-3.35397 2.4911433,-4.38844 5.9661135,-4.24826 33.1155296,-17.59881 37.6210206,-18.49991 1.376604,-0.27532 4.580225,-1.50684 7.119159,-2.73672 l 4.616242,-2.23614 5.832688,-17.52023 c 3.207979,-9.63612 6.732674,-19.55525 7.832658,-22.04251 2.898343,-6.55367 3.415603,-10.23154 6.88027,-48.920777 1.067058,-11.915611 2.923224,-15.308212 9.243326,-16.894456 1.788506,-0.448888 2.206015,-1.255696 3.276609,-6.331837 1.303245,-6.179273 2.129353,-11.68079 2.630136,-17.515585 0.168774,-1.966493 0.860775,-4.187504 1.537773,-4.935579 0.676999,-0.748076 1.55713,-2.977122 1.955835,-4.953439 1.889862,-9.367579 2.879196,-12.824697 4.710371,-16.459899 4.29553,-8.5273872 13.05977,-14.9957966 17.26724,-12.74402579 0.96694,0.51749099 2.56054,0.87688939 3.54134,0.79866309 3.99829,-0.3188968 5.5151,0.1544969 8.28364,2.5853051 3.27219,2.873021 8.77945,13.5627846 10.13362,19.6696946 0.48067,2.167678 1.45167,5.058445 2.15779,6.423927 0.70612,1.365481 1.3622,4.343731 1.45795,6.618333 0.0957,2.274601 0.84218,5.597733 1.65873,7.384737 2.22593,4.87139 2.24298,9.775284 0.0526,15.146642 -0.43008,1.05467 0.30592,1.620807 3.47586,2.673693 3.37674,1.121575 4.09875,1.722154 4.50355,3.746172 0.26515,1.325752 1.19038,3.412302 2.05607,4.636777 0.86568,1.224475 3.60908,10.267834 6.09645,20.096354 2.48737,9.82852 5.63192,20.74268 6.98789,24.25368 2.43313,6.30004 11.04599,23.25269 13.95116,27.45997 0.93712,1.35715 5.04849,3.89947 11.01894,6.81371 5.23823,2.55684 10.65675,5.7172 12.04116,7.02301 2.59915,2.45158 8.21373,6.31821 16.17569,11.13982 2.5187,1.52528 5.01505,3.38704 5.54746,4.13724 0.53241,0.7502 2.32302,2.00374 3.97915,2.78562 2.66501,1.2582 14.86343,10.97011 16.17179,12.87535 0.62188,0.90559 -9.41451,15.73715 -11.30561,16.70722 -0.75852,0.3891 -3.93779,0.77671 -7.06504,0.86136 -7.65367,0.20719 -12.20374,1.64787 -23.63421,7.48325 -6.43424,3.28476 -11.04695,6.27734 -13.78771,8.94503 -3.17746,3.09275 -5.46912,4.46576 -10.02817,6.00819 -3.25023,1.09963 -6.69691,2.00781 -7.65931,2.01817 -0.9624,0.0104 -3.08739,1.19832 -4.72221,2.63989 -4.94528,4.36072 -9.17649,7.5011 -9.82092,7.28904 -0.33506,-0.11027 -0.6092,0.12112 -0.6092,0.5142 0,0.39307 -2.10176,2.28763 -4.67058,4.21012 -2.56882,1.92248 -4.93912,3.8854 -5.26735,4.36203 -0.89133,1.29435 -0.75315,7.38364 0.32887,14.49221 1.12483,7.38988 0.26918,15.65148 -2.96338,28.61265 -1.11422,4.46751 -2.60077,11.59522 -3.30344,15.83935 -0.70268,4.24414 -2.18366,10.94029 -3.29108,14.88034 -1.42838,5.08202 -1.95754,8.79193 -1.82095,12.76682 0.1059,3.08169 -0.0332,5.82884 -0.30916,6.10478 -0.27593,0.27593 -0.1276,1.57483 0.32963,2.88643 0.58764,1.68567 0.56547,2.70508 -0.0756,3.47754 -0.5594,0.67404 -0.9812,5.83092 -1.10072,13.45746 -0.18556,11.84066 -0.27369,12.42936 -2.07936,13.89137 -3.14861,2.54937 -10.38263,3.05267 -13.68204,0.95191 -0.52069,-0.33151 -1.201,-3.18356 -1.51183,-6.33788 -0.44735,-4.53998 -0.31472,-5.98552 0.63646,-6.93671 1.7142,-1.7142 2.24233,-3.81489 2.98534,-11.87454 0.36108,-3.91671 1.05058,-8.21788 1.53222,-9.55813 0.48165,-1.34025 1.67218,-5.32677 2.64563,-8.85892 1.66373,-6.03689 1.74477,-7.64469 1.35109,-26.80506 -0.23035,-11.21062 -0.0492,-25.13476 0.40241,-30.94252 0.50124,-6.4453 0.5366,-11.98373 0.0907,-14.2148 l -0.73048,-3.65523 -4.852,-0.40614 -4.85199,-0.40614 -1.92153,5.27979 c -1.05684,2.90388 -3.11609,9.84882 -4.57611,15.43321 -2.55672,9.77907 -6.44107,20.66639 -10.722659,30.05415 -5.445349,11.93941 -8.262617,20.25566 -8.826059,26.05351 -0.322376,3.31723 -1.08186,7.448 -1.68776,9.17948 -0.605892,1.73149 -1.101623,3.89766 -1.101623,4.81374 0,0.91606 -1.827617,5.44482 -4.061372,10.06389 -2.233754,4.61907 -4.061371,9.16282 -4.061371,10.09721 0,0.9344 -1.124657,4.0554 -2.499236,6.93558 -3.20459,6.71461 -6.116767,8.0852 -11.866067,5.58466 z M 84.243457,140.65376 c 4.136678,-4.31772 5.143297,-5.91164 5.582315,-8.83924 0.773959,-5.16114 -0.263616,-12.53893 -2.45687,-17.46973 l -1.904483,-4.28162 -0.476488,2.84296 c -2.664512,15.89774 -5.455031,26.30655 -8.828032,32.92907 -0.67367,1.32268 -1.467099,3.31868 -1.763177,4.43555 -0.458747,1.73051 -0.143762,1.55913 2.130851,-1.15936 1.468046,-1.75453 4.940197,-5.56047 7.715884,-8.45763 z m 72.960353,-6.53885 c -0.55531,-3.15813 -9.68389,-29.16231 -11.47392,-32.68525 -0.59674,-1.17443 -1.62561,-2.34279 -2.28639,-2.596349 -0.96568,-0.370568 -1.18375,0.314277 -1.11141,3.490229 0.0597,2.62136 -0.42121,4.72549 -1.42886,6.25158 -1.7077,2.58633 -2.62696,7.29397 -3.34387,17.12434 -0.47209,6.47319 -0.42909,6.70126 1.26318,6.70126 0.96355,0 1.9615,0.54619 2.21766,1.21375 0.25617,0.66756 0.7112,1.06205 1.01117,0.87666 0.60966,-0.3768 8.33023,1.36709 11.46848,2.59044 3.21945,1.25501 4.27658,0.40369 3.68396,-2.96666 z"
       id="path3399"
       inkscape:connector-curvature="0" />
  </g>
</svg>
