<?xml version="1.0" encoding="UTF-8" standalone="no"?>
<!-- Created with Inkscape (http://www.inkscape.org/) -->

<svg
   xmlns:dc="http://purl.org/dc/elements/1.1/"
   xmlns:cc="http://creativecommons.org/ns#"
   xmlns:rdf="http://www.w3.org/1999/02/22-rdf-syntax-ns#"
   xmlns:svg="http://www.w3.org/2000/svg"
   xmlns="http://www.w3.org/2000/svg"
   xmlns:sodipodi="http://sodipodi.sourceforge.net/DTD/sodipodi-0.dtd"
   xmlns:inkscape="http://www.inkscape.org/namespaces/inkscape"
   id="svg3406"
   version="1.1"
   inkscape:version="0.91 r13725"
   width="244.55403"
   height="633.50897"
   viewBox="0 0 244.55403 633.50897"
   sodipodi:docname="silhouette-femme-51.svg">
  <title
     id="title3340">Silhouette Femme 51</title>
  <metadata
     id="metadata3412">
    <rdf:RDF>
      <cc:Work
         rdf:about="">
        <dc:format>image/svg+xml</dc:format>
        <dc:type
           rdf:resource="http://purl.org/dc/dcmitype/StillImage" />
        <dc:title>Silhouette Femme 51</dc:title>
        <cc:license
           rdf:resource="http://creativecommons.org/publicdomain/zero/1.0/" />
        <dc:date>2017-03-06</dc:date>
        <dc:creator>
          <cc:Agent>
            <dc:title>JLouis</dc:title>
          </cc:Agent>
        </dc:creator>
        <dc:rights>
          <cc:Agent>
            <dc:title>Domaine pubic</dc:title>
          </cc:Agent>
        </dc:rights>
        <dc:publisher>
          <cc:Agent>
            <dc:title>inkscape</dc:title>
          </cc:Agent>
        </dc:publisher>
        <dc:subject>
          <rdf:Bag>
            <rdf:li>Silhouette</rdf:li>
            <rdf:li>woman</rdf:li>
            <rdf:li>femme</rdf:li>
          </rdf:Bag>
        </dc:subject>
        <dc:description>Woman in silhouette - Femme en silhouette</dc:description>
      </cc:Work>
      <cc:License
         rdf:about="http://creativecommons.org/publicdomain/zero/1.0/">
        <cc:permits
           rdf:resource="http://creativecommons.org/ns#Reproduction" />
        <cc:permits
           rdf:resource="http://creativecommons.org/ns#Distribution" />
        <cc:permits
           rdf:resource="http://creativecommons.org/ns#DerivativeWorks" />
      </cc:License>
    </rdf:RDF>
  </metadata>
  <defs
     id="defs3410" />
  <sodipodi:namedview
     pagecolor="#ffffff"
     bordercolor="#666666"
     borderopacity="1"
     objecttolerance="10"
     gridtolerance="10"
     guidetolerance="10"
     inkscape:pageopacity="0"
     inkscape:pageshadow="2"
     inkscape:window-width="1237"
     inkscape:window-height="756"
     id="namedview3408"
     showgrid="false"
     fit-margin-top="0"
     fit-margin-left="0"
     fit-margin-right="0"
     fit-margin-bottom="0"
     inkscape:zoom="0.8828125"
     inkscape:cx="205.19027"
     inkscape:cy="319.82547"
     inkscape:window-x="0"
     inkscape:window-y="0"
     inkscape:window-maximized="1"
     inkscape:current-layer="svg3406" />
  <g
     id="g3416"
     transform="translate(-197.5,-4.0509913)">
    <path
       style="fill:#f6e9e6"
       d="m 293.29221,631.66986 c -2.75251,-3.53297 -4.611,-7.35 -4.71679,-9.6875 -0.096,-2.12155 -0.31521,-17.63861 -0.4871,-34.48236 -0.30566,-29.95268 -0.39465,-30.89941 -4.05341,-43.125 -5.42282,-18.12008 -7.76015,-28.87785 -12.62873,-58.125 -2.44825,-14.70745 -2.56822,-21.12243 -0.86492,-46.25 0.61163,-9.02286 0.44408,-19.72714 -0.44999,-28.75 -0.78342,-7.90625 -1.9349,-20.3787 -2.55883,-27.71656 -0.62393,-7.33787 -1.67381,-15.49411 -2.33308,-18.125 -0.65926,-2.63089 -1.54703,-6.33032 -1.97282,-8.22094 -0.42579,-1.89063 -1.58741,-3.4375 -2.58138,-3.4375 -3.34937,0 -4.05848,-4.29884 -3.81456,-23.125 0.18254,-14.08824 0.91751,-21.6879 2.95616,-30.56648 1.49229,-6.49906 2.71324,-13.86221 2.71324,-16.36254 0,-2.50034 1.12576,-8.94778 2.50171,-14.32765 1.37594,-5.37987 2.2977,-9.98559 2.04835,-10.23493 -0.24934,-0.24934 -1.88789,0.092 -3.64122,0.75869 -2.54956,0.96934 -4.45388,0.55971 -9.51035,-2.04571 C 242.61595,252.03286 225.93611,238.68431 211.5625,223.96567 198.75722,210.85304 197.5,209.15077 197.5,204.92526 c 0,-6.50464 6.98289,-16.48491 24.1545,-34.52272 C 236.85516,154.43509 245,144.05056 245,140.63742 c 0,-2.19566 1.49182,-3.59732 13.49027,-12.67495 5.5851,-4.2255 8.50064,-5.44938 16.06317,-6.74299 7.74747,-1.32525 9.32183,-2.00551 9.74917,-4.21248 1.04966,-5.42097 3.49884,-32.287739 3.85346,-42.27144 0.20242,-5.698308 0.51164,-13.45431 0.68718,-17.23556 0.17554,-3.78125 0.16938,-8.84375 -0.0138,-11.25 -0.61335,-8.062047 -0.093,-12.308011 1.73215,-14.133135 0.99645,-0.996437 2.19461,-4.698105 2.66259,-8.225925 0.4781,-3.604133 2.35298,-8.782807 4.27955,-11.820684 2.7588,-4.350169 4.54877,-5.7200714 9.16169,-7.0116054 3.15314,-0.8828274 7.11872,-1.2573445 8.81239,-0.8322604 3.97823,0.9984596 10.77213,6.7166868 10.77213,9.0665448 0,1.001386 1.26562,3.101404 2.8125,4.666705 11.96766,12.110235 15.12436,18.31396 16.44945,32.327397 0.30747,3.251622 0.91015,6.480157 1.33929,7.174523 1.13534,1.837001 -1.55209,15.115954 -3.52874,17.436035 -5.72511,6.719839 -7.0967,20.400732 -2.17434,21.68796 1.35408,0.3541 2.68892,2.215299 3.17455,4.426365 0.99635,4.53638 1.80993,5.27818 11.41513,10.40811 7.8171,4.17494 18.37179,7.2115 25.32325,7.28544 6.87595,0.0731 12.22657,3.45822 16.554,10.47291 2.18734,3.54564 4.95565,7.87689 6.1518,9.62501 2.10041,3.06965 2.07794,3.291 -0.65688,6.47042 -2.63966,3.06878 -2.89447,4.88255 -3.75733,26.74489 -1.14726,29.06754 -0.47458,39.84941 3.57844,57.3563 1.75079,7.5625 4.04477,21.62559 5.09771,31.25131 1.05293,9.62571 3.34547,24.52773 5.09452,33.11559 3.80285,18.67206 6.03846,22.08971 18.83939,28.80041 l 8.66226,4.54108 0.90812,7.3958 c 0.49947,4.0677 0.53615,10.20831 0.0815,13.64581 -0.45462,3.4375 -0.6804,7.02979 -0.50171,7.98285 0.21791,1.16225 -0.4859,1.52082 -2.13738,1.08895 -1.76249,-0.4609 -2.86379,0.23734 -3.87507,2.45685 -1.11913,2.45621 -1.77293,2.80186 -3.14536,1.66285 -1.20851,-1.00299 -1.98138,-1.03529 -2.55521,-0.10675 -0.45247,0.7321 -1.34629,1.00747 -1.98629,0.61192 -2.09516,-1.29487 -1.22404,-4.74675 2.06399,-8.17872 l 3.22762,-3.3689 -4.16512,-6.20308 c -2.534,-3.77386 -6.29087,-7.34618 -9.5933,-9.12206 -7.02964,-3.78017 -10.7801,-8.83125 -14.45032,-19.4615 -1.63543,-4.73679 -4.20551,-11.42485 -5.71128,-14.86235 -4.257,-9.71821 -16.09,-41.15936 -20.68917,-54.97262 -3.54451,-10.64572 -4.05816,-13.66673 -3.5068,-20.625 0.3553,-4.4838 0.0663,-9.55863 -0.64238,-11.27738 -1.26758,-3.07451 -1.28968,-3.05957 -1.36763,0.92409 -0.0436,2.227 -1.0994,6.73395 -2.34626,10.01544 -2.09455,5.51238 -2.14961,7.41485 -0.7238,25.00451 1.30786,16.13436 2.20397,20.89845 5.87514,31.23457 7.01086,19.73897 8.7208,36.73244 9.02553,89.69639 0.17082,29.68916 0.76694,47.1265 1.75205,51.25 0.82123,3.4375 2.59704,14.93969 3.94624,25.56041 1.49356,11.75699 3.14373,20.07354 4.21868,21.26134 1.52096,1.68065 1.50825,6.8848 -0.0917,37.56459 -1.02153,19.58751 -1.95697,39.83241 -2.07877,44.98866 -0.37567,15.90461 1.45038,44.90141 3.54563,56.3026 1.09701,5.96933 1.70874,13.6026 1.3594,16.96285 -0.34934,3.36025 -0.6748,7.00364 -0.72324,8.0964 -0.11537,2.6022 -5.28694,4.88815 -11.05859,4.88815 -5.16965,0 -15.5761,-6.28071 -17.5253,-10.57722 -1.21142,-2.67029 -2.03442,-35.23909 -1.56476,-61.92278 0.10288,-5.84375 -0.40394,-13.6549 -1.12621,-17.35811 -0.72225,-3.70328 -1.3132,-11.08567 -1.3132,-16.4054 0,-5.54615 -0.82599,-12.00554 -1.93625,-15.14189 -1.06495,-3.00831 -2.59474,-10.95404 -3.39954,-17.65716 -0.80481,-6.70313 -1.95841,-12.1875 -2.56356,-12.1875 -0.6136,0 -0.73698,-5.11434 -0.27892,-11.5625 0.74694,-10.51516 0.52077,-12.41169 -2.49692,-20.9375 -4.22299,-11.93109 -6.03946,-20.14463 -9.26092,-41.875 -2.00122,-13.49918 -4.20177,-22.14381 -9.62543,-37.8125 l -7.03109,-20.3125 -5.99006,0 -5.99006,0 -1.32606,6.5625 c -3.44586,17.05324 -5.44933,34.93964 -6.54563,58.4375 -0.65755,14.09375 -1.48957,30.31186 -1.84896,36.04024 -0.55915,8.91261 -0.34128,10.64349 1.51016,11.99729 1.69919,1.24247 1.99194,2.65548 1.36389,6.58311 -0.43984,2.75058 -0.17995,12.5393 0.57753,21.75271 1.15504,14.04942 1.58463,27.89671 2.27548,73.34945 0.0343,2.25379 0.93635,6.18971 2.00464,8.7465 1.0683,2.55679 2.21403,9.43154 2.54606,15.2772 0.33204,5.84567 1.14639,13.32806 1.80968,16.62753 1.64646,8.1903 1.44918,18.59736 -0.39629,20.90533 -3.82299,4.78107 -8.87195,7.47064 -14.0241,7.47064 -4.81369,0 -5.69757,-0.52415 -9.83144,-5.83014 z m -25.23502,-394.9924 c 2.7873,-3.54168 6.50526,-7.0784 8.26213,-7.85936 2.06141,-0.91634 4.62008,-4.31123 7.21432,-9.57207 3.69291,-7.48883 3.95871,-8.83229 3.26686,-16.51158 -0.41424,-4.5977 -1.34795,-10.04695 -2.07493,-12.10945 -0.72698,-2.0625 -1.66576,-6.25622 -2.08617,-9.3194 -0.64557,-4.70364 -1.54164,-6.10599 -5.7644,-9.02127 -2.75,-1.89854 -6.81248,-3.81135 -9.02771,-4.25069 -4.13237,-0.81957 -4.15548,-0.80651 -17.84314,10.08017 -1.72104,1.36885 -8.58206,8.09009 -15.24673,14.93608 l -12.11758,12.44723 4.64591,5.06394 c 2.55525,2.78516 6.59575,7.79028 8.9789,11.12248 5.14857,7.1989 22.34385,22.21122 24.91754,21.75424 0.99395,-0.17649 4.0877,-3.21864 6.875,-6.76032 z"
       id="path3430"
       inkscape:connector-curvature="0" />
    <path
       style="fill:#f3e1dd"
       d="m 293.4375,631.69779 c -2.97821,-3.68032 -4.74376,-7.2111 -4.8418,-9.68268 -0.0849,-2.13956 -0.29687,-17.67136 -0.47111,-34.51511 -0.30319,-29.30841 -0.46358,-31.10865 -3.7308,-41.875 -4.9163,-16.20048 -6.53924,-23.45838 -11.04078,-49.375 -4.25306,-24.48604 -4.45999,-28.49464 -2.82134,-54.65336 1.12148,-17.90275 -1.2723,-52.55152 -5.19173,-75.14784 -1.7575,-10.13233 -2.40972,-11.82235 -4.93261,-12.78156 -2.19892,-0.83603 -2.92583,-2.10279 -2.98327,-5.1988 -0.0417,-2.25139 -0.33748,-9.15594 -0.65717,-15.34344 -0.41787,-8.08804 0.14638,-15.29029 2.00757,-25.625 1.42384,-7.90625 3.07929,-18.65108 3.67878,-23.87739 0.59947,-5.22631 1.98025,-12.50029 3.06836,-16.16437 2.601,-8.7585 2.62933,-8.65669 -2.19116,-7.87444 -5.08979,0.82596 -10.19859,-1.6232 -23.90464,-11.45989 -12.83319,-9.21026 -21.52249,-17.00024 -32.81659,-29.42014 -10.019,-11.0177 -10.70136,-13.1825 -6.65523,-21.11357 3.12483,-6.12516 21.4499,-27.97571 26.55475,-31.66349 5.05591,-3.65244 18.47073,-21.87176 18.56246,-25.2106 0.0439,-1.59567 2.55816,-4.51199 6.54472,-7.59111 11.10993,-8.58103 13.74119,-9.9217 23.33399,-11.88902 l 9.32489,-1.91237 1.57869,-12.55905 c 2.46698,-19.62597 3.8543,-44.883329 3.2627,-59.400658 -0.45012,-11.045285 -0.20238,-13.599128 1.48262,-15.28413 1.50275,-1.502747 4.28589,-12.122228 4.39396,-16.765841 0.004,-0.171087 2.14653,-2.515454 4.7612,-5.209702 3.00465,-3.0960923 6.38,-5.2036789 9.17293,-5.7276356 6.0825,-1.1410833 13.05501,1.9562688 15.78894,7.0138136 1.18755,2.196868 5.37805,7.603607 9.31222,12.014975 7.83481,8.785134 9.13666,12.036783 11.13808,27.819717 1.55851,12.290325 0.93317,20.483856 -1.79453,23.513126 -2.81734,3.128829 -6.69875,14.18036 -6.15201,17.516622 0.26344,1.607549 1.78054,3.377374 3.43394,4.005997 2.04076,0.775897 3.21593,2.479771 3.77847,5.478396 0.65488,3.49079 1.84343,4.87797 6.00475,7.00831 2.85354,1.46083 6.73553,3.49613 8.62665,4.52289 4.42609,2.40309 16.23762,5.47956 21.03774,5.47956 4.76084,0 11.14032,2.69319 14.00615,5.9129 2.38899,2.68399 10.89271,16.42042 10.89271,17.59547 0,0.38803 -1.18199,1.96368 -2.62665,3.50144 -2.5264,2.68923 -2.63375,4.09975 -2.8125,36.95556 -0.18055,33.18506 -0.0898,34.55192 3.18384,47.90963 1.85333,7.5625 4.25055,21.625 5.32715,31.25 2.59474,23.19747 7.2163,45.64857 10.4857,50.93859 1.79647,2.90676 5.80491,5.97935 12.50517,9.58561 l 9.8612,5.30755 0.83899,9.25861 c 0.51545,5.68821 0.33731,10.19601 -0.46195,11.68944 -0.71552,1.33696 -1.30095,3.92095 -1.30095,5.74219 0,2.10353 -0.56992,3.11452 -1.5625,2.77172 -0.85937,-0.29679 -2.48066,0.83476 -3.60286,2.51455 -1.12351,1.68176 -2.38788,2.49186 -2.81374,1.8028 -0.42536,-0.68825 -1.89782,-0.95731 -3.27215,-0.59792 -3.5606,0.93112 -3.21521,-2.34485 0.7432,-7.04917 l 3.24195,-3.85283 -4.55877,-6.86807 c -2.50732,-3.77743 -5.31162,-6.86807 -6.23175,-6.86807 -0.92015,0 -4.45833,-2.50425 -7.86263,-5.56501 -5.02725,-4.51993 -6.70725,-7.14178 -8.9459,-13.96118 -1.51595,-4.61788 -4.45539,-12.37926 -6.5321,-17.24748 -2.07671,-4.86823 -8.2369,-20.81368 -13.6893,-35.43433 -9.73267,-26.09825 -9.9138,-26.79349 -9.93259,-38.125 -0.0105,-6.3481 -0.56441,-12.38575 -1.23086,-13.417 -0.91995,-1.42353 -1.21632,-0.90003 -1.23086,2.17409 -0.01,2.227 -1.03187,6.727 -2.26965,10 -1.94695,5.14825 -2.11388,7.88983 -1.23758,20.32591 1.37341,19.49086 2.61309,26.2924 7.06275,38.75 6.37268,17.84143 8.05153,35.38474 8.31368,86.875 0.18415,36.16903 0.6322,46.96244 2.28312,55 1.12971,5.5 2.86401,16.85048 3.854,25.22328 0.98999,8.3728 2.61535,16.52904 3.61193,18.125 1.58477,2.53791 1.56472,7.1332 -0.15997,36.65172 -2.87915,49.27749 -2.39998,79.51845 1.61422,101.875 2.44302,13.60617 1.46987,25.53984 -2.29792,28.1789 -4.42065,3.09634 -12.26748,2.29279 -17.97343,-1.84059 -9.14902,-6.6275 -8.85868,-5.1565 -8.48722,-43.00069 0.25224,-25.69752 -0.0979,-35.93991 -1.43883,-42.08762 -0.9747,-4.46875 -1.66472,-12.0625 -1.53335,-16.875 0.15808,-5.79155 -0.65245,-11.86397 -2.39727,-17.96001 -1.44986,-5.0655 -3.0138,-13.37802 -3.47542,-18.47223 -0.46163,-5.09422 -1.33974,-9.5715 -1.95135,-9.9495 -0.61494,-0.38005 -0.74493,-5.55024 -0.29079,-11.56607 0.77768,-10.30165 0.58299,-11.5731 -3.66951,-23.9655 -2.93258,-8.54594 -5.40384,-19.3756 -7.1223,-31.21169 -3.47356,-23.92446 -4.20721,-27.17143 -9.46164,-41.875 -2.45682,-6.875 -5.30675,-14.89063 -6.33317,-17.8125 -1.84656,-5.25659 -1.92959,-5.3125 -7.88815,-5.3125 l -6.02194,0 -1.33455,5.9375 c -3.14185,13.9783 -5.51792,35.10115 -6.57353,58.4375 -0.62196,13.75 -1.46437,30.0059 -1.872,36.12424 -0.64029,9.61045 -0.45515,11.28428 1.36058,12.30042 1.63269,0.91369 1.92647,2.21354 1.31644,5.82434 -0.43192,2.55649 -0.11913,13.05255 0.69521,23.32457 0.81427,10.27204 1.32072,26.55143 1.12544,36.17643 -0.53753,26.49297 0.41685,39.4351 3.59491,48.75 1.32984,3.89774 3.95379,25.22114 4.85545,39.45752 l 0.51981,8.20753 -5.09715,4.60497 c -4.19156,3.78682 -6.04039,4.60413 -10.40606,4.60017 -4.80474,-0.004 -5.75405,-0.55493 -9.9964,-5.7974 z M 268.85161,236.25 c 3.58783,-4.125 7.27563,-7.5 8.19514,-7.5 0.9195,0 3.65206,-3.93223 6.07235,-8.73829 4.17077,-8.28206 4.36182,-9.21205 3.65914,-17.8125 -0.40778,-4.99081 -1.53719,-11.19497 -2.50983,-13.78701 -0.97262,-2.59204 -1.76841,-6.29086 -1.76841,-8.2196 0,-5.09793 -9.8596,-12.6926 -16.47786,-12.6926 -3.90897,0 -18.70968,12.06216 -32.53485,26.51499 l -10.8877,11.382 5.2627,6.19195 c 2.8945,3.40556 7.23146,8.67062 9.63771,11.70014 5.48261,6.90271 20.78886,20.46092 23.09891,20.46092 0.95118,0 4.66489,-3.375 8.2527,-7.5 z"
       id="path3428"
       inkscape:connector-curvature="0" />
    <path
       style="fill:#efd3d0"
       d="m 293.4375,631.69779 c -2.97821,-3.68032 -4.74376,-7.2111 -4.8418,-9.68268 -0.0849,-2.13956 -0.30379,-17.67136 -0.48648,-34.51511 l -0.33214,-30.625 -4.53549,-15.625 c -3.82334,-13.17165 -7.37065,-30.28735 -12.95344,-62.5 -0.53619,-3.09375 -0.46869,-16.3125 0.14998,-29.375 1.22043,-25.76805 -0.95597,-61.05228 -5.15472,-83.56933 -1.75318,-9.40191 -2.49486,-11.2331 -4.92376,-12.15656 -2.16788,-0.82422 -2.86519,-2.07747 -2.88256,-5.18067 -0.0126,-2.25139 -0.30315,-9.0445 -0.64568,-15.0958 -0.45554,-8.04792 0.0895,-14.92899 2.02975,-25.625 1.45888,-8.04245 3.1334,-18.84139 3.72117,-23.99764 0.58776,-5.15625 1.92858,-12.1875 2.97963,-15.625 2.71402,-8.8764 2.59689,-9.32474 -2.23152,-8.5412 -4.93824,0.80136 -10.03133,-1.57313 -22.70544,-10.58571 -12.07955,-8.58979 -22.53068,-17.9011 -33.66836,-29.99647 -10.36759,-11.25903 -11.09149,-13.43652 -7.06085,-21.23892 3.114,-6.028 22.35262,-28.80193 27.47022,-32.51819 C 232.47796,161.53235 245,144.62356 245,141.43292 c 0,-2.33832 6.47699,-8.43513 16.2159,-15.26407 2.48333,-1.74131 8.35319,-3.84621 13.71701,-4.91885 l 9.37612,-1.875 1.50351,-11.28774 c 2.35596,-17.687565 4.25666,-53.141423 3.39526,-63.331838 -0.6382,-7.549887 -0.41361,-9.621033 1.22046,-11.255107 1.10141,-1.101423 2.34977,-4.44895 2.7741,-7.43895 C 294.38128,17.754325 296.26961,12.5 298.07615,12.5 c 0.89775,0 1.92844,-1.132521 2.29041,-2.5167135 0.87079,-3.3299088 8.99639,-6.6731954 13.85635,-5.7012048 5.65081,1.1301639 9.20817,3.9423704 12.06122,9.5348083 1.41145,2.76668 4.72645,6.981905 7.36663,9.367165 6.2826,5.675951 9.88982,14.362787 11.52907,27.764181 1.47357,12.046861 0.73974,20.963634 -1.97188,23.960408 -3.19329,3.529095 -6.98769,13.912639 -6.21256,17.000966 0.40842,1.627342 2.04642,3.813101 3.63998,4.857242 1.59357,1.04414 3.28472,3.661928 3.75812,5.817308 0.65687,2.99074 2.08881,4.50594 6.04611,6.39768 2.85198,1.36334 6.84476,3.35977 8.87287,4.4365 4.54114,2.41091 10.15141,3.85251 20.5724,5.28624 9.7126,1.33628 13.0781,3.66645 19.18132,13.28058 6.57345,10.3549 6.56202,10.31002 3.4653,13.60631 -2.72924,2.90515 -2.7885,3.64569 -2.97064,37.1239 -0.17986,33.06004 -0.0786,34.60224 3.14689,47.90963 1.83301,7.5625 3.9697,19.9375 4.7482,27.5 0.7785,7.5625 2.85809,21.625 4.62131,31.25 4.15316,22.67111 6.34119,26.66761 17.74389,32.40992 4.64627,2.33983 9.04645,5.00479 9.77819,5.92216 1.92373,2.41173 3.35083,19.36717 1.71516,20.37806 -0.72296,0.44682 -1.31449,2.80814 -1.31449,5.24737 0,3.16284 -0.47391,4.2531 -1.65221,3.80095 -0.90871,-0.34871 -2.26539,0.34785 -3.01484,1.5479 -1.65613,2.65189 -9.08295,3.22911 -9.08295,0.70594 0,-0.93251 1.45071,-3.41956 3.22381,-5.52678 l 3.22383,-3.83128 -4.1387,-6.3871 c -2.34785,-3.62335 -6.0416,-7.36848 -8.53633,-8.65509 -7.31067,-3.77033 -12.00417,-9.86081 -15.4026,-19.98705 -1.73046,-5.15625 -4.41096,-12.1875 -5.95666,-15.625 -3.04875,-6.78019 -11.17074,-28.26387 -18.83673,-49.82556 -4.1694,-11.72702 -4.82923,-15.04609 -4.84576,-24.375 -0.0105,-5.93969 -0.56441,-11.64319 -1.23086,-12.67444 -0.94279,-1.45886 -1.21596,-1.10514 -1.23086,1.59372 -0.01,1.90781 -1.06889,6.45548 -2.35193,10.10594 -2.1838,6.2133 -2.22893,7.89248 -0.70665,26.29112 1.23054,14.87238 2.38034,21.68901 4.72613,28.01906 8.29345,22.37952 9.88684,36.91819 10.23255,93.36516 0.21255,34.70373 0.70937,47.00205 2.17141,53.75 1.04269,4.8125 2.26695,12.6875 2.72058,17.5 1.23236,13.07418 3.16268,23.15634 4.99983,26.11438 1.35369,2.17962 1.29825,8.36676 -0.32041,35.76062 -2.91559,49.3425 -2.39922,82.52693 1.60837,103.36348 2.67919,13.92985 1.40542,25.24088 -3.09902,27.51912 -5.30714,2.68421 -11.64369,1.96699 -16.99995,-1.9242 -9.08088,-6.59701 -8.61695,-4.19317 -8.70187,-45.08904 -0.0543,-26.14005 -0.54671,-38.62675 -1.67829,-42.55797 -0.88082,-3.05999 -1.42952,-9.52874 -1.21933,-14.375 0.25062,-5.77858 -0.36411,-11.27565 -1.786,-15.97093 -3.42656,-11.31503 -6.25815,-31.87862 -5.98515,-43.46546 0.21766,-9.23801 -0.311,-12.25675 -4.04985,-23.125 -2.3651,-6.875 -4.62681,-14.75 -5.02602,-17.5 -4.94277,-34.04852 -6.2902,-40.28716 -12.62234,-58.44145 l -6.64755,-19.05855 -6.288,-0.37422 c -5.15702,-0.30692 -6.41581,0.0304 -6.9986,1.875 -2.53174,8.01357 -6.11771,38.79755 -7.1785,61.62422 -0.68691,14.78125 -1.5332,31.5961 -1.88065,37.36634 -0.43491,7.22282 -0.1802,10.77039 0.81761,11.38707 0.93799,0.5797 1.63035,6.80122 1.96236,17.63367 0.28217,9.20586 0.96337,20.40266 1.51378,24.88177 0.55041,4.47911 0.58864,17.37637 0.085,28.66059 -0.54963,12.31351 -0.44615,21.39425 0.2588,22.71147 0.64602,1.2071 1.17459,4.75158 1.17459,7.87661 0,3.12504 0.77925,7.80264 1.73165,10.39468 1.60449,4.36669 3.9779,22.56651 5.3942,41.36366 l 0.59529,7.90087 -5.16321,4.91163 c -4.33357,4.12244 -6.00836,4.91087 -10.42307,4.90683 -4.7464,-0.004 -5.71745,-0.57029 -9.94736,-5.7974 z M 269.09731,236.23976 c 3.28476,-4.11936 6.75199,-7.48976 7.70492,-7.48976 0.95293,0 3.78692,-3.67346 6.29776,-8.16325 4.53428,-8.10806 4.5591,-8.2326 3.67041,-18.4203 -0.4921,-5.64138 -1.65426,-12.07484 -2.58256,-14.2966 C 283.25952,185.6481 282.5,182.22279 282.5,180.25804 282.5,174.85946 272.95434,167.5 265.95206,167.5 c -3.15449,0 -21.94099,14.27028 -27.15235,20.625 -1.69141,2.0625 -6.06546,6.7048 -9.72011,10.31624 l -6.64483,6.56622 9.90479,12.18378 c 10.53202,12.9553 25.24578,26.5655 28.7012,26.54852 1.14634,-0.005 4.77178,-3.38062 8.05655,-7.5 z"
       id="path3426"
       inkscape:connector-curvature="0" />
    <path
       style="fill:#f1c2bc"
       d="m 296.94538,635.5168 c -7.42237,-7.42236 -8.35113,-9.86774 -8.59022,-22.61774 -0.12659,-6.75074 -0.048,-16.49281 0.17455,-21.64906 0.70688,-16.37451 -1.03801,-34.95708 -4.40154,-46.875 -4.91633,-17.41998 -6.48705,-24.5216 -10.78238,-48.75 -3.95132,-22.28798 -3.97855,-22.72381 -2.88959,-46.25 0.87697,-18.94621 0.67674,-28.68021 -0.99,-48.125 -2.85243,-33.27755 -5.2216,-46.07824 -8.83278,-47.7236 -2.56421,-1.16834 -2.82088,-2.36273 -3.53638,-16.45559 -0.62479,-12.30629 -0.29285,-17.81041 1.74562,-28.94581 1.38441,-7.5625 3.03596,-18.25 3.67013,-23.75 0.63415,-5.5 2.00961,-12.8125 3.05657,-16.25 2.70565,-8.88346 2.58934,-9.32471 -2.25087,-8.53926 -4.96839,0.80626 -8.94772,-1.04165 -22.08978,-10.258 -11.69467,-8.20132 -22.36354,-17.67579 -34.41365,-30.561 -10.23437,-10.94364 -10.96707,-13.1676 -6.91989,-21.00404 3.08582,-5.97494 19.8092,-25.76639 26.88273,-31.8146 C 233.6168,160.10049 245,144.89374 245,141.60527 c 0,-2.36766 6.68549,-8.71178 16.24513,-15.41564 2.49711,-1.75115 8.36621,-3.86824 13.69386,-4.93963 l 9.32375,-1.875 1.50956,-10.625 c 2.29974,-16.186747 4.33156,-54.070349 3.4238,-63.837479 -0.65179,-7.012972 -0.4223,-9.116966 1.18855,-10.896942 1.09797,-1.21324 2.35471,-4.722447 2.79276,-7.798235 C 294.38263,17.754976 296.25927,12.5 298.07615,12.5 c 0.89775,0 1.91779,-1.091823 2.26676,-2.426273 0.88977,-3.4024843 9.23856,-6.666058 14.53266,-5.6808719 4.5501,0.8467321 11.37443,6.7104459 11.37443,9.7733209 0,1.022167 2.55616,4.294663 5.68036,7.272213 7.92089,7.549091 11.60604,15.735714 13.17031,29.258087 1.42252,12.296931 0.69603,20.828256 -2.00352,23.527804 -2.7882,2.788204 -6.84938,14.70664 -6.06973,17.813006 0.39082,1.557122 2.01439,3.685425 3.60795,4.729566 1.59357,1.04414 3.28378,3.657688 3.75604,5.807888 0.63322,2.88299 2.05658,4.46645 5.42113,6.03085 2.50935,1.16677 6.39125,3.27398 8.62642,4.68268 3.5964,2.2666 9.59383,3.69945 25.49673,6.09145 6.39837,0.96239 10.26866,4.44676 16.17786,14.5647 l 5.12151,8.76924 -2.78882,2.96856 c -2.73935,2.91592 -2.79133,3.58473 -2.93003,37.70568 -0.13148,32.34386 0.0506,35.42605 2.64404,44.7371 1.5319,5.5 3.69961,17.875 4.81716,27.5 1.11755,9.625 3.61249,25.77071 5.54429,35.87936 4.1665,21.80221 6.06106,25.05869 17.85679,30.69318 4.28484,2.04675 8.45177,4.51802 9.25987,5.49171 2.80287,3.37725 1.76168,30.82356 -1.10216,29.05361 -0.6614,-0.40876 -1.95415,0.28468 -2.87277,1.54098 -1.78192,2.43691 -9.41343,3.55193 -9.41343,1.37537 0,-0.71402 1.44114,-3.18766 3.20253,-5.49696 l 3.20252,-4.19873 -4.11741,-6.35424 c -2.3338,-3.60168 -6.02239,-7.33457 -8.51503,-8.61728 -7.35173,-3.78325 -11.5866,-9.40555 -15.80266,-20.97992 C 402.03882,308.02419 396.20775,292.71875 391.26202,280 375.9775,240.69336 375,237.34011 375,224.21429 c 0,-6.3628 -0.56239,-11.91432 -1.25,-12.33929 -0.71015,-0.4389 -1.25,0.62242 -1.25,2.45746 0,1.7765 -1.04975,6.21674 -2.33279,9.8672 -2.17847,6.19814 -2.22705,7.91525 -0.73431,25.95665 1.34505,16.2565 2.28655,21.29623 5.93851,31.78804 7.01873,20.1643 8.7209,37.10663 9.03524,89.93065 0.20745,34.86275 0.69715,46.97113 2.17379,53.75 1.04831,4.8125 2.27716,12.6875 2.73079,17.5 1.22418,12.98739 3.1578,23.1428 4.97223,26.11437 1.31657,2.15622 1.26578,8.54734 -0.27925,35.13563 -2.86613,49.32362 -2.3953,82.34267 1.48069,103.8369 1.07314,5.95104 1.52946,13.27939 1.11293,17.87301 -0.6292,6.93895 -1.0878,7.98354 -4.21485,9.6006 -5.25465,2.71729 -10.02099,2.21066 -16.20075,-1.72202 -9.80858,-6.24199 -9.2965,-3.75146 -9.40003,-45.71835 -0.0662,-26.85257 -0.56122,-39.34064 -1.72942,-43.63127 -0.98002,-3.59945 -1.36219,-9.03788 -0.95257,-13.55529 0.50797,-5.6019 0.0648,-9.34446 -1.72176,-14.53688 -3.30274,-9.59958 -6.49814,-32.56505 -6.21211,-44.6467 0.19066,-8.05356 -0.4101,-11.82479 -3.08653,-19.375 -4.2364,-11.95095 -6.04425,-20.12461 -9.31982,-42.1368 -2.02581,-13.61362 -4.20004,-22.22557 -9.30971,-36.875 l -6.66663,-19.1132 -6.288,-0.37422 c -5.15702,-0.30692 -6.41581,0.0304 -6.9986,1.875 -2.53174,8.01357 -6.11771,38.79755 -7.1785,61.62422 -0.68691,14.78125 -1.53357,31.60928 -1.88147,37.39561 -0.52539,8.7382 -0.29759,10.70808 1.34462,11.6271 1.49103,0.83441 1.79269,2.26029 1.22683,5.799 -0.4127,2.58088 -0.0754,13.09869 0.74965,23.3729 0.82501,10.27422 1.32872,26.27414 1.11936,35.55539 -0.61273,27.16251 0.4979,42.32015 3.53174,48.20062 0.68792,1.33342 1.62271,7.76813 2.07731,14.29938 0.4546,6.53125 1.36141,14.125 2.01515,16.875 2.0451,8.60284 1.5249,16.18618 -1.36211,19.8564 -5.14869,6.5455 -15.07904,9.15061 -19.19425,5.0354 z M 268.59275,236.7913 c 2.98915,-3.82729 6.7599,-7.4625 8.37944,-8.07825 1.82729,-0.69474 4.41215,-4.0267 6.81211,-8.781 3.69401,-7.3178 3.82915,-8.11891 3.0125,-17.85926 -0.47025,-5.60879 -1.6294,-12.09462 -2.5759,-14.41294 -0.94649,-2.31834 -1.7209,-5.73591 -1.7209,-7.59461 0,-5.20657 -9.69109,-12.56524 -16.54794,-12.56524 -3.24142,0 -21.76584,14.1799 -27.76069,21.25 -2.0403,2.40625 -6.49382,7.02182 -9.8967,10.25682 l -6.18706,5.88184 4.88369,5.82253 c 2.68604,3.2024 6.42506,7.86807 8.30895,10.36817 5.53593,7.34669 22.60821,22.59559 25.34121,22.63466 1.59374,0.0228 4.50929,-2.51562 7.95129,-6.92272 z"
       id="path3424"
       inkscape:connector-curvature="0" />
    <path
       style="fill:#eeafab"
       d="m 296.94538,635.5168 c -7.30373,-7.30373 -8.31727,-9.90113 -8.57304,-21.97021 -0.13604,-6.41938 -0.0563,-16.45284 0.17743,-22.29659 0.69027,-17.26611 -1.06236,-35.88391 -4.47151,-47.5 -4.44441,-15.14354 -5.03407,-17.79645 -10.14096,-45.625 l -4.58783,-25 1.12744,-24.375 c 0.91239,-19.72574 0.72358,-29.02426 -0.98992,-48.75 -2.80474,-32.28794 -5.19017,-44.80445 -8.85737,-46.47534 -2.55431,-1.16381 -2.8104,-2.3652 -3.50705,-16.45257 -0.60361,-12.20598 -0.26057,-17.90339 1.74284,-28.94709 1.37189,-7.5625 3.01281,-18.27837 3.6465,-23.81305 0.63368,-5.53468 2.25046,-13.59198 3.59285,-17.9051 l 2.44073,-7.84204 -4.98398,0.84204 c -4.34847,0.73466 -5.96916,0.24155 -12.71025,-3.86723 C 231.88939,243.98212 197.5,212.23535 197.5,206.28807 c 0,-7.35362 6.08869,-15.84647 26.91179,-37.53807 13.7149,-14.28694 21.11502,-23.88306 21.17492,-27.45866 0.038,-2.26689 7.261,-9.2369 15.65842,-15.10994 2.50225,-1.75004 8.37686,-3.85781 13.74441,-4.9314 l 9.37431,-1.875 0.91686,-6.25 c 2.28145,-15.551903 3.69126,-35.495741 3.96088,-56.032264 0.1956,-14.898419 0.75975,-22.571021 1.70246,-23.153649 0.77546,-0.479261 1.9691,-4.343475 2.65251,-8.58714 C 294.87941,17.386196 296.8,12.5 298.64819,12.5 c 0.58312,0 1.35266,-1.118227 1.71006,-2.484949 0.35741,-1.3667227 2.25114,-3.1406475 4.20829,-3.9420556 8.90391,-3.6459402 18.97386,0.091825 21.58811,8.0130746 0.73405,2.224202 3.33585,5.712596 5.78178,7.751985 8.38788,6.993728 12.18101,16.239234 13.66737,33.313362 C 346.42007,64.528099 344.83373,75 342.597,75 c -0.58115,0 -2.29891,3.060757 -3.81724,6.801684 -3.19117,7.862526 -2.64262,13.249364 1.53823,15.105677 1.53975,0.683657 3.2675,3.070687 3.93977,5.443139 0.86718,3.0602 2.42734,4.79789 5.65731,6.301 2.45297,1.14152 6.28872,3.22807 8.52389,4.63677 3.62113,2.28219 9.14056,3.59655 25.88879,6.165 5.88786,0.90294 10.945,5.77311 16.83865,16.21609 l 4.0105,7.10621 -2.7237,2.89924 c -2.65131,2.8222 -2.72841,3.80684 -2.90095,37.04971 -0.1714,33.02432 -0.0648,34.64513 3.23454,49.15048 1.87647,8.25 4.25463,22.59375 5.28478,31.875 1.03015,9.28125 3.21349,23.46934 4.85187,31.52909 3.64257,17.9191 6.00532,21.47728 18.66731,28.11205 l 9.03425,4.73386 0.85676,8.67052 c 0.47845,4.84195 0.34046,9.63527 -0.3125,10.85533 -0.64309,1.20164 -1.16926,3.94247 -1.16926,6.09075 0,2.59985 -0.47534,3.61216 -1.42151,3.0274 -0.79299,-0.49009 -2.44703,0.44452 -3.74082,2.11372 -1.83165,2.36315 -2.55117,2.6357 -3.42222,1.29633 -0.76936,-1.18301 -1.36155,-1.27754 -1.95797,-0.3125 -1.09063,1.76466 -3.20748,1.7977 -3.20748,0.05 0,-0.73338 1.51186,-3.31556 3.3597,-5.7382 2.7702,-3.63192 3.09414,-4.76876 1.84621,-6.4791 -0.83241,-1.14086 -2.69536,-3.92663 -4.13988,-6.19057 -1.44453,-2.26394 -4.66595,-5.16555 -7.15873,-6.44802 -7.17678,-3.69227 -11.19891,-8.89505 -15.10438,-19.53811 C 403.05536,310.07893 397.104,294.65625 391.82767,281.25 376.00714,241.05272 375,237.60175 375,223.58929 c 0,-6.77947 -0.55491,-12.5347 -1.25,-12.96429 -0.72891,-0.45049 -1.25,0.81589 -1.25,3.03782 0,2.0957 -1.06783,6.62064 -2.37294,10.05544 -2.11214,5.55868 -2.25181,7.86138 -1.27085,20.9509 1.60655,21.43708 2.19949,24.8434 6.36761,36.58084 6.85798,19.31204 8.75714,38.17545 9.12409,90.625 0.25576,36.5547 0.73493,48.08425 2.28583,55 1.07922,4.8125 2.30873,12.6875 2.73223,17.5 1.21663,13.82492 3.15153,23.32107 5.16135,25.33089 1.11155,1.11156 1.60494,3.16737 1.23265,5.13625 -0.3414,1.80557 -0.94718,12.84536 -1.34618,24.53286 -0.399,11.6875 -1.33413,26.875 -2.07804,33.75 -1.6245,15.01301 0.31588,61.0415 3.19354,75.75561 1.24712,6.37683 1.56883,12.13696 0.97737,17.5 -0.88002,7.97953 -0.89111,7.99765 -5.96167,9.75075 -6.29105,2.17506 -10.07066,1.28559 -17.00207,-4.00116 -6.98066,-5.32434 -7.25758,-7.2727 -6.67459,-46.96185 0.36343,-24.74271 0.071,-32.36831 -1.48823,-38.80875 -1.20536,-4.9788 -1.69092,-10.76805 -1.28168,-15.28129 0.47574,-5.24659 -0.0255,-9.44581 -1.80333,-15.10961 -2.52754,-8.05188 -6.37769,-31.15515 -6.30664,-37.8437 0.0219,-2.0625 0.11113,-6.68711 0.19827,-10.27693 0.10913,-4.49488 -1.19797,-10.52692 -4.1984,-19.375 -2.96816,-8.75293 -5.20671,-19.02357 -7.02322,-32.22307 -2.2011,-15.9942 -3.92288,-23.08298 -9.86726,-40.625 l -7.20089,-21.25 -6.29176,-0.37239 c -5.09009,-0.30127 -6.45455,0.0519 -7.14413,1.84888 -2.45656,6.40168 -6.04179,36.70246 -7.14642,60.39851 -0.68905,14.78125 -1.53375,31.87834 -1.8771,37.99352 -0.42568,7.58129 -0.17163,11.39828 0.79853,11.99788 1.6638,1.02827 2.31184,13.23545 3.21888,60.6336 0.72572,37.92397 1.1188,43.6168 3.62501,52.5 0.96983,3.4375 2.44215,12.4375 3.27185,20 2.76175,25.1728 2.79111,26.71414 0.57324,30.09904 -4.58249,6.99377 -15.67408,10.34836 -19.97968,6.04276 z m -28.1751,-398.81394 c 2.83736,-3.75806 6.50607,-7.34506 8.15268,-7.9711 1.88912,-0.71823 4.4348,-3.99276 6.89881,-8.87396 3.73876,-7.40641 3.86769,-8.16664 3.02914,-17.85925 -0.4817,-5.56795 -1.65772,-12.02037 -2.61337,-14.3387 -0.95565,-2.31834 -1.73754,-5.73591 -1.73754,-7.59461 0,-5.26435 -9.70239,-12.56524 -16.69835,-12.56524 -3.73398,0 -21.86975,14.03867 -28.63447,22.16557 -2.58931,3.1107 -7.0893,7.7782 -10,10.37222 l -5.29218,4.71639 2.5,3.1203 c 12.74597,15.9085 17.0915,20.6918 25.70374,28.2932 6.01887,5.31241 10.62941,8.48211 11.72582,8.06138 0.99379,-0.38135 4.12835,-3.76814 6.96572,-7.5262 z"
       id="path3422"
       inkscape:connector-curvature="0" />
    <path
       style="fill:#f2a19d"
       d="m 297.13285,634.9795 c -1.76235,-1.38626 -4.38316,-4.42795 -5.824,-6.75929 -2.86338,-4.63302 -3.5865,-14.40182 -2.7367,-36.97021 0.4377,-11.62417 -0.4655,-34.06949 -1.51287,-37.59619 -6.32131,-21.28502 -9.50182,-35.005 -14.03155,-60.52881 -3.18414,-17.94175 -3.28929,-19.92077 -2.43932,-45.91002 0.69105,-21.12982 0.42947,-32.0923 -1.17815,-49.375 -2.88097,-30.97188 -4.92046,-41.49089 -8.66161,-44.67378 -2.71804,-2.31242 -3.04929,-3.77905 -3.67956,-16.2912 -0.53728,-10.66574 -0.13374,-16.83426 1.79902,-27.5 1.37042,-7.5625 3.01773,-18.25 3.6607,-23.75 0.64297,-5.5 2.27892,-13.84177 3.63542,-18.53729 l 2.46638,-8.53728 -4.6278,0.76212 c -3.90003,0.64228 -5.94455,-0.0112 -13.0007,-4.15645 -13.78516,-8.09797 -25.86268,-17.87907 -40.06461,-32.44674 -9.35904,-9.60006 -13.42864,-14.66386 -13.4083,-16.68396 0.0636,-6.32412 14.00451,-25.20692 28.90406,-39.1504 9.07344,-8.49121 19.36718,-22.46272 18.84128,-25.57292 -0.48477,-2.8669 19.017,-18.64658 23.08017,-18.67513 1.24866,-0.009 5.41895,-0.64456 9.26731,-1.41287 l 6.99702,-1.39692 1.39941,-12.09608 c 2.2568,-19.506924 3.99246,-40.467705 4.31384,-52.09608 0.019,-0.6875 -0.37555,-5.220814 -0.87679,-10.074031 -0.74279,-7.192099 -0.55686,-9.118215 1.00532,-10.414713 1.05415,-0.874873 2.27101,-4.216558 2.70412,-7.425967 1.05046,-7.784258 2.9436,-13.728854 4.74132,-14.888145 0.8078,-0.520929 2.07143,-2.038664 2.80804,-3.3727451 0.73662,-1.3340808 3.66325,-3.2002484 6.50362,-4.1470394 4.65894,-1.5529821 5.69875,-1.4850297 10.62572,0.6943991 4.03296,1.7839694 6.05652,3.6859884 7.73676,7.2720394 1.25145,2.670911 4.07454,6.543702 6.27354,8.606202 7.33308,6.877899 11.24456,14.54169 12.5059,24.502931 0.29578,2.335888 0.89321,7.090781 1.32762,10.566429 0.84113,6.729705 -1.10186,16.4316 -3.73091,18.629535 -5.09861,4.262532 -7.00913,21.837821 -2.33241,21.456445 1.04768,-0.08544 2.31375,0.68841 2.81346,1.71966 0.49971,1.03125 1.72154,3.5625 2.71517,5.625 1.04513,2.1694 3.36942,4.28238 5.51442,5.01309 2.0393,0.6947 5.24198,2.29794 7.1171,3.56277 3.8919,2.62523 9.52037,4.19286 20.5041,5.71075 11.52593,1.59283 14.03662,3.31599 20.82608,14.29359 l 6.07982,9.83021 -2.95722,3.29479 -2.95721,3.2948 0.0476,35 c 0.0457,33.64506 0.17751,35.5323 3.40391,48.75 1.84599,7.5625 3.97564,19.65625 4.73255,26.875 2.2904,21.84374 7.48925,47.57515 10.71361,53.02634 2.21184,3.73941 5.21624,6.11005 12.67331,10 l 9.77413,5.09866 0.77835,8.75 c 0.4281,4.8125 0.28748,9.6974 -0.3125,10.85532 -0.59996,1.15793 -1.09085,3.81215 -1.09085,5.89827 0,2.73268 -0.48788,3.60573 -1.74531,3.12321 -0.96539,-0.37046 -2.65687,0.62459 -3.78524,2.22674 -1.60001,2.27182 -2.2682,2.53072 -3.09844,1.20051 -0.73762,-1.18183 -1.31771,-1.27656 -1.91353,-0.3125 -0.47027,0.7609 -1.38433,1.38345 -2.03125,1.38345 -2.03455,0 -1.27999,-3.26862 1.29186,-5.59613 1.35745,-1.22847 2.78339,-3.22702 3.16876,-4.44121 1.05004,-3.30837 -6.24477,-13.231 -12.36299,-16.81651 -8.11537,-4.75593 -10.65019,-8.21008 -14.51064,-19.77344 -1.95502,-5.85599 -4.21601,-11.8831 -5.02438,-13.39357 C 397.91749,297.3588 384.33742,261.80569 379.25299,246.9419 375.61899,236.31834 375,232.82696 375,222.95316 c 0,-6.35559 -0.5625,-11.90326 -1.25,-12.32816 -0.71715,-0.44322 -1.2674,0.72424 -1.29081,2.73872 -0.0224,1.9312 -1.10873,6.60503 -2.41398,10.38628 -2.24927,6.51609 -2.28213,7.9191 -0.62956,26.875 1.45006,16.63299 2.46584,22.10439 6.03371,32.5 6.92253,20.17001 8.62613,37.3027 8.94919,90 0.21443,34.97556 0.70283,46.9492 2.19245,53.75 1.05411,4.8125 2.28329,12.96875 2.7315,18.125 1.14708,13.19603 3.14573,22.64679 5.23016,24.73124 0.98022,0.9802 1.52194,2.7073 1.20385,3.83797 -0.3181,1.13069 -0.93146,12.46204 -1.36302,25.18079 -0.43158,12.71875 -1.29903,27.34375 -1.92766,32.5 -2.34742,19.25396 -0.97932,53.99169 3.10146,78.75 0.84987,5.15625 1.21054,12.74981 0.80147,16.87458 -0.73692,7.43062 -0.78952,7.51452 -5.72123,9.12523 -2.7376,0.89411 -6.33959,1.28379 -8.00439,0.86594 -4.15706,-1.04335 -13.3785,-7.53878 -14.5657,-10.25983 -0.53535,-1.22701 -1.04106,-19.66842 -1.12383,-40.98092 -0.1165,-30.01474 -0.53165,-39.43474 -1.84143,-41.78751 -1.20235,-2.15979 -1.4782,-5.59117 -0.95463,-11.875 0.57625,-6.91597 0.20134,-10.45149 -1.72431,-16.26058 -2.24215,-6.76391 -6.4444,-31.53776 -6.37396,-37.57691 0.016,-1.375 0.087,-5.94071 0.15756,-10.14601 0.0945,-5.62363 -0.86699,-10.37348 -3.63486,-17.95764 -4.03283,-11.05019 -4.86528,-14.94195 -8.91292,-41.6683 -1.92612,-12.71813 -4.25791,-21.94605 -8.84407,-35 -3.42556,-9.75042 -6.76276,-18.2689 -7.41603,-18.92994 -1.283,-1.29827 -11.24197,-1.0113 -12.6293,0.36393 -2.08405,2.0659 -6.48058,37.87999 -7.46845,60.83796 -0.59165,13.75 -1.40642,30.76562 -1.8106,37.8125 -0.44356,7.73327 -0.2664,12.8125 0.44688,12.8125 1.56136,0 3.26859,31.25392 3.61886,66.25 0.28611,28.58517 1.47386,43.62045 3.80174,48.125 0.71057,1.375 1.6639,7.84375 2.1185,14.375 0.4546,6.53125 1.36141,14.125 2.01515,16.875 2.91382,12.2572 0.42885,19.60632 -7.97854,23.59589 -5.63424,2.67362 -8.51176,2.55951 -12.39035,-0.49139 z M 268.1926,237.8125 c 3.20647,-3.95313 7.1762,-7.90929 8.82161,-8.79146 1.64541,-0.88218 4.72233,-5.03239 6.83759,-9.2227 3.70692,-7.34339 3.81367,-8.00607 2.95329,-18.33484 -0.49095,-5.89384 -1.66045,-12.55368 -2.59887,-14.79964 -0.93842,-2.24596 -1.70622,-5.74089 -1.70622,-7.7665 0,-3.09676 -1.04446,-4.32565 -6.5625,-7.72122 -3.60938,-2.22107 -8.0873,-3.99507 -9.95095,-3.94222 -2.21606,0.0629 -6.77445,2.85213 -13.17471,8.06167 C 242.39297,183.7761 222.5,203.83001 222.5,205.85266 c 0,0.66635 1.46875,2.57523 3.2639,4.24195 1.79514,1.66671 5.7607,6.25849 8.81234,10.20395 5.57577,7.20892 24.422,24.70144 26.61302,24.70144 0.64537,0 3.79687,-3.23438 7.00334,-7.1875 z"
       id="path3420"
       inkscape:connector-curvature="0" />
    <path
       style="fill:#f99491"
       d="m 295.1825,632.33969 c -5.89253,-6.56092 -7.74674,-15.71818 -6.54833,-32.33969 1.35587,-18.8052 0.0437,-42.2426 -2.93898,-52.5 -4.41057,-15.1672 -9.33212,-36.59535 -12.48869,-54.375 -3.1415,-17.69474 -3.30781,-20.6143 -2.95518,-51.875 0.38543,-34.16634 -1.10047,-58.09895 -4.78352,-77.04593 -1.61989,-8.3333 -2.49204,-10.40555 -4.82724,-11.46953 -2.65286,-1.20874 -2.8905,-2.23509 -3.4334,-14.82908 -0.41417,-9.60802 0.0944,-17.83447 1.75441,-28.37719 1.28573,-8.16568 2.54645,-15.19693 2.80159,-15.625 0.25515,-0.42805 0.82871,-4.87742 1.27458,-9.88748 0.44586,-5.01007 1.88541,-12.56239 3.199,-16.78294 1.31357,-4.22055 2.12275,-8.10344 1.79816,-8.62864 -0.32459,-0.52519 -2.24291,-0.37875 -4.26295,0.32544 -3.09635,1.0794 -4.64788,0.74964 -9.88545,-2.101 -15.64906,-8.51729 -47.16619,-35.78469 -54.43334,-47.09363 -1.8523,-2.8825 -1.95676,-4.06156 -0.69782,-7.87618 1.76997,-5.3631 21.78531,-30.24252 28.33291,-35.21832 5.77761,-4.39065 19.4484,-22.84055 18.58715,-25.08495 -0.7757,-2.02142 5.3713,-7.67377 17.9893,-16.54166 1.45646,-1.02359 3.3371,-1.89319 4.1792,-1.93243 0.84211,-0.0392 4.98272,-0.80923 9.20137,-1.71107 l 7.67027,-1.63971 1.3639,-7.05285 c 0.75015,-3.87907 1.65074,-10.7091 2.0013,-15.17785 0.35057,-4.46875 0.96941,-12.34375 1.3752,-17.5 1.16357,-14.785226 1.34923,-30.127578 0.43842,-36.22918 -0.63886,-4.279774 -0.28211,-6.638648 1.50954,-9.981489 1.29036,-2.40752 2.3461,-5.538764 2.3461,-6.95832 0,-1.419556 0.675,-3.256011 1.5,-4.081011 1.09114,-1.091144 1.10886,-1.5 0.065,-1.5 -1.99211,0 0.66066,-7.473199 2.96692,-8.358195 C 299.22687,12.529203 300,11.420257 300,10.427481 c 0,-2.1978166 8.09096,-5.7895091 12.7895,-5.6774395 4.9332,0.1176662 10.61193,3.8906576 12.41784,8.2505035 0.8598,2.075764 4.69314,7.227787 8.51851,11.448941 7.4124,8.17928 10.51214,15.998193 10.37706,26.175514 -0.0365,2.75 0.50294,5.358492 1.19874,5.79665 1.71574,1.080431 -0.90952,15.791585 -3.29175,18.44596 -0.99087,1.104065 -2.87501,4.843661 -4.18699,8.310214 -1.92795,5.094156 -2.12771,7.068152 -1.04165,10.293769 0.73905,2.19502 1.76562,3.999373 2.28124,4.009676 0.51563,0.01025 1.41468,0.01873 1.99789,0.01873 0.58321,0 1.94881,2.261719 3.03467,5.026041 1.38148,3.51688 3.22124,5.59227 6.12712,6.91182 2.28405,1.03717 5.84032,2.86883 7.90282,4.07034 4.67676,2.72446 14.27811,5.24181 19.99264,5.24181 2.38247,0 6.54586,0.8859 9.25198,1.96868 4.78673,1.91527 5.9822,3.29553 14.46358,16.69935 l 3.5074,5.54305 -2.9828,2.58195 c -2.43255,2.10566 -3.00423,3.85021 -3.09894,9.45697 -1.05962,62.72565 -1.19321,58.48549 2.28424,72.5 1.79121,7.21875 4.19762,21 5.34759,30.62499 3.2099,26.86619 7.76217,49.18801 11.24246,55.12666 2.40302,4.10046 4.94417,6.10336 12.44701,9.81059 6.60008,3.26115 9.59739,5.46869 9.99385,7.3605 1.42721,6.81038 1.33274,14.30543 -0.22822,18.10651 -0.93832,2.28485 -1.31883,5.37419 -0.84559,6.8652 0.72405,2.2813 0.56959,2.46959 -0.97464,1.18799 -2.04309,-1.69561 -4.77556,0.0453 -4.77556,3.04256 0,0.89375 -0.5625,1.625 -1.25,1.625 -0.6875,0 -1.25,-0.675 -1.25,-1.5 0,-1.16666 -0.33334,-1.16666 -1.5,0 -0.825,0.825 -1.95,1.5 -2.5,1.5 -1.8333,0 -1.03239,-2.26969 2.125,-6.02204 1.71875,-2.04262 3.125,-4.37505 3.125,-5.18318 0,-3.3594 -8.08501,-12.84219 -14.38559,-16.87262 -6.89126,-4.40829 -9.9452,-8.78891 -13.10439,-18.79716 -0.86806,-2.75 -2.9875,-8.375 -4.70987,-12.5 C 394.36061,287.65003 382.2002,255.59583 378.60491,244.68744 375.65222,235.72878 375,231.60138 375,221.87494 c 0,-12.50205 -1.62829,-15.79499 -3.06684,-6.20213 -0.46787,3.12005 -1.5958,7.47943 -2.5065,9.6875 -3.26465,7.9155 -0.006,40.96097 5.58081,56.59865 6.97941,19.53465 8.84501,37.9322 9.30807,91.79104 0.25089,29.1797 0.9259,48.7625 1.78811,51.875 0.7618,2.75 2.24481,12.53705 3.29558,21.74901 1.05077,9.21195 2.78382,18.58943 3.85123,20.83884 1.69657,3.57522 1.78405,7.68045 0.69535,32.62599 -0.68497,15.69488 -1.59837,30.78616 -2.02978,33.53616 -2.16817,13.82081 -0.10663,53.57416 4.0889,78.84739 0.57953,3.49106 0.63005,7.42856 0.11225,8.75 -0.5178,1.32143 -0.981,4.4922 -1.02932,7.04613 -0.10325,5.45853 -2.50383,7.23148 -9.79137,7.23148 -5.42153,0 -16.04879,-6.12338 -16.94913,-9.766 -1.09735,-4.43965 -1.4804,-12.47417 -0.96466,-20.234 0.15991,-2.40625 -0.1085,-9.51234 -0.59652,-15.7913 -0.55795,-7.17894 -0.33014,-15.06626 0.61378,-21.25 1.28519,-8.4194 1.20409,-11.09215 -0.56387,-18.5837 -2.9962,-12.69605 -3.43335,-17.06071 -2.18951,-21.86082 0.86093,-3.32249 0.4858,-5.98837 -1.68377,-11.96543 -1.53531,-4.22976 -3.44677,-13.53673 -4.24768,-20.68213 -0.8009,-7.14538 -1.92174,-13.89997 -2.49075,-15.01018 -0.569,-1.1102 -0.48953,-4.44426 0.17661,-7.40903 1.41447,-6.29537 0.23384,-12.93441 -5.10338,-28.69741 -2.1496,-6.34869 -4.68098,-18.42297 -6.28953,-30 -2.22209,-15.99286 -3.95468,-23.08444 -9.92537,-40.625 l -7.23336,-21.25 -5.78832,-0.14176 c -3.21582,-0.0788 -6.35393,0.53976 -7.06099,1.39171 -0.69996,0.84341 -2.73528,10.75095 -4.52293,22.01676 -2.46771,15.55172 -3.22995,24.84708 -3.16593,38.60829 0.0464,9.96875 -0.47524,20.98509 -1.15913,24.48075 -2.25165,11.50904 -2.37057,24.64651 -0.24479,27.04065 1.0482,1.18051 1.62473,3.22128 1.28118,4.53501 -0.34355,1.31373 -0.0914,7.66035 0.56036,14.1036 0.65175,6.44324 1.40819,26.33999 1.68096,44.21499 0.60067,39.36028 1.05205,45.51363 3.71667,50.66644 1.13783,2.20032 1.8237,4.93781 1.52415,6.0833 -0.29957,1.1455 0.23642,7.68917 1.19107,14.54149 3.0754,22.07467 3.02006,25.23543 -0.51536,29.43705 -3.72654,4.42873 -6.78611,6.1946 -11.84143,6.83438 -3.11458,0.39418 -4.55205,-0.4 -8.32236,-4.59797 z M 269.32805,236.875 c 3.92335,-4.46875 7.91262,-8.125 8.86506,-8.125 2.02035,0 11.1594,-18.01385 10.04985,-19.80913 -0.41234,-0.66717 -1.02531,-4.92877 -1.36217,-9.47019 -0.33687,-4.54144 -1.46035,-10.2864 -2.49664,-12.76658 -1.03628,-2.48018 -1.88415,-6.04104 -1.88415,-7.91303 0,-3.88247 -2.19885,-6.15623 -9.50293,-9.82667 -7.32156,-3.67923 -9.25688,-2.94661 -24.19918,9.1606 -4.92763,3.99269 -26.2786,26.14709 -26.2887,27.27794 -0.038,4.25662 34.01668,39.59706 38.15647,39.59706 0.84098,0 4.73905,-3.65625 8.66239,-8.125 z"
       id="path3418"
       inkscape:connector-curvature="0" />
  </g>
</svg>
