<?xml version="1.0" encoding="UTF-8" standalone="no"?>
<!-- Created with Inkscape (http://www.inkscape.org/) -->

<svg
   xmlns:dc="http://purl.org/dc/elements/1.1/"
   xmlns:cc="http://creativecommons.org/ns#"
   xmlns:rdf="http://www.w3.org/1999/02/22-rdf-syntax-ns#"
   xmlns:svg="http://www.w3.org/2000/svg"
   xmlns="http://www.w3.org/2000/svg"
   xmlns:sodipodi="http://sodipodi.sourceforge.net/DTD/sodipodi-0.dtd"
   xmlns:inkscape="http://www.inkscape.org/namespaces/inkscape"
   id="svg3406"
   version="1.1"
   inkscape:version="0.91 r13725"
   width="310.80707"
   height="639.98108"
   viewBox="0 0 310.80707 639.98108"
   sodipodi:docname="silhouette-femme-29.svg">
  <title
     id="title3340">Silhouette Femme 29</title>
  <metadata
     id="metadata3412">
    <rdf:RDF>
      <cc:Work
         rdf:about="">
        <dc:format>image/svg+xml</dc:format>
        <dc:type
           rdf:resource="http://purl.org/dc/dcmitype/StillImage" />
        <dc:title>Silhouette Femme 29</dc:title>
        <cc:license
           rdf:resource="http://creativecommons.org/publicdomain/zero/1.0/" />
        <dc:date>2017-02-27</dc:date>
        <dc:creator>
          <cc:Agent>
            <dc:title>JLouis</dc:title>
          </cc:Agent>
        </dc:creator>
        <dc:rights>
          <cc:Agent>
            <dc:title>Domaine pubic</dc:title>
          </cc:Agent>
        </dc:rights>
        <dc:publisher>
          <cc:Agent>
            <dc:title>inkscape</dc:title>
          </cc:Agent>
        </dc:publisher>
        <dc:subject>
          <rdf:Bag>
            <rdf:li>Silhouette</rdf:li>
            <rdf:li>woman</rdf:li>
            <rdf:li>femme</rdf:li>
          </rdf:Bag>
        </dc:subject>
        <dc:description>Woman in silhouette - Femme en silhouette</dc:description>
      </cc:Work>
      <cc:License
         rdf:about="http://creativecommons.org/publicdomain/zero/1.0/">
        <cc:permits
           rdf:resource="http://creativecommons.org/ns#Reproduction" />
        <cc:permits
           rdf:resource="http://creativecommons.org/ns#Distribution" />
        <cc:permits
           rdf:resource="http://creativecommons.org/ns#DerivativeWorks" />
      </cc:License>
    </rdf:RDF>
  </metadata>
  <defs
     id="defs3410" />
  <sodipodi:namedview
     pagecolor="#ffffff"
     bordercolor="#666666"
     borderopacity="1"
     objecttolerance="10"
     gridtolerance="10"
     guidetolerance="10"
     inkscape:pageopacity="0"
     inkscape:pageshadow="2"
     inkscape:window-width="1235"
     inkscape:window-height="756"
     id="namedview3408"
     showgrid="false"
     fit-margin-top="0"
     fit-margin-left="0"
     fit-margin-right="0"
     fit-margin-bottom="0"
     inkscape:zoom="2"
     inkscape:cx="155.625"
     inkscape:cy="121.11379"
     inkscape:window-x="0"
     inkscape:window-y="0"
     inkscape:window-maximized="1"
     inkscape:current-layer="svg3406" />
  <g
     id="g3416">
    <path
       style="fill:#fdeae9"
       d="m 98.125,638.4882 c -8.826703,-3.09388 -8.559451,-1.79465 -7.690688,-37.38754 0.723447,-29.63932 0.594154,-32.71142 -1.736055,-41.25 -1.384743,-5.07411 -3.848722,-16.53816 -5.475507,-25.47566 -1.626784,-8.9375 -3.820844,-19.625 -4.875686,-23.75 -1.054844,-4.125 -2.521975,-12.61895 -3.260292,-18.87545 -0.738316,-6.2565 -1.855318,-14.12101 -2.482227,-17.47669 -0.626908,-3.35567 -0.822636,-16.60066 -0.434951,-29.4333 0.615953,-20.38849 0.428921,-24.01854 -1.482501,-28.77331 -1.340452,-3.33445 -2.577005,-11.2491 -3.193663,-20.44125 -0.553454,-8.25 -1.302549,-16.40625 -1.664656,-18.125 -0.362108,-1.71875 -1.62477,-8.02968 -2.805916,-14.02426 L 60.875319,352.57646 54.50016,350.47115 C 50.993821,349.31322 46.384405,347.04602 44.257011,345.43291 42.129617,343.81981 39.77219,342.5 39.018282,342.5 c -2.591281,0 -2.665625,-2.11754 -0.311205,-8.86413 1.297677,-3.71847 3.584823,-11.82337 5.082549,-18.01087 1.549998,-6.40345 4.012801,-12.96421 5.716755,-15.2291 1.64649,-2.1885 2.993619,-5.31037 2.993619,-6.9375 0,-1.62713 0.50937,-3.49278 1.131934,-4.1459 0.622562,-0.65313 3.21539,-8.21875 5.761838,-16.8125 2.546448,-8.59375 5.133449,-16.57729 5.74889,-17.7412 1.284048,-2.42838 -3.032107,-9.51645 -11.307823,-18.56996 -4.967335,-5.43418 -13.198158,-23.8391 -16.46755,-36.82303 C 35.807981,193.17324 28.423301,186.3017 20.625,183.7869 17.875,182.90008 12.109375,180.54928 7.8125,178.56288 L 0,174.95126 0,168.75445 c 0,-5.18971 0.4956168,-6.52156 3.0495683,-8.19498 1.6785789,-1.09983 2.7562782,-2.76245 2.3971868,-3.69822 -0.3970637,-1.03474 1.3446684,-2.96076 4.4504318,-4.92135 5.7166831,-3.60878 5.6355171,-3.41424 3.6803561,-8.82114 -1.654292,-4.57486 0.274702,-9.82839 4.663438,-12.70066 2.297455,-1.5036 3.020416,-1.39394 5.9375,0.90064 4.292691,3.37664 4.352998,8.51361 0.158468,13.49852 l -3.163051,3.75908 3.917541,4.46182 c 2.154647,2.45402 4.562396,4.46245 5.350551,4.46319 1.99851,0.001 10.575141,11.82812 13.548074,18.68133 C 49.867421,189.73115 58.160845,205 59.642472,205 c 0.88414,0 1.640895,-0.42188 1.681678,-0.9375 0.04079,-0.51563 0.508867,-15.5625 1.040187,-33.4375 0.811058,-27.28607 1.325225,-33.25596 3.204959,-37.21211 2.929614,-6.16579 7.425121,-9.22404 16.760069,-11.40173 4.193375,-0.97825 9.610989,-3.00647 12.039142,-4.50715 l 4.414824,-2.72851 -3.141666,-3.73366 C 93.91375,108.98833 92.5,106.59402 92.5,105.72114 c 0,-0.87287 -0.9332,-3.45769 -2.073776,-5.744029 -2.053828,-4.116992 -3.993009,-26.460562 -2.13526,-24.602815 0.914635,0.914637 4.155939,-7.037125 4.190216,-10.279688 0.01338,-1.264889 -0.818851,-0.993442 -2.874244,0.9375 -3.443582,3.235077 -7.758233,3.718123 -6.615672,0.740658 C 83.408569,65.685286 83.75,64.52709 83.75,64.198995 c 0,-0.328096 0.65809,-0.189815 1.462424,0.30729 0.97858,0.604796 1.202539,0.226577 0.676916,-1.14317 -0.432029,-1.125849 -0.06333,-2.483749 0.819341,-3.017556 0.882665,-0.533808 1.937945,-1.880134 2.345066,-2.991837 1.562704,-4.267192 -5.325662,0.705162 -7.517552,5.42653 -3.102624,6.683107 -4.507246,5.799019 -3.562173,-2.242078 0.607504,-5.168915 0.441129,-6.728768 -0.646033,-6.056865 C 75.71592,55.477622 76.752729,53.25198 79.415594,50 c 0.844432,-1.03125 2.403047,-4.6875 3.463589,-8.125 3.521918,-11.41549 5.209875,-15.048241 9.292591,-19.99914 2.663475,-3.229857 3.624865,-5.329221 2.8125,-6.141586 C 94.305424,15.055424 93.75,13.513821 93.75,12.308493 c 0,-4.8208912 26.77908,-13.08861653 38.68386,-11.94318992 8.8335,0.84992052 26.0753,7.81230972 29.78594,12.02782492 3.42359,3.889396 4.81821,8.568863 3.0737,10.313372 -0.86461,0.864614 -0.51417,3.433751 1.09153,8.002251 1.30073,3.700836 2.36497,8.467325 2.36497,10.592198 0,2.124872 0.65186,5.081421 1.44859,6.570107 2.33453,4.362134 2.40476,10.597021 0.1448,12.85698 -1.63089,1.630895 -1.74204,2.496883 -0.5628,4.385133 3.24105,5.189742 0.33697,14.562821 -3.99677,12.899808 -1.67253,-0.641808 -2.03382,0.120687 -2.03382,4.292299 0,4.601694 -2.25099,15.163309 -4.34374,20.380784 -0.45469,1.13359 -0.22585,2.43241 0.50853,2.88627 0.73436,0.45387 1.33521,2.45973 1.33521,4.45746 0,4.67962 3.00753,6.29098 13.9924,7.49682 15.43072,1.69387 22.58017,11.2317 26.68409,35.59839 2.21207,13.134 10.22398,39.375 12.022,39.375 0.57832,0 1.05151,0.53753 1.05151,1.19449 0,0.65697 1.34641,3.17855 2.99204,5.6035 l 2.99204,4.40901 4.82046,-5.90118 c 2.65125,-3.24565 5.73046,-6.81785 6.84267,-7.93822 2.1223,-2.13785 10.85128,-13.97888 12.98369,-17.61261 2.9034,-4.94755 13.21914,-19.58855 14.06871,-19.96755 0.50897,-0.22705 2.12822,-2.66274 3.59833,-5.41263 1.91024,-3.57316 3.60445,-5.11267 5.9375,-5.39534 1.79551,-0.21753 3.26456,-0.92066 3.26456,-1.5625 0,-1.69412 9.6869,-1.43486 10.75154,0.28777 0.51329,0.83051 -0.43785,2.60471 -2.21663,4.13473 l -3.11568,2.68002 4.47788,1.54555 c 11.86493,4.09521 17.40493,5.51255 22.21629,5.68372 6.16173,0.21921 6.75977,0.6352 5.85998,4.07604 -0.84682,3.23821 -7.67489,5.4252 -16.93819,5.4252 -8.23251,0 -21.0118,4.10139 -24.53044,7.8728 -1.41224,1.51371 -4.03497,5.68407 -5.8283,9.26747 -1.79331,3.5834 -3.99375,7.24845 -4.88985,8.14455 -0.8961,0.8961 -3.37239,5.27673 -5.50286,9.73473 -2.13048,4.458 -6.22015,11.45121 -9.08818,15.54047 C 237.0096,223.84296 221.13982,242.5 219.71701,242.5 216.18974,242.5 200,230.19999 200,227.52017 c 0,-0.50128 -2.70691,-5.63277 -6.01536,-11.40329 -3.30847,-5.77054 -7.02738,-14.14813 -8.26428,-18.61688 -1.2369,-4.46875 -2.95096,-9.47819 -3.80901,-11.13207 -1.53439,-2.95751 -1.57506,-2.92659 -2.4665,1.875 -0.49851,2.68513 -1.60439,5.72582 -2.4575,6.75707 -1.79378,2.16831 -9.48001,21.58066 -9.50241,23.99925 -0.009,0.89416 -1.41453,4.07379 -3.125,7.06584 -3.8583,6.74919 -3.8669,8.48151 -0.083,16.71972 4.36451,9.50217 8.53922,38.26824 8.1573,56.20832 -0.16547,7.77253 0.11387,15.25687 0.62077,16.63187 0.5069,1.375 1.37883,3.625 1.93761,5 0.5588,1.375 3.21977,10.375 5.91325,20 l 4.89727,17.5 -4.4641,0.30388 c -2.45525,0.16712 -7.85899,0.62083 -12.00833,1.00826 l -7.54422,0.70438 -2.31755,6.49174 c -4.97892,13.9466 -12.6996,50.51164 -13.78491,65.28513 -1.04154,14.17763 1.26802,26.1795 6.85691,35.63256 l 4.03455,6.82405 0.8647,46.25 c 0.8258,44.16886 0.98721,46.48681 3.58724,51.5127 3.12124,6.03345 3.47656,11.21906 1.01211,14.77166 -0.94073,1.3561 -2.3761,7.52814 -3.18972,13.71564 -2.17371,16.53096 -4.02469,24.72071 -6.15128,27.21654 -2.87627,3.37567 -14.09913,6.12021 -23.62829,5.77827 -7.25876,-0.26047 -8.44684,-10e-4 -8.45623,1.84092 -0.006,1.17918 -0.84976,2.6743 -1.875,3.32248 -2.4647,1.55824 -15.87432,1.36634 -20.61407,-0.29501 z M 124.2979,615 c 7.5458,-9.18839 10.53774,-19.56816 11.86669,-41.1685 0.91018,-14.79371 0.77732,-17.24975 -1.11564,-20.625 -1.18188,-2.10732 -2.54518,-6.82732 -3.02955,-10.48889 -0.48438,-3.66156 -1.9506,-9.3718 -3.25829,-12.68942 -4.03242,-10.23033 -12.82499,-45.01665 -14.54079,-57.52819 -2.31572,-16.88604 -2.99637,-19.71586 -5.17673,-21.52229 -1.72616,-1.43012 -1.83581,-0.72937 -1.01825,6.50771 0.50392,4.46073 1.57624,8.51842 2.38294,9.01708 1.08288,0.66937 1.46954,14.13594 1.4775,51.45775 0.01,45.00031 0.23513,50.8044 2.05401,52.85792 1.47918,1.66999 2.23097,5.75764 2.72326,14.80683 1.28669,23.65195 4.21564,41.22827 5.62417,33.75 0.25898,-1.375 1.16379,-3.34375 2.01068,-4.375 z M 111.1254,381.5625 C 111.0384,374.80012 110.69861,372.81859 110,375 c -1.46107,4.56219 -1.46107,16.25 0,16.25 0.73653,0 1.19882,-3.97944 1.1254,-9.6875 z M 158.75,110.625 c 0,-1.03125 -0.5625,-1.875 -1.25,-1.875 -0.6875,0 -1.25,-0.62193 -1.25,-1.38205 0,-0.76013 -1.33493,-2.96852 -2.96649,-4.90753 l -2.96649,-3.525475 -1.41805,3.112275 c -1.54136,3.38292 -1.02111,4.28118 4.81667,8.31644 3.80228,2.62826 5.03436,2.69222 5.03436,0.26134 z m -52.53715,-4.39796 c -0.84323,-0.52114 -1.26905,-1.4323 -0.94628,-2.02479 0.71845,-1.3188 -3.51803,-5.534126 -4.5374,-4.51475 -1.655531,1.65553 -0.52115,5.17994 2.70833,8.41454 2.95229,2.95696 3.49897,3.13449 3.87299,1.25773 0.23952,-1.20186 -0.25442,-2.61159 -1.09764,-3.13273 z M 148.7105,90.793987 148.671,86.875 l -3.0855,3.507205 c -3.32353,3.777755 -3.98995,8.21334 -1.59401,10.609275 1.1553,1.15531 1.85966,0.61583 3.125,-2.39351 0.89842,-2.136748 1.61573,-5.648539 1.59401,-7.803983 z m 8.29695,-0.274578 C 156.634,89.546234 155.81391,88.75 155.18502,88.75 c -2.17526,0 -2.40066,4.849591 -0.35935,7.731635 l 2.04933,2.893365 0.40571,-3.543091 c 0.22315,-1.9487 0.10013,-4.339325 -0.27326,-5.3125 z M 111.25,93.125 c 0,-2.40625 -0.5625,-4.375 -1.25,-4.375 -0.6875,0 -1.25,1.96875 -1.25,4.375 0,2.40625 0.5625,4.375 1.25,4.375 0.6875,0 1.25,-1.96875 1.25,-4.375 z"
       id="path3430"
       inkscape:connector-curvature="0" />
    <path
       style="fill:#fcd6d5"
       d="M 96.202362,637.1875 90.625,634.375 l 0,-35 c 0,-32.42685 -0.199931,-35.64329 -2.719454,-43.75 -1.4957,-4.8125 -3.642297,-14.375 -4.770216,-21.25 -1.127919,-6.875 -3.096835,-16.71875 -4.375369,-21.875 -1.278534,-5.15625 -2.930076,-14.49395 -3.670094,-20.75045 -0.740018,-6.2565 -1.858413,-14.12101 -2.485322,-17.47669 -0.626908,-3.35567 -0.832641,-16.51797 -0.457185,-29.24955 0.626352,-21.23934 0.462872,-23.85499 -1.982356,-31.71749 C 68.560994,408.14822 67.5,401.39692 67.5,396.3479 c 0,-8.49436 -0.88399,-14.97137 -4.562825,-33.43189 l -2.03446,-10.209 -5.763858,-2.13291 C 51.968736,349.401 46.5625,346.7165 43.125,344.60855 c -3.4375,-2.10795 -6.349885,-3.87273 -6.471967,-3.92173 -0.122088,-0.049 1.095838,-4.30171 2.706491,-9.45046 1.610652,-5.14875 3.88848,-13.18077 5.061837,-17.84896 1.173358,-4.66817 3.471062,-10.45877 5.106009,-12.86801 1.634946,-2.40923 2.97263,-5.64918 2.97263,-7.1999 0,-1.55072 0.50937,-3.35387 1.131934,-4.00699 0.622562,-0.65313 3.21539,-8.21875 5.761838,-16.8125 2.546448,-8.59375 5.14938,-16.60706 5.784293,-17.80735 1.306606,-2.47013 -0.702953,-5.80263 -10.566504,-17.52267 C 48.645234,230.08069 40.74243,212.7697 37.384608,199.43459 35.823567,193.23514 28.516517,186.35334 20.787197,183.80311 18.126406,182.9252 12.360781,180.57975 7.9746975,178.59101 L 0,174.97511 0,168.76637 c 0,-5.20234 0.49431291,-6.53262 3.0495683,-8.20689 1.6772624,-1.09898 2.7581489,-2.75758 2.4019698,-3.68577 -0.368688,-0.96078 0.8750984,-2.63616 2.8879318,-3.89002 7.4778381,-4.65822 8.0008261,-5.43384 5.8634551,-8.69588 -1.276851,-1.94872 -1.64425,-4.20935 -1.092429,-6.72177 0.916865,-4.17446 6.372001,-9.23942 8.598925,-7.98388 6.481276,3.65413 7.562595,9.34558 2.851644,15.00943 -3.377604,4.06081 -3.026613,6.26581 1.55702,9.7815 7.037332,5.39771 14.885597,14.7902 17.539494,20.99056 C 49.962982,190.09512 57.955059,205 59.548749,205 c 0.935687,0 1.734618,-0.42188 1.775401,-0.9375 0.04079,-0.51563 0.508867,-15.5625 1.040187,-33.4375 0.811058,-27.28607 1.325225,-33.25596 3.204959,-37.21211 2.929614,-6.16579 7.425121,-9.22404 16.760069,-11.40173 4.193375,-0.97825 9.610989,-3.00647 12.039142,-4.50715 l 4.414824,-2.72851 -3.141666,-3.73366 C 93.91375,108.98833 92.5,106.47966 92.5,105.46702 c 0,-1.01264 -0.933294,-3.64136 -2.073986,-5.841595 -2.054242,-3.96234 -4.005086,-26.121165 -2.13505,-24.251129 0.914635,0.914637 4.155939,-7.037125 4.190216,-10.279689 0.01338,-1.264888 -0.818851,-0.993441 -2.874244,0.9375 -3.443582,3.235078 -7.758233,3.718124 -6.615672,0.740659 C 83.408569,65.685286 83.75,64.52709 83.75,64.198995 c 0,-0.328096 0.65809,-0.189815 1.462424,0.30729 0.97858,0.604796 1.202539,0.226577 0.676916,-1.14317 -0.432029,-1.125849 -0.06333,-2.483749 0.819341,-3.017556 0.882665,-0.533808 1.937945,-1.880134 2.345066,-2.991837 1.562704,-4.267192 -5.325662,0.705162 -7.517552,5.42653 -3.102624,6.683107 -4.507246,5.799019 -3.562173,-2.242078 0.607504,-5.168915 0.441129,-6.728768 -0.646033,-6.056865 C 75.71592,55.477622 76.752729,53.25198 79.415594,50 c 0.844432,-1.03125 2.403047,-4.6875 3.463589,-8.125 3.521918,-11.41549 5.209875,-15.048241 9.292591,-19.99914 2.663475,-3.229857 3.624865,-5.329221 2.8125,-6.141586 C 94.305424,15.055424 93.75,13.513821 93.75,12.308493 c 0,-4.8208912 26.77908,-13.08861653 38.68386,-11.94318992 8.77544,0.84433382 26.08308,7.80878302 29.67474,11.94086592 3.26152,3.752275 4.7488,8.836426 3.07469,10.51055 -0.77349,0.773475 -0.35055,3.688922 1.1808,8.139882 1.31225,3.814126 2.38591,8.571195 2.38591,10.571264 0,2.000069 0.64464,4.840999 1.43252,6.313179 2.17893,4.071367 2.19789,10.849971 0.0364,13.011465 -1.51921,1.519206 -1.60849,2.386961 -0.43834,4.26066 3.24105,5.189742 0.33698,14.562821 -3.99676,12.899808 -1.67251,-0.641808 -2.0338,0.120687 -2.0338,4.292299 0,4.601694 -2.25099,15.163309 -4.34374,20.380784 -0.45469,1.13359 -0.22585,2.43241 0.50853,2.88627 0.73436,0.45387 1.33521,2.45973 1.33521,4.45746 0,4.67962 3.00753,6.29098 13.9924,7.49682 15.7699,1.7311 22.10581,10.51464 27.08115,37.5429 3.07902,16.72664 10.63101,39.7236 13.93377,42.43049 0.41943,0.34375 1.63587,1.90372 2.7032,3.4666 l 1.94063,2.84161 4.86193,-5.95179 c 2.67406,-3.27348 5.91362,-7.01016 7.19903,-8.30372 2.87955,-2.8978 16.70104,-22.12139 20.79862,-28.9277 1.65557,-2.75 3.7208,-5.5625 4.58938,-6.25 0.86859,-0.6875 2.90293,-3.78125 4.52074,-6.875 2.06021,-3.93974 3.84969,-5.75034 5.97283,-6.04335 1.66722,-0.23009 3.5657,-0.93321 4.21882,-1.5625 1.70182,-1.6397 9.1235,-1.41347 10.18904,0.31059 0.51329,0.83051 -0.43785,2.60471 -2.21663,4.13474 l -3.11568,2.68001 4.47788,1.58049 c 11.09698,3.91673 17.35648,5.51383 22.21629,5.66847 6.15854,0.19595 6.76053,0.61265 5.85998,4.05635 -0.85496,3.26936 -7.69464,5.4252 -17.21213,5.4252 -8.04876,0 -19.86133,3.71877 -23.91789,7.52972 -1.50551,1.41435 -4.22521,5.61028 -6.04377,9.32428 -1.81858,3.714 -3.8659,7.09845 -4.54962,7.52101 -0.68371,0.42256 -3.04023,4.53293 -5.23672,9.13414 -2.19649,4.60121 -4.36395,8.6471 -4.81657,8.99085 -0.45263,0.34375 -2.38128,3.11215 -4.2859,6.152 -1.90463,3.03985 -3.94324,6.1336 -4.53027,6.875 -9.7216,12.27828 -19.19556,23.223 -20.10226,23.223 C 216.19864,242.5 200,230.23132 200,227.52017 c 0,-0.50128 -2.70691,-5.63277 -6.01536,-11.40329 -3.30847,-5.77054 -7.02738,-14.14813 -8.26428,-18.61688 -1.2369,-4.46875 -2.95096,-9.47819 -3.80901,-11.13207 -1.53439,-2.95751 -1.57506,-2.92659 -2.4665,1.875 -0.49851,2.68513 -1.64026,5.72582 -2.53722,6.75707 -0.89697,1.03125 -3.66398,7.5 -6.14892,14.375 -2.48494,6.875 -5.64252,14.75 -7.01686,17.5 -3.19087,6.38481 -3.13959,7.9094 0.53514,15.90981 4.36451,9.50217 8.53922,38.26824 8.1573,56.20832 -0.16547,7.77253 0.11562,15.25687 0.6246,16.63187 1.76393,4.76509 3.01409,8.81644 6.94295,22.5 2.17137,7.5625 4.43622,15.29687 5.03302,17.1875 l 1.08509,3.4375 -6.63551,0 c -3.64953,0 -9.1315,0.34211 -12.18217,0.76025 -5.49635,0.75336 -5.57091,0.82988 -8.22302,8.4375 -5.47905,15.71679 -12.38854,48.58569 -13.4475,63.97064 -0.97695,14.19356 1.36024,26.24696 6.90924,35.63256 l 4.03455,6.82405 0.8647,46.25 c 0.8258,44.16886 0.98721,46.48681 3.58723,51.5127 3.14764,6.08446 3.39643,9.66624 0.99155,14.27524 -0.94357,1.80837 -2.38358,8.27712 -3.20002,14.375 -2.72984,20.38876 -4.11071,25.49955 -7.55175,27.94979 -4.77305,3.3987 -13.06408,5.2097 -22.32901,4.8773 -7.13214,-0.25589 -8.31479,0.006 -8.32417,1.8457 -0.0168,3.29113 -3.03331,4.4992 -11.28671,4.52013 -5.37056,0.0136 -9.15639,-0.79211 -13.124997,-2.79336 z M 130.47452,604.375 c 3.92853,-8.67116 4.831,-13.38269 5.74297,-29.9821 0.90166,-16.41187 0.30376,-22.08611 -2.5703,-24.3929 -0.42829,-0.34375 -1.1679,-3.62082 -1.64359,-7.28239 -0.47569,-3.66156 -1.9348,-9.3718 -3.24249,-12.68942 C 124.52018,519.26885 115.90064,484.70291 114.25974,471.875 112.41652,457.46544 110.46102,450 108.52979,450 c -1.83218,0 -0.0923,15.28427 1.87849,16.50235 1.08316,0.66945 1.46672,14.12284 1.46672,51.44576 0,45.10734 0.22076,50.78848 2.05402,52.85807 1.4888,1.68075 2.24563,5.75848 2.75035,14.81882 0.9204,16.5223 2.69134,32.34552 3.82551,34.18064 0.8684,1.4051 5.80088,-6.2292 9.96964,-15.43064 z M 111.1254,381.5625 C 111.0384,374.80012 110.69861,372.81859 110,375 c -1.46107,4.56219 -1.46107,16.25 0,16.25 0.73653,0 1.19882,-3.97944 1.1254,-9.6875 z M 158.75,110.625 c 0,-1.03125 -0.5625,-1.875 -1.25,-1.875 -0.6875,0 -1.25,-0.62193 -1.25,-1.38205 0,-0.76013 -1.33493,-2.96852 -2.96649,-4.90753 l -2.96649,-3.525475 -1.41805,3.112275 c -1.54136,3.38292 -1.02111,4.28118 4.81667,8.31644 3.80228,2.62826 5.03436,2.69222 5.03436,0.26134 z m -52.36511,-4.1217 c -0.77026,-0.25676 -1.09519,-0.96076 -0.72209,-1.56447 0.80947,-1.30974 -3.88183,-6.303131 -4.93363,-5.25133 -1.655531,1.65553 -0.52115,5.17994 2.70833,8.41454 3.04986,3.05468 3.48883,3.18499 3.89268,1.15551 0.25035,-1.25809 -0.17503,-2.4975 -0.94529,-2.75425 z M 148.7105,90.793987 148.671,86.875 l -3.0855,3.507205 c -3.32353,3.777755 -3.98995,8.21334 -1.59401,10.609275 1.1553,1.15531 1.85966,0.61583 3.125,-2.39351 0.89842,-2.136748 1.61573,-5.648539 1.59401,-7.803983 z m 8.55246,3.365138 c -0.41156,-4.87008 -2.96706,-7.085538 -3.79591,-3.290799 -0.58116,2.660773 1.44519,7.881674 3.05905,7.881674 0.61865,0 0.95024,-2.065894 0.73686,-4.590875 z M 111.25,93.125 c 0,-2.40625 -0.5625,-4.375 -1.25,-4.375 -0.6875,0 -1.25,1.96875 -1.25,4.375 0,2.40625 0.5625,4.375 1.25,4.375 0.6875,0 1.25,-1.96875 1.25,-4.375 z"
       id="path3428"
       inkscape:connector-curvature="0" />
    <path
       style="fill:#fbc0be"
       d="m 96.134105,637.07854 -5.509105,-2.92148 0,-34.89102 c 0,-32.31495 -0.200784,-35.53708 -2.719454,-43.64104 -1.4957,-4.8125 -3.642297,-14.375 -4.770216,-21.25 -1.127919,-6.875 -3.096835,-16.71875 -4.375369,-21.875 -1.278534,-5.15625 -2.930076,-14.49395 -3.670094,-20.75045 -0.740018,-6.2565 -1.858413,-14.12101 -2.485322,-17.47669 -0.626908,-3.35567 -0.82371,-16.56511 -0.437338,-29.3543 C 72.813256,423.53391 72.65397,420.95524 70.184851,412.8262 68.636735,407.72936 67.5,400.59393 67.5,395.97302 c 0,-8.12745 -0.909056,-14.71971 -4.55014,-32.99657 L 60.928085,352.82791 54.82712,350.16395 C 51.47159,348.69877 48.410994,347.5 48.025797,347.5 c -0.385197,0 -3.115611,-1.66174 -6.067584,-3.69275 l -5.367227,-3.69275 2.848499,-9.11975 c 1.566674,-5.01586 3.808519,-12.93916 4.981876,-17.60735 1.173358,-4.66818 3.471062,-10.45878 5.106009,-12.86801 1.634946,-2.40923 2.97263,-5.64918 2.97263,-7.1999 0,-1.55072 0.50937,-3.35387 1.131934,-4.00699 0.622562,-0.65313 3.21539,-8.21875 5.761838,-16.8125 2.546448,-8.59375 5.175662,-16.65616 5.842697,-17.91649 0.87922,-1.66122 0.669681,-2.89161 -0.761839,-4.47342 C 63.388584,248.91002 62.5,247.47232 62.5,246.9152 c 0,-0.55711 -3.13205,-4.5804 -6.960111,-8.94062 -5.432973,-6.18824 -8.041105,-10.70149 -11.88686,-20.56971 -2.709713,-6.95311 -5.530501,-15.03975 -6.268421,-17.97028 -0.975513,-3.87411 -2.828241,-6.57089 -6.788712,-9.88143 C 27.600025,187.04892 24.778499,185 24.32584,185 23.87318,185 21.730313,184.1865 19.563911,183.19221 17.39751,182.19794 12.25,180.05664 8.125,178.43379 l -7.5,-2.95067 -0.3753959,-6.42153 c -0.33172499,-5.6745 -0.0133137,-6.65878 2.7370683,-8.4609 1.7118552,-1.12165 2.8210448,-2.79879 2.4648657,-3.72698 -0.368688,-0.96079 0.8750984,-2.63616 2.8879318,-3.89002 7.4778381,-4.65822 8.0008261,-5.43384 5.8634551,-8.69588 -1.276851,-1.94872 -1.64425,-4.20935 -1.092429,-6.72177 0.916865,-4.17446 6.372001,-9.23942 8.598925,-7.98388 6.564925,3.70129 7.691518,9.88054 2.709688,14.86236 -3.556938,3.55694 -3.098165,6.19049 1.72959,9.92857 7.07443,5.47765 14.866965,14.81773 17.51267,20.99056 3.942568,9.19861 11.468177,24.73184 13.632443,28.13804 1.158118,1.82267 2.264175,2.44032 3.01876,1.68574 0.655018,-0.65502 1.60309,-16.01203 2.106829,-34.12668 0.772114,-27.7655 1.26697,-33.67546 3.152353,-37.64786 2.926051,-6.16505 7.421616,-9.22379 16.757611,-11.40173 4.193375,-0.97825 9.610989,-3.00647 12.039142,-4.50715 l 4.414824,-2.72851 -3.141666,-3.73366 C 93.91375,108.98833 92.5,106.47966 92.5,105.46702 c 0,-1.01264 -0.933294,-3.64136 -2.073986,-5.841595 -2.054242,-3.96234 -4.005086,-26.121165 -2.13505,-24.251129 0.914635,0.914637 4.155939,-7.037125 4.190216,-10.279689 0.01338,-1.264888 -0.818851,-0.993441 -2.874244,0.9375 -3.443582,3.235078 -7.758233,3.718124 -6.615672,0.740659 C 83.408569,65.685286 83.75,64.52709 83.75,64.198995 c 0,-0.328096 0.5625,-0.248894 1.25,0.176005 0.6875,0.424899 1.25,-0.385655 1.25,-1.801229 C 86.25,61.158197 86.746895,60 87.354211,60 c 0.607315,0 1.375203,-1.036275 1.706415,-2.302835 1.113924,-4.259648 -5.152292,-0.02654 -7.524431,5.083088 -3.102624,6.683106 -4.507246,5.799018 -3.562172,-2.242079 0.607503,-5.168915 0.441128,-6.728768 -0.646034,-6.056865 C 75.71592,55.477622 76.752729,53.25198 79.415594,50 c 0.844432,-1.03125 2.403047,-4.6875 3.463589,-8.125 3.521918,-11.41549 5.209875,-15.048241 9.292591,-19.99914 2.663475,-3.229857 3.624865,-5.329221 2.8125,-6.141586 C 94.305424,15.055424 93.75,13.513821 93.75,12.308493 c 0,-4.8208912 26.77908,-13.08861653 38.68386,-11.94318992 7.95491,0.76538652 25.94805,7.66816042 28.99,11.12153792 3.34505,3.797478 5.38354,9.705758 3.87068,11.218615 -0.92183,0.921825 -0.60125,3.394869 1.06955,8.251145 1.31225,3.814126 2.38591,8.571195 2.38591,10.571264 0,2.000069 0.64464,4.840999 1.43252,6.313179 2.17893,4.071367 2.19789,10.849971 0.0364,13.011465 -1.51921,1.519206 -1.60849,2.386961 -0.43834,4.26066 3.24105,5.189742 0.33698,14.562821 -3.99676,12.899809 -1.67251,-0.641809 -2.0338,0.120686 -2.0338,4.292298 0,4.884722 -2.77268,17.602114 -4.41811,20.264494 -0.43842,0.70936 -0.12,2.10562 0.7076,3.1028 0.82758,0.99719 1.24488,3.17218 0.92733,4.83333 -0.74609,3.90301 2.95963,5.71055 14.35122,7.00008 15.68297,1.7753 21.36872,9.57837 26.71625,36.66511 3.58151,18.14142 10.97591,40.66762 14.22303,43.32891 0.41943,0.34375 1.63587,1.90372 2.70321,3.4666 l 1.94062,2.84161 4.86193,-5.95179 c 2.67406,-3.27348 5.91617,-7.01271 7.20471,-8.30938 1.28852,-1.29669 6.06977,-7.60859 10.625,-14.02647 4.55521,-6.41787 9.96971,-14.04907 12.03221,-16.95822 2.0625,-2.90916 5.2041,-7.84065 6.98133,-10.95886 3.28668,-5.76664 4.99292,-6.68565 15.68353,-8.44739 5.36494,-0.8841 6.75263,1.73621 2.74505,5.18337 l -3.11568,2.68002 4.47788,1.58048 c 11.09698,3.91674 17.35648,5.51384 22.21629,5.66848 6.15854,0.19595 6.76053,0.61265 5.85998,4.05635 -0.85496,3.26936 -7.69464,5.4252 -17.21213,5.4252 -8.02204,0 -19.85776,3.71544 -23.88353,7.49744 -1.4866,1.39658 -4.00301,5.20287 -5.59203,8.45841 -1.58901,3.25554 -3.83581,7.04415 -4.99289,8.41915 -1.15708,1.375 -3.74943,5.875 -5.76079,10 -2.01136,4.125 -3.9948,7.78125 -4.40765,8.125 -0.41285,0.34375 -2.30896,3.11215 -4.21359,6.152 -1.90462,3.03985 -3.94323,6.1336 -4.53026,6.875 -9.7216,12.27828 -19.19556,23.223 -20.10226,23.223 C 216.19864,242.5 200,230.23132 200,227.52017 c 0,-0.50128 -2.70691,-5.63277 -6.01536,-11.40329 -3.30847,-5.77054 -7.02738,-14.14813 -8.26428,-18.61688 -1.2369,-4.46875 -2.95096,-9.47819 -3.80901,-11.13207 -1.53481,-2.95832 -1.57496,-2.92796 -2.47546,1.87212 -0.50344,2.68358 -1.42295,5.19294 -2.04335,5.57636 -0.6204,0.38344 -3.38587,6.85348 -6.14547,14.37787 -2.7596,7.5244 -6.13942,15.93072 -7.51073,18.68072 -3.18485,6.38686 -3.13304,7.91166 0.54065,15.90981 4.4438,9.67477 8.56051,38.34715 8.07027,56.20832 -0.21334,7.77253 -0.0846,14.69437 0.28607,15.38187 0.37067,0.6875 1.32198,3.5 2.11402,6.25 0.79204,2.75 3.09204,10.34375 5.11111,16.875 2.01908,6.53125 4.06451,13.98437 4.54541,16.5625 l 0.87435,4.6875 -6.21465,0 c -3.41805,0 -8.71063,0.34211 -11.7613,0.76025 -5.49635,0.75336 -5.57091,0.82988 -8.22302,8.4375 -5.4549,15.64751 -12.41883,48.66259 -13.48429,63.92725 -0.9859,14.12483 1.37566,26.25423 6.94603,35.67595 l 4.03455,6.82405 0.8647,46.25 c 0.8258,44.16886 0.98721,46.48681 3.58723,51.5127 3.14764,6.08446 3.39643,9.66624 0.99155,14.27524 -0.94357,1.80837 -2.38358,8.27712 -3.20002,14.375 -2.72984,20.38876 -4.11071,25.49955 -7.55175,27.94978 -4.77305,3.3987 -13.06408,5.2097 -22.32901,4.8773 -7.13214,-0.25588 -8.31479,0.006 -8.32417,1.8457 -0.0168,3.2972 -3.03641,4.49923 -11.35497,4.52014 -5.60438,0.0141 -9.07096,-0.75249 -13.124995,-2.90232 z M 129.82447,605.625 c 4.57662,-9.6899 5.44168,-13.91607 6.39302,-31.2321 0.90166,-16.41187 0.30376,-22.08611 -2.5703,-24.3929 -0.42829,-0.34375 -1.1679,-3.62082 -1.64359,-7.28239 -0.47569,-3.66156 -1.9348,-9.3718 -3.24249,-12.68942 C 124.52018,519.26885 115.90064,484.70291 114.25974,471.875 112.41652,457.46544 110.46102,450 108.52979,450 c -1.63325,0 -0.20048,15.21745 1.53368,16.28922 0.62791,0.38808 1.19544,22.82477 1.2889,50.95473 0.15284,46.00439 0.35403,50.49931 2.37546,53.07119 1.63266,2.07725 2.39612,6.069 2.92818,15.30986 0.96298,16.72551 2.72632,32.36431 3.85514,34.19078 0.92717,1.50019 4.40575,-3.80014 9.31332,-14.19078 z M 111.10211,380.9375 c -0.10632,-7.41348 -0.41614,-9.25831 -1.10211,-6.5625 -1.43021,5.62064 -1.43021,16.875 0,16.875 0.74427,0 1.19017,-4.17224 1.10211,-10.3125 z M 158.75,110.625 c 0,-1.03125 -0.5625,-1.875 -1.25,-1.875 -0.6875,0 -1.25,-0.62193 -1.25,-1.38205 0,-0.76013 -1.33493,-2.96852 -2.96649,-4.90753 l -2.96649,-3.525475 -1.41805,3.112275 c -1.54136,3.38292 -1.02111,4.28118 4.81667,8.31644 3.80228,2.62826 5.03436,2.69222 5.03436,0.26134 z m -52.36511,-4.1217 c -0.77026,-0.25676 -1.09519,-0.96076 -0.72209,-1.56447 0.80947,-1.30974 -3.88183,-6.303131 -4.93363,-5.25133 -1.655531,1.65553 -0.52115,5.17994 2.70833,8.41454 3.04986,3.05468 3.48883,3.18499 3.89268,1.15551 0.25035,-1.25809 -0.17503,-2.4975 -0.94529,-2.75425 z m 42.26922,-15.2533 0.0169,-4.375 -3.0855,3.507205 c -3.35849,3.817502 -3.98527,8.214997 -1.523,10.685575 1.25172,1.25595 1.86206,0.87059 3.06862,-1.9375 0.82838,-1.927904 1.51373,-5.47403 1.523,-7.88028 z m 8.60885,2.909125 c -0.41156,-4.87008 -2.96706,-7.085538 -3.79591,-3.290799 -0.58116,2.660773 1.44519,7.881674 3.05905,7.881674 0.61865,0 0.95024,-2.065894 0.73686,-4.590875 z M 111.25,93.125 c 0,-2.40625 -0.5625,-4.375 -1.25,-4.375 -0.6875,0 -1.25,1.96875 -1.25,4.375 0,2.40625 0.5625,4.375 1.25,4.375 0.6875,0 1.25,-1.96875 1.25,-4.375 z"
       id="path3426"
       inkscape:connector-curvature="0" />
    <path
       style="fill:#fbb9b7"
       d="m 96.134105,637.07854 -5.509105,-2.92148 0,-34.89102 c 0,-32.31495 -0.200784,-35.53708 -2.719454,-43.64104 -1.4957,-4.8125 -3.642297,-14.375 -4.770216,-21.25 -1.127919,-6.875 -3.096835,-16.71875 -4.375369,-21.875 -1.278534,-5.15625 -2.930076,-14.49395 -3.670094,-20.75045 -0.740018,-6.2565 -1.858413,-14.12101 -2.485322,-17.47669 -0.626908,-3.35567 -0.838436,-16.51797 -0.470061,-29.24955 0.569345,-19.6774 0.343137,-24.27287 -1.508632,-30.64831 -1.198121,-4.125 -2.611232,-13.40625 -3.140246,-20.625 -0.529015,-7.21875 -1.266351,-14.53125 -1.638527,-16.25 -0.372175,-1.71875 -1.631203,-7.9731 -2.797839,-13.89855 L 60.928085,352.82791 54.82712,350.16395 C 51.47159,348.69877 48.410994,347.5 48.025797,347.5 c -0.385197,0 -3.115611,-1.66174 -6.067584,-3.69275 l -5.367227,-3.69275 2.848499,-9.11975 c 1.566674,-5.01586 3.808519,-12.93916 4.981876,-17.60735 1.173358,-4.66818 3.471062,-10.45878 5.106009,-12.86801 1.634946,-2.40923 2.97263,-5.64918 2.97263,-7.1999 0,-1.55072 0.50937,-3.35387 1.131934,-4.00699 0.622562,-0.65313 3.21539,-8.21875 5.761838,-16.8125 2.546448,-8.59375 5.175662,-16.65616 5.842697,-17.91649 0.87922,-1.66122 0.669681,-2.89161 -0.761839,-4.47342 C 63.388584,248.91002 62.5,247.51085 62.5,247.00084 62.5,245.96675 52.749095,233.86185 50.32558,231.88735 48.567386,230.4549 39.418399,207.5115 37.384608,199.43459 36.409095,195.56047 34.556367,192.8637 30.595896,189.55316 27.600025,187.04892 24.778499,185 24.32584,185 23.87318,185 21.730313,184.1865 19.563911,183.19221 17.39751,182.19794 12.25,180.05664 8.125,178.43379 l -7.5,-2.95067 -0.3753959,-6.42153 c -0.33172499,-5.6745 -0.0133137,-6.65878 2.7370683,-8.4609 1.7118552,-1.12165 2.8210448,-2.79879 2.4648657,-3.72698 -0.368688,-0.96079 0.8750984,-2.63616 2.8879318,-3.89002 7.4778381,-4.65822 8.0008261,-5.43384 5.8634551,-8.69588 -1.276851,-1.94872 -1.64425,-4.20935 -1.092429,-6.72177 0.916865,-4.17446 6.372001,-9.23942 8.598925,-7.98388 6.564925,3.70129 7.691518,9.88054 2.709688,14.86236 -3.556938,3.55694 -3.098165,6.19049 1.72959,9.92857 7.050952,5.45947 14.865731,14.8116 17.540051,20.99056 10.079774,23.28915 14.743739,31.70386 16.563604,29.884 0.722081,-0.72209 1.638461,-15.1787 2.167047,-34.1869 0.772114,-27.7655 1.26697,-33.67546 3.152353,-37.64786 2.926051,-6.16505 7.421616,-9.22379 16.757611,-11.40173 4.193375,-0.97825 9.632772,-3.01993 12.087551,-4.53707 4.259879,-2.63275 4.366218,-2.86563 2.333935,-5.11127 -4.500745,-4.97327 -8.192197,-16.452478 -8.783055,-27.312421 -0.316431,-5.81603 -0.171007,-10.170277 0.323168,-9.676103 0.914635,0.914636 4.155938,-7.037125 4.190216,-10.279689 0.01338,-1.264888 -0.818851,-0.993441 -2.874244,0.9375 -3.443582,3.235078 -7.758234,3.718124 -6.615672,0.740659 C 83.408569,65.685286 83.75,64.52709 83.75,64.198995 c 0,-0.328096 0.5625,-0.248894 1.25,0.176005 0.6875,0.424899 1.25,-0.144584 1.25,-1.265515 0,-1.120931 0.84375,-2.881806 1.875,-3.913056 2.870436,-2.870437 2.23375,-4.125706 -1.276305,-2.516323 -1.733218,0.794691 -4.123843,3.539758 -5.3125,6.100146 -3.102624,6.683107 -4.507246,5.799019 -3.562173,-2.242078 0.607504,-5.168915 0.441129,-6.728768 -0.646033,-6.056865 C 75.71592,55.477622 76.752729,53.25198 79.415594,50 c 0.844432,-1.03125 2.403047,-4.6875 3.463589,-8.125 3.521918,-11.41549 5.209875,-15.048241 9.292591,-19.99914 2.663475,-3.229857 3.624865,-5.329221 2.8125,-6.141586 C 94.305424,15.055424 93.75,13.513821 93.75,12.308493 c 0,-4.8208912 26.77908,-13.08861653 38.68386,-11.94318992 7.95491,0.76538652 25.94805,7.66816042 28.99,11.12153792 3.34505,3.797478 5.38354,9.705758 3.87068,11.218615 -0.92183,0.921825 -0.60125,3.394869 1.06955,8.251145 1.31225,3.814126 2.38591,8.571195 2.38591,10.571264 0,2.000069 0.64464,4.840999 1.43252,6.313179 2.17893,4.071367 2.19789,10.849971 0.0364,13.011465 -1.51921,1.519206 -1.60849,2.386961 -0.43834,4.26066 3.24105,5.189742 0.33698,14.562821 -3.99676,12.899809 -1.67251,-0.641809 -2.0338,0.120686 -2.0338,4.292298 0,4.884722 -2.77268,17.602114 -4.41811,20.264494 -0.43842,0.70936 -0.12,2.10562 0.7076,3.1028 0.82758,0.99719 1.24488,3.17218 0.92733,4.83333 -0.74609,3.90301 2.95963,5.71055 14.35122,7.00008 15.68297,1.7753 21.36872,9.57837 26.71625,36.66511 4.25011,21.52811 10.38528,38.97868 16.20731,46.09933 l 2.7762,3.39543 4.69014,-5.7237 c 2.57957,-3.14804 6.31322,-7.48848 8.29698,-9.64543 4.65929,-5.06606 24.41003,-33.09268 28.6014,-40.58588 3.29604,-5.89254 4.92692,-6.78211 15.68354,-8.55474 5.43605,-0.89583 6.74186,1.74547 2.61703,5.29351 -3.2302,2.7785 -3.23234,2.79301 -0.51282,3.48163 1.50202,0.38032 6.93495,2.14342 12.07322,3.918 5.28713,1.826 10.71292,2.93973 12.5,2.56585 4.15918,-0.87018 6.3504,0.68109 5.50867,3.89985 -0.85771,3.27988 -7.6839,5.43506 -17.21471,5.43506 -8.02204,0 -19.85776,3.71544 -23.88353,7.49744 -1.4866,1.39658 -4.02963,5.20287 -5.65117,8.45841 -1.62155,3.25554 -3.64101,6.61757 -4.48769,7.47121 -0.84667,0.85363 -3.41241,5.35363 -5.70163,10 -2.28923,4.64637 -4.50002,8.72919 -4.91287,9.07294 -0.41285,0.34375 -2.32506,3.15625 -4.24936,6.25 -1.9243,3.09375 -3.83971,5.90625 -4.25646,6.25 -0.41676,0.34375 -3.11024,3.71875 -5.98552,7.5 -2.87527,3.78125 -7.14465,9.08965 -9.48751,11.79646 l -4.25974,4.92145 -4.75657,-2.25714 C 210.95194,238.49126 200,229.27196 200,227.55416 c 0,-0.48259 -2.54835,-5.33282 -5.66301,-10.7783 -3.11465,-5.44547 -7.05627,-14.40086 -8.75915,-19.90086 -4.11563,-13.29276 -5.02958,-14.56439 -6.15526,-8.56401 -0.49612,2.64455 -1.40964,5.122 -2.03004,5.50542 -0.6204,0.38344 -3.38586,6.85348 -6.14546,14.37786 -2.7596,7.5244 -6.13943,15.93073 -7.51074,18.68073 -3.12899,6.27484 -3.11635,8.23966 0.0935,14.53145 4.25532,8.34112 8.84234,39.06751 8.46915,56.73116 -0.17445,8.25694 -0.006,15.56944 0.37421,16.25 0.38028,0.68056 1.4262,4.04989 2.32429,7.48739 0.89809,3.4375 3.19454,11.03125 5.10324,16.875 1.90868,5.84375 3.85446,12.73437 4.32393,15.3125 l 0.85359,4.6875 -6.21465,0 c -3.41805,0 -8.71064,0.34211 -11.7613,0.76025 -5.49635,0.75336 -5.57091,0.82987 -8.22302,8.4375 -5.4549,15.64751 -12.41883,48.66259 -13.48429,63.92725 -0.9859,14.12482 1.37566,26.25422 6.94602,35.67595 l 4.03455,6.82405 0.8647,46.25 c 0.8258,44.16886 0.98722,46.48681 3.58724,51.5127 3.14764,6.08446 3.39643,9.66624 0.99155,14.27524 -0.94357,1.80837 -2.38359,8.27712 -3.20002,14.375 -2.72984,20.38876 -4.11072,25.49955 -7.55175,27.94978 -4.77305,3.3987 -13.06408,5.2097 -22.32902,4.8773 -7.13214,-0.25588 -8.31479,0.006 -8.32416,1.8457 -0.0168,3.2972 -3.03641,4.49923 -11.35497,4.52014 -5.60438,0.0141 -9.07096,-0.75249 -13.125,-2.90232 z m 30.616485,-25.16619 c 1.58266,-2.08304 3.59278,-6.03735 4.46694,-8.78735 0.87414,-2.75 2.18497,-6.125 2.91293,-7.5 1.83707,-3.46988 3.3252,-37.87911 1.8244,-42.18431 C 135.29517,551.54831 134.32541,550 133.79982,550 c -0.5256,0 -1.31783,-3.08184 -1.76053,-6.84854 -0.4427,-3.7667 -1.89635,-9.61756 -3.23035,-13.00192 C 124.52697,519.2861 115.90897,484.76805 114.25974,471.875 112.41652,457.46544 110.46102,450 108.52979,450 c -1.63997,0 -0.19685,15.2197 1.54521,16.29635 0.64473,0.39848 1.18245,22.57824 1.2471,51.44108 0.10544,47.06686 0.27679,50.91566 2.36666,53.15886 1.72962,1.85655 2.41953,5.29997 2.96996,14.82351 1.60855,27.83104 3.74459,39.3594 6.10863,32.96876 0.60811,-1.64386 2.40056,-4.69316 3.98324,-6.77621 z M 111.1254,380.9375 c -0.0855,-7.07977 -0.43833,-9.33289 -1.1254,-7.1875 -1.46626,4.5784 -1.46626,17.5 0,17.5 0.74239,0 1.1994,-4.18776 1.1254,-10.3125 z M 158.75,110.625 c 0,-1.03125 -0.5625,-1.875 -1.25,-1.875 -0.6875,0 -1.25,-0.62193 -1.25,-1.38205 0,-0.76013 -1.33493,-2.96852 -2.96649,-4.90753 l -2.96649,-3.525475 -1.41805,3.112275 c -1.54136,3.38292 -1.02111,4.28118 4.81667,8.31644 3.80228,2.62826 5.03436,2.69222 5.03436,0.26134 z m -52.36511,-4.1217 c -0.77026,-0.25676 -1.09519,-0.96076 -0.72209,-1.56447 0.80947,-1.30974 -3.88183,-6.303131 -4.93363,-5.25133 -1.655531,1.65553 -0.52115,5.17994 2.70833,8.41454 3.04986,3.05468 3.48883,3.18499 3.89268,1.15551 0.25035,-1.25809 -0.17503,-2.4975 -0.94529,-2.75425 z m 42.26922,-15.2533 0.0169,-4.375 -3.0855,3.507205 c -3.35849,3.817502 -3.98527,8.214997 -1.523,10.685575 1.25172,1.25595 1.86206,0.87059 3.06862,-1.9375 0.82838,-1.927904 1.51373,-5.47403 1.523,-7.88028 z m 8.60885,2.909125 c -0.41156,-4.87008 -2.96706,-7.085538 -3.79591,-3.290799 -0.58116,2.660773 1.44519,7.881674 3.05905,7.881674 0.61865,0 0.95024,-2.065894 0.73686,-4.590875 z M 111.25,93.125 c 0,-2.40625 -0.5625,-4.375 -1.25,-4.375 -0.6875,0 -1.25,1.96875 -1.25,4.375 0,2.40625 0.5625,4.375 1.25,4.375 0.6875,0 1.25,-1.96875 1.25,-4.375 z"
       id="path3424"
       inkscape:connector-curvature="0" />
    <path
       style="fill:#faa8a6"
       d="m 96.134105,637.07854 -5.509105,-2.92148 0,-34.89102 c 0,-32.31495 -0.200784,-35.53708 -2.719454,-43.64104 -1.4957,-4.8125 -3.642297,-14.375 -4.770216,-21.25 -1.127919,-6.875 -3.096835,-16.71875 -4.375369,-21.875 -1.278534,-5.15625 -2.930076,-14.49395 -3.670094,-20.75045 -0.740018,-6.2565 -1.858413,-14.12101 -2.485322,-17.47669 -0.626908,-3.35567 -0.838436,-16.51797 -0.470061,-29.24955 0.569345,-19.6774 0.343137,-24.27287 -1.508632,-30.64831 -1.198121,-4.125 -2.611232,-13.40625 -3.140246,-20.625 -0.529015,-7.21875 -1.266351,-14.53125 -1.638527,-16.25 -0.372175,-1.71875 -1.631203,-7.9731 -2.797839,-13.89855 L 60.928085,352.82791 54.82712,350.16395 C 51.47159,348.69877 48.410994,347.5 48.025797,347.5 c -0.385197,0 -3.097118,-1.64901 -6.026491,-3.66447 l -5.326131,-3.66448 2.82176,-9.14802 c 1.551967,-5.03142 3.775319,-12.96744 4.940781,-17.63563 1.165463,-4.66818 3.456706,-10.45878 5.091654,-12.86801 1.634946,-2.40923 2.97263,-5.64918 2.97263,-7.1999 0,-1.55072 0.50937,-3.35387 1.131934,-4.00699 0.622562,-0.65313 3.21539,-8.21875 5.761838,-16.8125 2.546448,-8.59375 5.175662,-16.65616 5.842697,-17.91649 0.87922,-1.66122 0.669681,-2.89161 -0.761839,-4.47342 C 63.388584,248.91002 62.5,247.51085 62.5,247.00084 62.5,245.96675 52.749095,233.86185 50.32558,231.88735 48.567386,230.4549 39.418399,207.5115 37.384608,199.43459 36.409095,195.56047 34.556367,192.8637 30.595896,189.55316 27.600025,187.04892 24.778499,185 24.32584,185 23.87318,185 21.730313,184.1865 19.563911,183.19221 17.39751,182.19794 12.25,180.05664 8.125,178.43379 l -7.5,-2.95067 -0.3753959,-6.42153 c -0.33172499,-5.6745 -0.0133137,-6.65878 2.7370683,-8.4609 1.7118552,-1.12165 2.8210448,-2.79879 2.4648657,-3.72698 -0.368688,-0.96079 0.8750984,-2.63616 2.8879318,-3.89002 7.4778381,-4.65822 8.0008261,-5.43384 5.8634551,-8.69588 -1.276851,-1.94872 -1.64425,-4.20935 -1.092429,-6.72177 0.916865,-4.17446 6.372001,-9.23942 8.598925,-7.98388 6.530163,3.68169 7.690451,9.8816 2.770123,14.80193 -3.569183,3.56918 -3.146097,6.54573 1.423441,10.01436 7.192456,5.45962 15.118516,14.80257 17.785765,20.9652 10.079774,23.28915 14.743739,31.70386 16.563604,29.884 0.722081,-0.72209 1.638461,-15.1787 2.167047,-34.1869 0.772114,-27.7655 1.26697,-33.67546 3.152353,-37.64786 2.919107,-6.15043 7.419663,-9.22334 16.66833,-11.38091 6.172845,-1.44002 10.795235,-3.33409 16.410679,-6.72441 0.289168,-0.17459 -0.653509,-1.58084 -2.094839,-3.125 -1.44133,-1.54416 -3.032529,-4.49507 -3.535997,-6.55757 -0.503468,-2.0625 -1.756769,-5.04906 -2.785113,-6.63681 -1.888034,-2.915089 -3.739754,-25.409798 -1.94385,-23.613894 0.914635,0.914637 4.155939,-7.037125 4.190216,-10.279689 0.01338,-1.264888 -0.818851,-0.993441 -2.874244,0.9375 -3.443582,3.235078 -7.758233,3.718124 -6.615672,0.740659 C 83.408569,65.685286 83.75,64.52709 83.75,64.198995 c 0,-0.328096 0.5625,-0.248894 1.25,0.176005 0.6875,0.424899 1.25,-0.144584 1.25,-1.265515 0,-1.120931 0.84375,-2.881806 1.875,-3.913056 2.870436,-2.870437 2.23375,-4.125706 -1.276305,-2.516323 -1.733218,0.794691 -4.123843,3.539758 -5.3125,6.100146 -3.102624,6.683107 -4.507246,5.799019 -3.562173,-2.242078 0.622899,-5.299892 0.456097,-6.738019 -0.698732,-6.024295 -0.834326,0.515641 -0.355778,-0.710912 1.063442,-2.725674 1.419221,-2.014762 3.455269,-6.475705 4.524554,-9.913205 3.719028,-11.95581 5.436148,-15.571294 9.5342,-20.074749 3.016165,-3.314541 3.7508,-4.901965 2.737494,-5.915271 -4.560761,-4.560761 1.945874,-8.9067935 20.42389,-13.6419044 12.58849,-3.22588511 20.52957,-2.55146145 33.81613,2.8719545 11.11214,4.5358408 11.48453,4.8201938 14.96278,11.4252049 1.82181,3.459514 2.09281,5.029176 1.04857,6.073412 -1.04424,1.044237 -0.79154,3.200459 0.97774,8.342954 1.31225,3.814126 2.38591,8.571195 2.38591,10.571264 0,2.000069 0.64464,4.840999 1.43253,6.313179 2.17892,4.071367 2.19788,10.849971 0.0364,13.011465 -1.51921,1.519206 -1.60849,2.386961 -0.43834,4.26066 3.24105,5.189742 0.33698,14.562821 -3.99676,12.899808 -1.67251,-0.641808 -2.0338,0.120687 -2.0338,4.292299 0,4.884722 -2.77268,17.602114 -4.41811,20.264494 -0.43842,0.70936 -0.12,2.10562 0.7076,3.1028 0.82758,0.99719 1.24488,3.17218 0.92733,4.83333 -0.74609,3.90301 2.95963,5.71055 14.35122,7.00008 16.27233,1.84202 21.5702,9.41917 27.18321,38.87814 3.71558,19.50059 9.89975,36.74293 15.74035,43.8863 l 2.7762,3.39543 4.8036,-5.8806 c 2.64198,-3.23434 5.64735,-6.73129 6.6786,-7.771 5.30804,-5.35159 24.2009,-31.94214 30.10632,-42.37281 3.29004,-5.81115 4.96933,-6.7197 15.68354,-8.48534 5.43605,-0.89582 6.74186,1.74547 2.61703,5.29351 -3.2302,2.7785 -3.23234,2.79302 -0.51282,3.48163 1.50202,0.38032 6.93495,2.14342 12.07322,3.918 5.28714,1.826 10.71292,2.93974 12.5,2.56585 4.17882,-0.87429 6.34944,0.68474 5.49619,3.94757 -0.83944,3.21 -8.30453,5.38734 -18.47073,5.38734 -7.53103,0 -18.49383,3.67335 -22.71785,7.61216 -1.43005,1.33349 -3.916,5.08815 -5.52432,8.34369 -1.60833,3.25554 -3.34628,6.2057 -3.8621,6.55593 -0.51582,0.35022 -3.05764,4.56897 -5.64849,9.375 -7.52503,13.9589 -18.07528,29.07455 -29.60066,42.40968 l -4.25355,4.92145 -4.75658,-2.25713 C 210.95194,238.49126 200,229.27196 200,227.55416 c 0,-0.48259 -2.54835,-5.33282 -5.66301,-10.7783 -3.11465,-5.44547 -7.05627,-14.40086 -8.75915,-19.90086 -4.11563,-13.29276 -5.02958,-14.56439 -6.15526,-8.56401 -0.49612,2.64455 -1.40964,5.122 -2.03004,5.50542 -0.6204,0.38344 -3.38586,6.85348 -6.14546,14.37786 -2.7596,7.5244 -6.13943,15.93073 -7.51074,18.68073 -3.12899,6.27484 -3.11635,8.23966 0.0935,14.53145 4.25532,8.34112 8.84234,39.06751 8.46915,56.73116 -0.17445,8.25694 -0.006,15.56944 0.37421,16.25 0.38028,0.68056 1.4262,4.04989 2.32429,7.48739 0.89809,3.4375 3.19454,11.03125 5.10324,16.875 1.90868,5.84375 3.85446,12.73437 4.32393,15.3125 l 0.85359,4.6875 -6.21465,0 c -3.41805,0 -8.71064,0.34211 -11.7613,0.76025 -5.49635,0.75336 -5.57091,0.82987 -8.22302,8.4375 -5.4549,15.64751 -12.41883,48.66259 -13.48429,63.92725 -0.98555,14.11989 1.37542,26.25179 6.94286,35.67595 l 4.0314,6.82405 0.8851,46.875 c 0.85055,45.04534 0.99051,47.04577 3.58571,51.25 3.11562,5.0473 3.41142,9.25112 0.97899,13.91294 -0.94357,1.80837 -2.38359,8.27712 -3.20002,14.375 -2.72984,20.38876 -4.11072,25.49955 -7.55175,27.94978 -4.77305,3.3987 -13.06408,5.2097 -22.32902,4.8773 -7.13214,-0.25588 -8.31479,0.006 -8.32416,1.8457 -0.0168,3.2972 -3.03641,4.49923 -11.35497,4.52014 -5.60438,0.0141 -9.07096,-0.75249 -13.125,-2.90232 z m 30.616485,-25.16619 c 1.58266,-2.08304 3.59278,-6.03735 4.46694,-8.78735 0.87414,-2.75 2.18497,-6.125 2.91293,-7.5 1.41968,-2.68149 3.41963,-36.86615 2.40835,-41.16534 -0.33437,-1.42156 -1.29044,-3.14716 -2.12456,-3.83466 -0.83414,-0.6875 -1.91236,-4.24582 -2.39607,-7.90739 -0.4837,-3.66156 -1.94938,-9.3718 -3.25707,-12.68942 -4.36202,-11.06655 -12.88341,-45.49573 -14.4277,-58.2926 C 112.66629,457.92082 110.53743,450 108.4916,450 c -1.60534,0 -0.12451,15.24081 1.5834,16.29635 0.64474,0.39848 1.18245,22.57824 1.2471,51.44108 0.10544,47.06686 0.27679,50.91566 2.36666,53.15886 1.72963,1.85655 2.41954,5.29997 2.96997,14.82351 1.60854,27.83104 3.74458,39.3594 6.10863,32.96876 0.6081,-1.64386 2.40055,-4.69316 3.98323,-6.77621 z M 111.1254,380.9375 c -0.0855,-7.07977 -0.43833,-9.33289 -1.1254,-7.1875 -1.46626,4.5784 -1.46626,17.5 0,17.5 0.74239,0 1.1994,-4.18776 1.1254,-10.3125 z M 158.75,110.625 c 0,-1.03125 -0.5625,-1.875 -1.25,-1.875 -0.6875,0 -1.25,-0.62193 -1.25,-1.38205 0,-0.76013 -1.33493,-2.96852 -2.96649,-4.90753 l -2.96649,-3.525475 -1.41805,3.112275 c -1.54136,3.38292 -1.02111,4.28118 4.81667,8.31644 3.80228,2.62826 5.03436,2.69222 5.03436,0.26134 z m -52.36511,-4.1217 c -0.77026,-0.25676 -1.09519,-0.96076 -0.72209,-1.56447 0.62257,-1.00734 -3.59524,-6.18883 -5.0378,-6.18883 -2.027648,0 -0.0892,6.44577 2.8125,9.35204 3.04986,3.05468 3.48883,3.18499 3.89268,1.15551 0.25035,-1.25809 -0.17503,-2.4975 -0.94529,-2.75425 z m 42.26922,-15.2533 0.0169,-4.375 -3.0855,3.507205 c -3.35849,3.817502 -3.98527,8.214997 -1.523,10.685575 1.25172,1.25595 1.86206,0.87059 3.06862,-1.9375 0.82838,-1.927904 1.51373,-5.47403 1.523,-7.88028 z m 8.82675,3.4375 c -0.01,-2.234375 -0.54415,-4.89271 -1.18581,-5.90741 -1.84234,-2.91337 -3.81144,3.565997 -2.17516,7.15741 1.84003,4.038651 3.38319,3.46473 3.36097,-1.25 z M 111.25,93.125 c 0,-2.40625 -0.5625,-4.375 -1.25,-4.375 -0.6875,0 -1.25,1.96875 -1.25,4.375 0,2.40625 0.5625,4.375 1.25,4.375 0.6875,0 1.25,-1.96875 1.25,-4.375 z"
       id="path3422"
       inkscape:connector-curvature="0" />
    <path
       style="fill:#faa09e"
       d="m 96.134105,637.07854 -5.509105,-2.92148 0,-34.89102 C 90.625,568.94414 90.328382,563.47469 88.359955,557.5 87.11418,553.71875 84.746597,543.3125 83.09866,534.375 81.450724,525.4375 79.00569,512.5 77.665252,505.625 72.498682,479.12606 71.346746,466.57254 72.121205,445.20733 72.841999,425.32255 71.26879,408.4317 68.538786,406.74446 67.967454,406.39136 67.5,402.02021 67.5,397.0308 c 0,-9.13974 -0.841766,-15.43971 -4.55014,-34.05435 L 60.928085,352.82791 54.82712,350.16395 C 51.47159,348.69877 48.410994,347.5 48.025797,347.5 c -0.385197,0 -3.16127,-1.69315 -6.169048,-3.76256 l -5.468689,-3.76255 1.810327,-4.33273 c 0.995679,-2.383 2.951967,-9.2289 4.347303,-15.21311 2.287192,-9.80915 5.245726,-17.7034 8.593125,-22.92905 0.660589,-1.03125 3.238455,-8.625 5.728592,-16.875 2.490137,-8.25 5.599057,-18.0725 6.90871,-21.82779 2.096443,-6.01131 2.162515,-7.06941 0.552535,-8.84842 C 63.322894,248.83744 62.5,247.51085 62.5,247.00084 62.5,245.96675 52.749095,233.86185 50.32558,231.88735 48.567386,230.4549 39.418399,207.5115 37.384608,199.43459 36.409095,195.56047 34.556367,192.8637 30.595896,189.55316 27.600025,187.04892 24.778499,185 24.32584,185 23.87318,185 21.730313,184.1865 19.563911,183.19221 17.39751,182.19794 12.25,180.05664 8.125,178.43379 l -7.5,-2.95067 -0.3753959,-6.42153 c -0.33172499,-5.6745 -0.0133137,-6.65878 2.7370683,-8.4609 1.7561253,-1.15065 2.823232,-2.79309 2.4487475,-3.76898 -0.4034908,-1.05149 0.973837,-2.70076 3.5129317,-4.20655 7.1531824,-4.24212 7.5422534,-4.84591 5.3140164,-8.24664 -1.331352,-2.03188 -1.710002,-4.27133 -1.151872,-6.81248 0.916865,-4.17447 6.372001,-9.23942 8.598925,-7.98388 6.530163,3.68169 7.690451,9.8816 2.770123,14.80193 -3.569183,3.56918 -3.146097,6.54573 1.423441,10.01436 7.192456,5.45962 15.118516,14.80257 17.785765,20.9652 10.079774,23.28915 14.743739,31.70386 16.563604,29.884 0.722081,-0.72209 1.638461,-15.1787 2.167047,-34.1869 1.178017,-42.36191 2.03343,-44.48311 19.729203,-48.92304 6.372112,-1.59878 11.031715,-3.52736 16.502159,-6.83014 0.289168,-0.17459 -0.653509,-1.58084 -2.094839,-3.125 -1.44133,-1.54416 -3.032529,-4.49507 -3.535997,-6.55757 -0.503468,-2.0625 -1.756769,-5.04906 -2.785113,-6.63681 -1.888034,-2.915089 -3.739754,-25.409798 -1.94385,-23.613894 0.914635,0.914637 4.155939,-7.037125 4.190216,-10.279689 0.01338,-1.264888 -0.818851,-0.993441 -2.874244,0.9375 -3.443582,3.235078 -7.758233,3.718124 -6.615672,0.740659 C 83.408569,65.685286 83.75,64.52709 83.75,64.198995 c 0,-0.328096 0.5625,-0.248894 1.25,0.176005 0.6875,0.424899 1.25,-0.144584 1.25,-1.265515 0,-1.120931 0.84375,-2.881806 1.875,-3.913056 2.870436,-2.870437 2.23375,-4.125706 -1.276305,-2.516323 -1.733218,0.794691 -4.123843,3.539758 -5.3125,6.100146 -3.102624,6.683107 -4.507246,5.799019 -3.562173,-2.242078 0.622899,-5.299892 0.456097,-6.738019 -0.698732,-6.024295 -0.834326,0.515641 -0.355778,-0.710912 1.063442,-2.725674 1.419221,-2.014762 3.455269,-6.475705 4.524554,-9.913205 3.785832,-12.170569 5.510063,-15.742376 9.672483,-20.036904 3.270151,-3.37394 3.87522,-4.677107 2.711797,-5.84053 C 92.201906,12.951906 93.653155,10.160369 99.6875,7.4571704 107.882,3.7862877 123.05447,0 129.56997,0 c 5.59847,0 19.18273,4.0750377 23.52067,7.055779 1.35608,0.9318215 3.32483,1.6952268 4.375,1.6964561 1.05015,0.00123 3.551,2.6006249 5.55745,5.7764339 2.78121,4.40211 3.34271,6.258017 2.36297,7.810265 -0.92862,1.471266 -0.64028,3.910772 1.03941,8.794253 1.27849,3.717004 2.32453,8.394609 2.32453,10.394678 0,2.000069 0.64464,4.840999 1.43252,6.313179 2.17893,4.071367 2.19789,10.849971 0.0364,13.011465 -1.51921,1.519206 -1.60849,2.386961 -0.43834,4.26066 3.24105,5.189742 0.33698,14.562821 -3.99676,12.899808 -1.67251,-0.641808 -2.0338,0.120687 -2.0338,4.292299 0,4.884722 -2.77268,17.602114 -4.41811,20.264494 -0.43842,0.70936 -0.12,2.10562 0.7076,3.1028 0.82758,0.99719 1.24488,3.17218 0.92733,4.83333 -0.74609,3.90301 2.95963,5.71055 14.35122,7.00008 16.26257,1.84091 21.61336,9.5199 27.25151,39.10903 3.60935,18.94195 10.09374,37.03616 15.9194,44.42197 l 2.29688,2.91197 4.91958,-6.02216 c 2.70578,-3.31218 5.76334,-6.87283 6.79459,-7.91254 5.29244,-5.33586 24.19206,-31.9285 30.07986,-42.32374 2.97703,-5.2561 3.75779,-5.78959 10.9826,-7.50433 6.16454,-1.4631 8.09247,-1.52619 9.29514,-0.30413 1.19377,1.21302 0.80166,2.16205 -1.83852,4.44977 -3.32332,2.87967 -3.32939,2.91464 -0.625,3.59942 1.50201,0.38032 6.93494,2.14342 12.07321,3.918 5.28714,1.826 10.71292,2.93973 12.5,2.56585 4.17882,-0.87429 6.34944,0.68473 5.49619,3.94757 -0.83944,3.21 -8.30453,5.38734 -18.47073,5.38734 -7.4701,0 -18.49391,3.66841 -22.61775,7.52655 -1.375,1.28641 -3.90625,5.04108 -5.625,8.34369 -1.71875,3.30262 -3.48989,6.28601 -3.93586,6.62976 -0.44598,0.34375 -2.62596,4 -4.84441,8.125 -4.44919,8.27285 -11.34593,19.6487 -12.50415,20.625 -0.4078,0.34375 -3.37353,4.28125 -6.5905,8.75 -3.21698,4.46875 -8.04215,10.63634 -10.7226,13.70575 l -4.87355,5.58075 -5.65533,-2.90864 c -9.30923,-4.78791 -12.62175,-8.9118 -23.19624,-28.87786 -2.00265,-3.78125 -4.8295,-10.8125 -6.2819,-15.625 -3.60786,-11.9545 -4.61165,-13.23737 -5.72289,-7.31401 -0.49611,2.64455 -1.40963,5.122 -2.03003,5.50542 -0.6204,0.38344 -3.38587,6.85348 -6.14547,14.37786 -2.7596,7.5244 -6.13942,15.93073 -7.51073,18.68073 -3.12899,6.27484 -3.11635,8.23966 0.0935,14.53145 4.25532,8.34112 8.84233,39.06751 8.46915,56.73116 -0.17445,8.25694 0.0166,15.56944 0.42471,16.25 0.40804,0.68056 1.46132,4.61239 2.34064,8.73739 0.8793,4.125 2.03513,8.08017 2.56851,8.78927 1.17485,1.56192 7.36717,22.65965 7.36717,25.10057 0,1.24222 -1.72599,1.73516 -6.07553,1.73516 -3.34154,0 -8.60777,0.34709 -11.70273,0.77129 l -5.62718,0.7713 -3.28958,10.1662 c -5.76516,17.8168 -11.65246,46.26493 -12.71001,61.41621 -0.98555,14.11989 1.37542,26.25179 6.94286,35.67595 l 4.0314,6.82405 0.8851,46.875 c 0.85055,45.04534 0.99051,47.04577 3.58571,51.25 3.13045,5.07132 3.40152,8.76685 0.99019,13.49957 -0.94589,1.85649 -2.38936,8.43793 -3.20773,14.62543 -2.71227,20.507 -4.12367,25.81582 -7.24095,27.23615 -1.55735,0.70957 -2.83155,1.69558 -2.83155,2.1911 0,1.74052 -11.80923,3.8498 -19.92408,3.5587 -7.02444,-0.25199 -8.20248,0.0134 -8.21184,1.84978 -0.0168,3.29719 -3.03641,4.49922 -11.35497,4.52013 -5.60438,0.0141 -9.07097,-0.75248 -13.125,-2.90232 z m 30.616485,-25.16619 c 1.58266,-2.08304 3.59278,-6.03735 4.46694,-8.78735 0.87414,-2.75 2.18497,-6.125 2.91293,-7.5 1.43039,-2.70174 3.41828,-36.91758 2.39165,-41.16534 -0.34357,-1.42156 -1.3203,-3.42841 -2.17048,-4.45966 -0.85021,-1.03125 -1.94645,-4.6544 -2.43614,-8.05145 -0.48969,-3.39704 -1.9347,-8.82603 -3.21117,-12.06443 -4.31316,-10.9426 -12.83574,-45.42718 -14.37091,-58.14853 C 112.66629,457.92082 110.53743,450 108.4916,450 c -1.642,0 -0.10593,15.43084 1.59687,16.04166 0.68954,0.24737 1.16153,21.10396 1.16153,51.3268 0,48.06737 0.13099,51.05074 2.34587,53.42814 1.83968,1.97466 2.50058,5.19477 3.06286,14.9232 1.60854,27.83104 3.74458,39.3594 6.10863,32.96876 0.6081,-1.64386 2.40055,-4.69316 3.98323,-6.77621 z M 111.1254,380.9375 c -0.0855,-7.07977 -0.43833,-9.33289 -1.1254,-7.1875 -1.46626,4.5784 -1.46626,17.5 0,17.5 0.74239,0 1.1994,-4.18776 1.1254,-10.3125 z m 47.61246,-270 c -0.006,-0.85937 -1.89344,-3.92869 -4.19282,-6.82071 l -4.1807,-5.258205 -1.60089,2.991275 c -1.75474,3.27877 -1.17205,4.28053 4.95219,8.5138 3.67171,2.53801 5.0387,2.6942 5.02222,0.57384 z m -52.35297,-4.4342 c -0.77026,-0.25676 -1.09519,-0.96076 -0.72209,-1.56447 0.62257,-1.00734 -3.59524,-6.18883 -5.0378,-6.18883 -2.027648,0 -0.0892,6.44577 2.8125,9.35204 3.04986,3.05468 3.48883,3.18499 3.89268,1.15551 0.25035,-1.25809 -0.17503,-2.4975 -0.94529,-2.75425 z m 42.26922,-15.2533 0.0169,-4.375 -3.0855,3.507205 c -3.35849,3.817502 -3.98527,8.214997 -1.523,10.685575 1.25172,1.25595 1.86206,0.87059 3.06862,-1.9375 0.82838,-1.927904 1.51373,-5.47403 1.523,-7.88028 z m 8.82675,3.4375 c -0.01,-2.234375 -0.54415,-4.89271 -1.18581,-5.90741 -1.84234,-2.91337 -3.81144,3.565997 -2.17516,7.15741 1.84003,4.038651 3.38319,3.46473 3.36097,-1.25 z M 111.25,93.125 c 0,-2.40625 -0.5625,-4.375 -1.25,-4.375 -0.6875,0 -1.25,1.96875 -1.25,4.375 0,2.40625 0.5625,4.375 1.25,4.375 0.6875,0 1.25,-1.96875 1.25,-4.375 z"
       id="path3420"
       inkscape:connector-curvature="0" />
    <path
       style="fill:#fa9491"
       d="m 96.552257,637.36331 c -3.552076,-1.75824 -5.591243,-3.7045 -6.129875,-5.85057 -0.443922,-1.76874 -0.434264,-16.4921 0.02146,-32.7186 0.768536,-27.36425 0.642922,-30.17924 -1.732981,-38.83594 -1.408868,-5.13326 -3.905189,-16.6457 -5.547383,-25.5832 -1.642192,-8.9375 -4.09946,-21.875 -5.460596,-28.75 -5.18018,-26.16472 -6.336407,-38.92159 -5.57899,-61.55399 0.702507,-20.99165 -0.682121,-35.5324 -3.552464,-37.30637 C 67.982144,406.40044 67.5,402.02021 67.5,397.0308 c 0,-9.13974 -0.841766,-15.43971 -4.55014,-34.05435 L 60.928085,352.82791 54.82712,350.16395 C 51.47159,348.69877 48.410994,347.5 48.025797,347.5 c -0.385197,0 -3.16127,-1.69315 -6.169048,-3.76256 l -5.468689,-3.76255 1.810327,-4.33273 c 0.995679,-2.383 2.951967,-9.2289 4.347303,-15.21311 2.287192,-9.80915 5.245726,-17.7034 8.593125,-22.92905 0.660589,-1.03125 3.238455,-8.625 5.728592,-16.875 2.490137,-8.25 5.583079,-18.02914 6.873204,-21.7314 2.197365,-6.30578 2.214853,-6.93807 0.276576,-10 C 61.411705,244.77768 52.383929,233.56434 50.32558,231.88735 48.567386,230.4549 39.418399,207.5115 37.384607,199.43459 36.409095,195.56048 34.556367,192.8637 30.595896,189.55316 27.600025,187.04892 24.803252,185 24.380849,185 23.958444,185 21.161348,183.88321 18.165077,182.51826 15.168809,181.1533 9.9965444,179.029 6.6711576,177.79759 L 0.625,175.55868 0.25112455,169.1432 c -0.32061209,-5.5015 0.0336473,-6.7009 2.48667855,-8.41908 1.5733046,-1.10198 2.8665487,-2.98135 2.8738754,-4.17636 0.00745,-1.21542 1.89258,-3.11086 4.278456,-4.30186 5.6018215,-2.79635 6.5389375,-4.56056 4.2655255,-8.03023 -1.233517,-1.88258 -1.591684,-4.16135 -1.045164,-6.64963 0.916865,-4.17447 6.372001,-9.23942 8.598925,-7.98388 6.530163,3.68169 7.690451,9.8816 2.770123,14.80193 -3.569183,3.56918 -3.146097,6.54573 1.423441,10.01436 7.192456,5.45962 15.118516,14.80257 17.785765,20.9652 10.079774,23.28915 14.743739,31.70386 16.563604,29.884 0.722081,-0.72209 1.638461,-15.1787 2.167047,-34.1869 1.193902,-42.93315 1.898952,-44.57635 21.123418,-49.23048 5.0423,-1.22071 9.923996,-2.97566 10.848214,-3.89988 0.924217,-0.92421 2.283075,-1.68039 3.019681,-1.68039 2.067526,0 1.591044,-1.88469 -1.089863,-4.31088 -1.336032,-1.20909 -2.81605,-3.9599 -3.288928,-6.1129 -0.472879,-2.153 -1.716365,-5.22187 -2.763304,-6.819696 -1.91511,-2.922827 -3.804641,-25.459213 -1.981754,-23.636326 0.890895,0.890896 5.494808,-10.520392 4.64816,-11.520961 -0.244685,-0.289168 -1.820294,0.76637 -3.501352,2.345643 -3.279597,3.081021 -7.404193,2.735742 -6.156618,-0.515383 0.404199,-1.053326 1.238465,-1.603922 1.853926,-1.223546 0.61546,0.380375 1.119019,-0.225535 1.119019,-1.346466 0,-1.120931 0.84375,-2.881806 1.875,-3.913056 2.870436,-2.870437 2.23375,-4.125706 -1.276305,-2.516323 -1.733218,0.794691 -4.123843,3.539758 -5.3125,6.100146 -3.102624,6.683107 -4.507246,5.799019 -3.562173,-2.242078 0.622899,-5.299892 0.456097,-6.738019 -0.698732,-6.024295 -0.834326,0.515641 -0.355778,-0.710912 1.063442,-2.725674 1.419221,-2.014762 3.455269,-6.475705 4.524554,-9.913205 3.785832,-12.170569 5.510063,-15.742376 9.672483,-20.036904 3.270151,-3.37394 3.87522,-4.677107 2.711797,-5.84053 C 92.201906,12.951906 93.653155,10.160369 99.6875,7.4571704 107.882,3.7862877 123.05447,0 129.56997,0 c 5.59847,0 19.18273,4.0750377 23.52067,7.055779 1.35608,0.9318215 3.32483,1.6952268 4.375,1.6964561 1.05015,0.00123 3.54998,2.5990239 5.5552,5.7728759 2.8515,4.513373 3.35593,6.234826 2.31528,7.90117 -0.99026,1.58566 -0.72386,3.85325 1.04168,8.86664 1.30471,3.704861 2.3722,8.341559 2.3722,10.303772 0,1.962213 0.64464,4.772171 1.43252,6.244351 2.17893,4.071367 2.19789,10.849971 0.0364,13.011465 -1.51921,1.519206 -1.60849,2.386961 -0.43834,4.26066 3.24105,5.189742 0.33698,14.562821 -3.99676,12.899809 -1.68589,-0.646932 -2.03546,0.151286 -2.04338,4.665786 -0.005,2.99543 -1.11087,9.068192 -2.45695,13.495027 -1.78766,5.879099 -2.0824,8.488599 -1.09336,9.680319 0.74473,0.89734 1.09424,2.99064 0.77669,4.65179 -0.7461,3.90301 2.95962,5.71055 14.35121,7.00007 16.1333,1.82629 21.65819,9.75513 27.25151,39.10904 2.82235,14.81177 6.2725,25.89748 11.43693,36.74805 5.33841,11.21616 6.0396,11.48865 11.72115,4.55506 2.6434,-3.22591 6.16396,-7.31156 7.82348,-9.07921 5.90272,-6.28734 23.77845,-31.54941 29.02876,-41.02359 3.0007,-5.41476 3.70034,-5.90076 10.9826,-7.62915 6.16454,-1.4631 8.09246,-1.52618 9.29513,-0.30412 1.19392,1.21316 0.76973,2.18952 -1.98979,4.5799 -2.92387,2.53274 -3.12138,3.03805 -1.1875,3.03805 1.27583,0 2.85407,0.51005 3.5072,1.13344 2.11463,2.01835 19.12037,6.46107 22.07195,5.76625 4.30837,-1.01422 6.57703,0.9188 4.85489,4.13665 -1.72574,3.2246 -8.50112,5.19753 -17.88057,5.20668 -7.71459,0.007 -18.6757,3.61997 -22.85878,7.53353 -1.375,1.28641 -3.90625,5.04107 -5.625,8.34369 -1.71875,3.30262 -3.48988,6.28601 -3.93586,6.62976 -0.44597,0.34375 -2.62596,4 -4.84441,8.125 -4.33261,8.05609 -11.31448,19.60392 -12.46995,20.625 -0.389,0.34375 -2.91431,3.71875 -5.61181,7.5 -5.9922,8.39961 -14.01215,17.7863 -16.30907,19.08839 -1.05735,0.5994 -4.22378,-0.65143 -8.38085,-3.31068 -7.57642,-4.84657 -8.98358,-6.32674 -13.67988,-14.38955 -7.583,-13.0188 -10.86613,-19.95769 -13.3727,-28.26316 -3.56518,-11.81308 -4.64044,-13.29768 -5.77893,-7.97893 -0.49787,2.32592 -1.41292,4.8613 -2.03346,5.63422 -0.62052,0.7729 -3.96444,8.92915 -7.43093,18.125 -3.46647,9.19583 -6.83131,17.25408 -7.47741,17.90721 -1.90704,1.92776 -1.35433,6.68505 1.40508,12.09395 4.25532,8.34112 8.84233,39.06751 8.46915,56.73116 -0.17445,8.25694 0.0183,15.56944 0.42811,16.25 0.40991,0.68056 1.43122,4.61239 2.26959,8.73739 0.83835,4.125 1.99265,8.08017 2.56511,8.78928 1.20675,1.49481 7.43822,22.52312 7.43822,25.10056 0,1.24222 -1.726,1.73516 -6.07553,1.73516 -3.34154,0 -8.57618,0.34275 -11.6325,0.76166 l -5.55698,0.76168 -3.27129,9.55082 c -1.79921,5.25296 -4.1321,13.48834 -5.18418,18.30084 -1.05209,4.8125 -3.12618,14.30409 -4.6091,21.09242 -1.83229,8.38763 -0.55257,17.83679 -1.37082,28 -1.24808,15.50206 -2.93357,-8.13215 1.03897,6.34357 l 8.73066,31.81401 2.8851,45.875 c 2.82016,44.84237 -1.50949,47.04578 1.08571,51.25 3.13045,5.07132 3.40151,8.76685 0.99019,13.49958 -0.94589,1.85648 -2.38936,8.43792 -3.20773,14.62542 -3.13403,23.69585 -3.6901,25.30691 -10.02608,29.04813 -4.88269,2.88307 -7.23597,3.38464 -16.92142,3.60658 -9.44579,0.21645 -11.25175,0.58393 -11.26092,2.29139 -0.0171,3.1759 -3.10982,4.3891 -11.23908,4.40877 -5.14046,0.0125 -9.17456,-0.81073 -12.822733,-2.61656 z m 30.114073,-25.45096 c 3.45522,-4.68478 5.83367,-10.03274 5.83367,-13.117 0,-1.28536 0.63644,-2.54916 1.41431,-2.80845 0.91524,-0.30509 1.73834,-7.2467 2.33258,-19.67189 0.94963,-19.85621 0.71496,-23.1377 -1.88194,-26.31501 -0.84288,-1.03125 -1.90755,-4.40625 -2.36596,-7.5 -0.45842,-3.09375 -2.23095,-9.84375 -3.93899,-15 -5.98435,-18.06571 -12.86194,-45.7112 -13.68278,-55 -0.99065,-11.21029 -3.91272,-22.5 -5.8236,-22.5 -1.69754,0 -0.22303,15.41108 1.53485,16.04166 0.6894,0.24731 1.16153,21.00035 1.16153,51.05704 0,47.5315 0.14411,50.84406 2.34736,53.95834 1.72782,2.44224 2.53787,6.45217 3.06914,15.19296 1.68572,27.7341 3.76042,38.76537 6.10085,32.43856 0.60811,-1.64386 2.36265,-4.69316 3.89898,-6.77621 z M 111.1254,380.86373 C 111.0397,373.8214 110.68836,371.60059 110,373.75 c -1.49753,4.67604 -1.49753,19.05052 0,18.125 0.6875,-0.4249 1.19393,-5.37998 1.1254,-11.01127 z M 158.73786,110.9375 c -0.006,-0.85937 -1.96019,-4.01303 -4.34114,-7.00813 l -4.32901,-5.445624 -1.44964,3.181624 c -1.57632,3.45966 -0.96023,4.51095 5.09757,8.69828 3.67171,2.53801 5.0387,2.69421 5.02222,0.57385 z m -52.35297,-4.4342 c -0.77026,-0.25676 -1.09519,-0.96076 -0.72209,-1.56447 0.62257,-1.00734 -3.59524,-6.18883 -5.0378,-6.18883 -2.027648,0 -0.0892,6.44577 2.8125,9.35204 3.04986,3.05468 3.48883,3.18499 3.89268,1.15551 0.25035,-1.25809 -0.17503,-2.4975 -0.94529,-2.75425 z m 42.26922,-15.2533 0.0169,-4.375 -3.0855,3.507205 c -3.35849,3.817502 -3.98527,8.214997 -1.523,10.685575 1.25172,1.25595 1.86206,0.87059 3.06862,-1.9375 0.82838,-1.927904 1.51373,-5.47403 1.523,-7.88028 z M 111.25,93.75 c 0,-2.75 -0.5625,-5 -1.25,-5 -1.38295,0 -1.73949,7.843845 -0.41667,9.166666 1.45975,1.459745 1.66667,0.94244 1.66667,-4.166666 z m 46.23086,0.9375 c -0.01,-2.234375 -0.54074,-4.88719 -1.17824,-5.895145 -0.92911,-1.469039 -1.41831,-1.150829 -2.46563,1.603836 -0.95659,2.516033 -0.89528,4.095027 0.22891,5.895145 2.23699,3.58198 3.43674,3.018518 3.41496,-1.603836 z m 12.12303,-24.921875 c -0.39903,-0.997166 -0.69523,-0.70097 -0.7552,0.755209 -0.0542,1.317707 0.24115,2.055988 0.65652,1.640625 0.41536,-0.415365 0.45976,-1.49349 0.0986,-2.395834 z"
       id="path3418"
       inkscape:connector-curvature="0"
       sodipodi:nodetypes="sssssssssscssscsssssssssssscssssssssssssssssssssssssssssssssssssssssssssscsssssssssssssssscsssssssssssssssscssssscssssscssssssccsssssssssscssssssssscscsscccssscccsssccsssscssscccccc" />
  </g>
</svg>
