<?xml version="1.0" encoding="UTF-8" standalone="no"?>
<!-- Created with Inkscape (http://www.inkscape.org/) -->

<svg
   xmlns:dc="http://purl.org/dc/elements/1.1/"
   xmlns:cc="http://creativecommons.org/ns#"
   xmlns:rdf="http://www.w3.org/1999/02/22-rdf-syntax-ns#"
   xmlns:svg="http://www.w3.org/2000/svg"
   xmlns="http://www.w3.org/2000/svg"
   xmlns:sodipodi="http://sodipodi.sourceforge.net/DTD/sodipodi-0.dtd"
   xmlns:inkscape="http://www.inkscape.org/namespaces/inkscape"
   id="svg3406"
   version="1.1"
   inkscape:version="0.91 r13725"
   width="239.98779"
   height="635.08899"
   viewBox="0 0 239.98779 635.08899"
   sodipodi:docname="silhouette-femme-45.svg">
  <title
     id="title3340">Silhouette Femme 45</title>
  <metadata
     id="metadata3412">
    <rdf:RDF>
      <cc:Work
         rdf:about="">
        <dc:format>image/svg+xml</dc:format>
        <dc:type
           rdf:resource="http://purl.org/dc/dcmitype/StillImage" />
        <dc:title>Silhouette Femme 45</dc:title>
        <cc:license
           rdf:resource="http://creativecommons.org/publicdomain/zero/1.0/" />
        <dc:date>2017-03-05</dc:date>
        <dc:creator>
          <cc:Agent>
            <dc:title>JLouis</dc:title>
          </cc:Agent>
        </dc:creator>
        <dc:rights>
          <cc:Agent>
            <dc:title>Domaine pubic</dc:title>
          </cc:Agent>
        </dc:rights>
        <dc:publisher>
          <cc:Agent>
            <dc:title>inkscape</dc:title>
          </cc:Agent>
        </dc:publisher>
        <dc:subject>
          <rdf:Bag>
            <rdf:li>Silhouette</rdf:li>
            <rdf:li>woman</rdf:li>
            <rdf:li>femme</rdf:li>
          </rdf:Bag>
        </dc:subject>
        <dc:description>Woman in silhouette - Femme en silhouette</dc:description>
      </cc:Work>
      <cc:License
         rdf:about="http://creativecommons.org/publicdomain/zero/1.0/">
        <cc:permits
           rdf:resource="http://creativecommons.org/ns#Reproduction" />
        <cc:permits
           rdf:resource="http://creativecommons.org/ns#Distribution" />
        <cc:permits
           rdf:resource="http://creativecommons.org/ns#DerivativeWorks" />
      </cc:License>
    </rdf:RDF>
  </metadata>
  <defs
     id="defs3410" />
  <sodipodi:namedview
     pagecolor="#ffffff"
     bordercolor="#666666"
     borderopacity="1"
     objecttolerance="10"
     gridtolerance="10"
     guidetolerance="10"
     inkscape:pageopacity="0"
     inkscape:pageshadow="2"
     inkscape:window-width="1238"
     inkscape:window-height="756"
     id="namedview3408"
     showgrid="false"
     fit-margin-top="0"
     fit-margin-left="0"
     fit-margin-right="0"
     fit-margin-bottom="0"
     inkscape:zoom="0.88976378"
     inkscape:cx="128.36615"
     inkscape:cy="318.61252"
     inkscape:window-x="0"
     inkscape:window-y="0"
     inkscape:window-maximized="1"
     inkscape:current-layer="svg3406" />
  <g
     id="g3416"
     transform="translate(-1.25,0.10034859)">
    <path
       style="fill:#f6e9e7"
       d="m 129.37451,633.34554 c -7.31625,-3.34059 -7.47541,-3.98287 -7.76899,-31.34983 -0.14821,-13.81639 -0.54054,-26.80821 -0.87185,-28.87071 -0.33131,-2.0625 -0.90244,-6 -1.26919,-8.75 -1.07471,-8.05855 -2.13376,-12.18183 -4.49481,-17.5 -1.22089,-2.75 -2.79315,-6.6875 -3.49392,-8.75 -0.70076,-2.0625 -3.75725,-10.5 -6.79219,-18.75 -3.03494,-8.25 -7.671171,-22.03125 -10.302741,-30.625 -4.605975,-15.04144 -4.774928,-16.23191 -4.52372,-31.875 0.33787,-21.03972 -3.200005,-38.79467 -13.341408,-66.95433 l -7.399306,-20.54567 -11.709207,0 -11.709207,0 -0.901949,-5 c -0.496071,-2.75 -0.934365,-14.88695 -0.973984,-26.97101 l -0.07204,-21.971 -3.839895,0.56357 C 35.580714,316.63197 33.75,319.92477 33.75,327.07637 c 0,2.45473 -1.941754,8.50549 -4.375,13.63307 -4.659741,9.81947 -5.558235,16.75245 -2.5,19.29056 2.187139,1.81516 2.500057,5 0.491264,5 -0.761055,0 -1.051788,0.86504 -0.646074,1.92231 0.419744,1.09384 -0.06135,2.22894 -1.116264,2.63374 -1.019658,0.39129 -1.853926,1.55759 -1.853926,2.5918 0,3.71051 -13.465001,-0.57228 -19.6875,-6.26196 -2.4435335,-2.2343 -2.8120841,-3.81398 -2.8093304,-12.04128 0.00311,-9.30047 0.1158075,-9.63706 6.3092433,-18.84461 7.8682181,-11.69737 9.9229711,-16.41991 9.9920261,-22.96515 0.02994,-2.83792 0.527685,-7.40985 1.106097,-10.15985 0.578413,-2.75 3.372145,-16.53125 6.208293,-30.625 2.836149,-14.09375 6.399705,-29.5625 7.919012,-34.375 2.414386,-7.64771 2.689954,-10.71838 2.187458,-24.375 -0.316208,-8.59375 -0.570879,-28.84375 -0.565937,-45 0.01025,-33.44461 0.600935,-36.16055 9.165227,-42.13977 5.952473,-4.15576 7.019776,-6.93369 7.102162,-18.48523 0.06254,-8.767994 1.934719,-30.178175 4.481488,-51.25 C 57.082791,39.70136 61.715284,22.382185 65.633731,16.461011 72.473562,6.125329 86.720349,-2.0035575 92.82851,0.94430085 94.36658,1.6865882 97.451593,2.8729884 99.684095,3.5807456 105.67105,5.4787564 111.71653,10.54916 116.73373,17.880452 c 6.62639,9.682692 14.69786,38.713735 14.81222,53.275824 0.0466,5.938164 -0.48737,11.904127 -1.18668,13.257693 -1.45161,2.80974 -0.75101,5.975677 1.07294,4.84842 2.03117,-1.255333 8.12885,1.956795 9.8619,5.195042 1.50472,2.811568 2.3478,3.043098 11.10462,3.04954 5.21195,0.0039 11.54409,0.581303 14.07144,1.283263 8.35448,2.320426 19.28022,11.988836 40.4597,35.803656 32.61198,36.66984 35.02458,40.20578 33.96596,49.78111 -0.64039,5.79244 -11.17832,23.32868 -25.22112,41.97064 -4.99853,6.63561 -10.08411,14.6724 -11.3013,17.85955 -1.94365,5.08937 -2.66345,5.79481 -5.91277,5.79481 -2.03484,0 -5.39729,1.20879 -7.47211,2.68619 -4.37015,3.11182 -8.22598,3.25329 -15.96827,0.58585 -3.0512,-1.05123 -5.78371,-1.67525 -6.07223,-1.38673 -0.28853,0.28853 0.35367,4.06049 1.42711,8.38214 5.33782,21.49003 5.87537,62.79321 1.18411,90.98255 l -2.18425,13.125 -5,0.625 -5,0.625 -3.49541,10.625 c -11.63939,35.38024 -14.22138,51.26416 -10.05801,61.875 1.07902,2.75 3.22008,8.4971 4.75792,12.77135 1.53784,4.27424 3.36263,8.49299 4.05508,9.375 2.17962,2.7763 4.05206,19.54393 4.78548,42.85365 0.38937,12.375 0.90787,26.21063 1.15223,30.74584 0.59769,11.09276 5.00571,24.7465 15.2352,47.19054 2.30281,5.0525 3.91369,9.6285 3.57971,10.16888 -0.33397,0.54039 1.35478,5.22903 3.75279,10.4192 5.55941,12.03263 5.83089,18.91069 0.97422,24.6825 -3.96435,4.71138 -11.82843,8.60168 -17.4666,8.64059 -4.15745,0.0286 -6.68253,-2.5547 -10.35837,-10.59755 -1.47753,-3.23289 -1.78044,-3.40526 -2.19666,-1.25 -0.95828,4.96208 -3.11038,9.21029 -5.04117,9.95121 -4.60785,1.76819 -16.05117,1.92483 -19.6769,0.26933 z M 191.8883,220.625 c 2.04736,-2.75 4.01612,-5.28125 4.37502,-5.625 1.10629,-1.05958 8.96617,-17.83774 10.83312,-23.125 0.97102,-2.75 1.46852,-6.18528 1.10554,-7.63394 -0.5438,-2.17031 -8.85822,-10.59242 -13.82764,-14.00676 -0.68788,-0.47261 -4.42733,-3.2248 -8.30991,-6.11596 -8.79637,-6.5502 -12.31843,-7.56702 -15.19623,-4.38708 -3.6709,4.05631 -12.16859,40.4752 -12.3932,53.11411 -0.22519,12.67163 -0.23941,12.6481 11.41434,18.8746 l 7.95577,4.25072 5.16035,-5.17285 c 2.83819,-2.84507 6.83547,-7.42284 8.88284,-10.17284 z"
       id="path3430"
       inkscape:connector-curvature="0" />
    <path
       style="fill:#f0e1de"
       d="m 128.75,632.88 c -6.80547,-3.50774 -7.80895,-8.24779 -7.19909,-34.0056 0.28324,-11.96283 0.0331,-24.61908 -0.55599,-28.125 -1.86123,-11.07795 -3.76703,-18.7149 -5.95786,-23.8744 -3.26148,-7.68089 -4.63999,-11.55061 -15.362431,-43.125 l -9.975545,-29.375 0.197905,-17.5 C 90.148492,434.63565 86.535834,416.41485 76.389771,388.75 l -7.105767,-19.375 -11.816745,0 -11.816746,0 -0.857603,-5.625 C 44.321229,360.65625 43.893614,348.02813 43.842654,335.6875 43.77059,318.23611 43.416666,313.58334 42.25,314.75 c -0.825,0.825 -2.479303,1.5 -3.676229,1.5 -2.985969,0 -3.966182,1.98074 -4.9481,9.99871 -0.463155,3.78196 -2.593404,10.62353 -4.733886,15.20346 C 24.674564,350.47569 23.9068,357.53661 26.875,360 c 2.187139,1.81516 2.500057,5 0.491264,5 -0.761055,0 -1.102678,0.73242 -0.75916,1.62761 0.343516,0.8952 -0.716574,2.91844 -2.355754,4.49609 -2.885112,2.77683 -3.159445,2.80744 -8.586791,0.95815 C 12.581004,371.03119 8.0762746,368.65994 5.6540481,366.81241 1.2853238,363.48023 1.25,363.37584 1.25,353.79768 c 0,-9.58897 0.043892,-9.7181 6.359653,-18.71143 C 15.200654,324.27706 17.5,319.1403 17.5,312.99111 c 0,-5.27217 11.764815,-64.44599 14.355053,-72.202 3.894446,-11.66124 4.567003,-20.24624 3.054456,-38.98922 -0.804718,-9.97179 -1.208209,-28.378 -0.896649,-40.9027 0.652161,-26.21684 1.70122,-30.10264 9.524606,-35.27992 C 49.797474,121.4746 51.33993,117.73875 51.017734,107.5 50.50696,91.268681 55.743925,46.650672 59.980883,31.13556 62.907845,20.41746 64.891921,16.788301 71.458106,10.142077 79.083638,2.4235949 90.811021,-2.4940963 93.029981,1.096256 93.402619,1.6991969 96.12065,2.800149 99.07005,3.5428165 115.60372,7.7060427 130.50995,39.133915 130.59067,70 c 0.0189,7.21875 -0.4555,14.699646 -1.05417,16.624214 -1.03329,3.321711 -0.92275,3.457611 2.1791,2.679099 2.66289,-0.668342 4.10194,0.01422 7.776,3.688286 4.39184,4.391837 4.75564,4.508426 14.0709,4.509387 18.23312,0.0019 25.5046,5.427794 60.30485,44.999014 21.5531,24.50794 27.3465,33.13703 27.37044,40.76738 0.0125,3.98551 -15.47247,30.26547 -24.17209,41.02312 -6.79363,8.40076 -11.6151,16.06079 -13.23194,21.022 -1.35454,4.15634 -1.9933,4.6875 -5.63712,4.6875 -2.26023,0 -5.5397,1.125 -7.28773,2.5 -3.79459,2.98483 -8.68844,3.17254 -15.94674,0.61165 -2.94368,-1.03859 -5.57037,-1.67011 -5.83708,-1.4034 -0.26673,0.26673 0.78205,6.3196 2.33058,13.45085 2.51612,11.58701 2.79905,16.15631 2.6605,42.9659 -0.1185,22.93324 -0.69518,33.09171 -2.44811,43.125 l -2.29306,13.125 -5.11505,0.37473 -5.11506,0.37472 -5.80984,18.37528 c -11.50445,36.38607 -12.03965,43.30889 -4.8261,62.42612 2.61742,6.93666 5.34972,13.36294 6.07179,14.28063 2.28562,2.90488 4.08797,19.61958 4.83007,44.79352 0.93616,31.75678 1.47351,39.38831 2.96583,42.1209 0.67703,1.23976 2.33262,5.6291 3.67906,9.7541 3.87387,11.86819 6.20871,17.7296 10.25667,25.74856 2.07558,4.11169 3.47747,7.95521 3.11533,8.54118 -0.36215,0.58596 1.30596,5.37602 3.70692,10.64457 5.14493,11.28982 5.54255,17.2996 1.54279,23.31834 -3.57781,5.38379 -12.5817,10.07535 -18.42741,9.60177 -3.89486,-0.31552 -4.7802,-1.10892 -8.06718,-7.22942 l -3.69217,-6.875 -0.86828,4.21324 c -1.30897,6.35165 -4.44598,8.65128 -12.99737,9.52792 -5.88153,0.60293 -8.44411,0.28223 -11.875,-1.48616 z m 62.84534,-411.63 c 2.12556,-3.09375 4.25567,-5.90625 4.73357,-6.25 1.72695,-1.24218 11.33975,-22.57079 11.99641,-26.6173 0.53712,-3.30984 -0.0371,-4.98967 -2.84716,-8.32924 -4.38924,-5.21631 -25.56367,-20.96356 -29.52561,-21.95795 -4.78545,-1.20106 -7.11571,2.97028 -11.66574,20.8825 -4.98807,19.6367 -7.02535,33.93272 -5.95181,41.76508 0.76601,5.58862 0.8922,5.71718 10.28276,10.4766 l 9.50724,4.81855 4.80283,-4.58163 c 2.64156,-2.51988 6.54193,-7.11286 8.66751,-10.20661 z"
       id="path3428"
       inkscape:connector-curvature="0" />
    <path
       style="fill:#efd4d2"
       d="m 129.00907,632.91454 c -6.75288,-3.32818 -7.12735,-4.97391 -7.20485,-31.66454 -0.0389,-13.40625 -0.50476,-28.03125 -1.03518,-32.5 -0.96284,-8.1118 -5.07484,-22.06552 -7.16462,-24.3125 -0.60743,-0.65313 -1.10442,-1.96758 -1.10442,-2.921 0,-0.95341 -2.75239,-9.13779 -6.11642,-18.1875 -3.36403,-9.0497 -8.479344,-24.04775 -11.36737,-33.329 -5.142744,-16.52723 -5.247512,-17.22277 -5.08375,-33.75 0.134262,-13.55018 -0.444413,-19.85755 -2.937034,-32.01279 -2.631532,-12.83262 -9.992982,-35.85959 -16.45165,-51.46152 l -1.696977,-4.09933 -11.610899,0.34933 -11.6109,0.34931 -0.827993,-6.25 c -0.455396,-3.4375 -0.877271,-16.06563 -0.9375,-28.0625 C 43.774335,318.09722 43.416666,313.58334 42.25,314.75 c -0.825,0.825 -2.728145,1.5 -4.229211,1.5 -3.021762,0 -4.225877,2.84071 -4.25372,10.03526 -0.0094,2.43704 -1.974519,8.49478 -4.392069,13.53936 -4.703305,9.81415 -5.518654,16.68322 -2.460246,20.72679 2.378037,3.14405 2.321496,4.44859 -0.19281,4.44859 -1.495258,0 -1.682736,0.41609 -0.713625,1.58379 0.963803,1.16131 0.507277,2.36065 -1.711434,4.49609 -2.935634,2.82544 -3.193046,2.85532 -8.632326,1.00197 C 12.581004,371.03119 8.0762746,368.65994 5.6540481,366.81241 1.3044366,363.4948 1.25,363.33724 1.25,354.06547 c 0,-9.23256 0.1053187,-9.54234 6.3689254,-18.73361 7.8531466,-11.52376 9.8726056,-16.23151 9.9108956,-23.10421 0.0164,-2.94396 0.566374,-7.60265 1.222163,-10.35265 0.655787,-2.75 3.760612,-17.59837 6.899611,-32.99639 3.138999,-15.39801 6.174946,-28.89801 6.746549,-30 3.014281,-5.8112 3.937897,-19.40162 2.515997,-37.02131 -1.663455,-20.61299 -0.917094,-60.222 1.267266,-67.25321 1.032156,-3.32239 3.142877,-5.94148 6.951963,-8.62638 6.78006,-4.77902 8.213654,-8.14529 7.869101,-18.47771 C 50.44609,90.81526 56.705106,41.860798 61.291205,27.027382 66.478635,10.249008 85.459396,-4.1976571 94.23783,1.9509981 95.65047,2.9404491 98.121027,3.75 99.727959,3.75 c 3.900131,0 15.211021,10.796665 19.301471,18.423974 3.11106,5.801063 7.96142,21.406815 10.99982,35.391292 1.50964,6.948165 1.12076,24.172158 -0.67024,29.686883 -0.85262,2.625345 -0.64404,2.804273 2.38329,2.044461 2.72965,-0.685099 4.04549,-0.06101 7.42379,3.521029 3.98382,4.224093 4.43883,4.370432 15.2825,4.915125 17.68022,0.888104 24.06535,5.266136 49.69427,34.073426 33.0002,37.09272 37.01721,42.66277 37.07969,51.41521 0.0327,4.59486 -12.62295,25.55692 -26.76209,44.32679 -5.18612,6.88464 -9.79513,14.04961 -10.24225,15.92217 -1.17557,4.92343 -2.82435,6.52964 -6.7027,6.52964 -1.8856,0 -4.85857,1.125 -6.6066,2.5 -3.79459,2.98483 -8.68843,3.17254 -15.94673,0.61165 -2.94369,-1.03859 -5.64677,-1.59372 -6.00687,-1.23364 -0.36008,0.3601 0.28284,4.72548 1.42874,9.70085 5.36661,23.30148 5.82561,59.63678 1.12486,89.04614 l -2.19778,13.75 -5.11798,0.37642 -5.11796,0.37643 -4.48268,13.99857 c -12.6703,39.56698 -13.38753,47.44254 -6.08356,66.79943 2.61743,6.93666 5.33788,13.36294 6.04544,14.28062 2.1696,2.81388 4.0832,20.53257 4.83767,44.79353 0.9808,31.53847 1.52129,39.4246 2.88497,42.09312 0.64135,1.25503 1.85358,4.53188 2.69386,7.28188 2.71521,8.88611 10.18116,27.38717 12.72759,31.5397 1.36248,2.22184 2.13251,4.5975 1.71116,5.27925 -0.42134,0.68174 1.22662,5.55248 3.66215,10.82384 2.55385,5.52749 4.42821,11.54791 4.42821,14.2234 0,9.26231 -9.73746,17.84134 -20.47545,18.03955 -4.93654,0.0911 -5.2304,-0.13479 -8.82029,-6.78074 l -3.71361,-6.875 -0.86572,4.20076 c -1.15603,5.60935 -3.55403,7.75724 -10.06503,9.01527 -7.75307,1.49799 -9.91019,1.36065 -14.55082,-0.92649 z M 191.81974,221.25 c 6.25594,-8.08415 15.43055,-26.24263 16.45795,-32.57376 0.59404,-3.6606 0.0959,-5.18175 -2.83899,-8.66969 C 200.65109,174.3168 177.90858,157.5 175.00154,157.5 c -4.37965,0 -7.07825,5.8607 -11.62747,25.25202 -5.20901,22.20372 -6.31246,30.34613 -5.15681,38.05253 0.8186,5.45881 1.02053,5.66126 10.3713,10.39816 l 9.53644,4.83095 4.18725,-3.95432 c 2.30297,-2.17489 6.58135,-7.04809 9.50749,-10.82934 z"
       id="path3426"
       inkscape:connector-curvature="0" />
    <path
       style="fill:#ecc1bd"
       d="m 131.66582,634.16689 c -1.49003,-0.31003 -4.11233,-1.8641 -5.82733,-3.45351 -4.10607,-3.80537 -5.16533,-12.43094 -4.22908,-34.43733 0.48109,-11.30803 0.16934,-20.41716 -0.94204,-27.52605 -1.73346,-11.08791 -4.61514,-21.54844 -6.64477,-24.12058 -0.65291,-0.82743 -1.48329,-2.91067 -1.84529,-4.62942 -0.36199,-1.71875 -3.18109,-9.93331 -6.26466,-18.25457 -3.08356,-8.32128 -7.963958,-22.66503 -10.845316,-31.87501 -5.11542,-16.35093 -5.235958,-17.14296 -5.116705,-33.62042 0.09692,-13.39123 -0.51595,-20.00014 -2.968658,-32.01279 C 84.36242,411.4074 77.018412,388.4162 70.543776,372.77569 l -1.696977,-4.09933 -11.610899,0.34933 -11.6109,0.34931 -0.827993,-6.25 c -0.455396,-3.4375 -0.877271,-16.06563 -0.9375,-28.0625 C 43.774335,318.09722 43.416666,313.58334 42.25,314.75 c -0.825,0.825 -2.728145,1.5 -4.229211,1.5 -3.003507,0 -4.225494,2.8398 -4.25372,9.88532 -0.0094,2.34318 -2.254088,9.1166 -4.988222,15.05205 -4.461848,9.6861 -4.841302,11.26203 -3.703716,15.38202 0.69709,2.52465 1.809109,4.92505 2.471153,5.33421 1.804009,1.11495 1.449325,3.0964 -0.554259,3.0964 -1.142564,0 -1.529114,0.87517 -1.104211,2.5 0.461679,1.76546 0.03835,2.5 -1.440796,2.5 -1.152008,0 -1.770938,0.52364 -1.375399,1.16363 2.590207,4.19105 -11.084917,0.48426 -17.7590821,-4.81379 -3.9173275,-3.10963 -4.0624645,-3.55063 -4.0625,-12.34379 -3.58e-5,-8.83534 0.1886267,-9.39905 6.0660007,-18.125 8.6873974,-12.8979 10.1802524,-16.26054 10.2137834,-23.00647 0.0164,-3.29977 0.576785,-8.24958 1.245297,-10.99958 0.668512,-2.75 3.475923,-16.25 6.238691,-30 2.762769,-13.75 6.27631,-28.9375 7.807871,-33.75 2.487556,-7.81645 2.721955,-10.61711 2.19697,-26.25 -0.323227,-9.625 -0.598366,-29.875 -0.61142,-45 -0.02192,-25.40766 0.17785,-27.93652 2.62572,-33.23741 1.631706,-3.53346 4.334549,-6.77885 7.03618,-8.44855 5.489698,-3.39282 7.693948,-8.52159 6.856316,-15.95303 C 50.570687,106.0886 51.050147,98.0823 51.990913,91.444225 52.931678,84.806151 53.714128,76 53.729691,71.875 53.783965,57.489636 60.515294,25.509224 65.043144,18.125 67.547616,14.040594 75.057476,6.5856471 79.965632,3.3116278 83.348108,1.0553245 93.141227,0.50371339 94.375,2.5 c 0.424899,0.6875 2.460517,1.25 4.523597,1.25 5.001303,0 16.232133,10.570461 20.440013,19.238147 1.70533,3.512769 5.10774,13.699353 7.56092,22.636853 3.89313,14.183667 4.39472,17.601064 3.9445,26.875 -0.28371,5.84375 -0.92962,12.135922 -1.43537,13.982605 -0.86628,3.163084 -0.68121,3.350829 3.19444,3.240635 3.1278,-0.08894 4.88202,0.793027 7.31794,3.679201 3.05023,3.614031 3.74373,3.821299 14.45396,4.31989 18.88919,0.879346 23.93364,4.710939 59.77447,45.402669 22.61764,25.67884 27.91359,33.88036 26.70132,41.35076 -0.86851,5.352 -13.16223,25.53776 -25.00195,41.05216 -4.7627,6.24089 -9.98873,14.3002 -11.61339,17.90958 -2.71295,6.02715 -3.29631,6.5625 -7.15095,6.5625 -2.60954,0 -5.05279,0.9456 -6.4595,2.5 -2.72349,3.00942 -7.30779,3.17217 -15.07484,0.53519 -3.18296,-1.08064 -6.11623,-1.63578 -6.51839,-1.23364 -0.40213,0.40215 0.21437,4.80194 1.37002,9.77731 5.17519,22.28056 5.82382,59.15995 1.51117,85.92114 -2.9822,18.50538 -2.51853,17.5 -8.07081,17.5 l -4.86022,0 -4.44564,14.11541 C 141.99444,418.93731 141.18622,427.24279 148.125,445 c 2.40625,6.1579 4.375,11.58588 4.375,12.06216 0,0.47629 0.75326,1.75403 1.67391,2.83941 2.55984,3.01788 4.41785,19.44974 5.24078,46.34843 0.41015,13.40625 0.94074,27.24881 1.1791,30.76125 0.41253,6.07916 4.10037,19.28246 7.64301,27.36375 6.68664,15.2532 10.71929,25.46155 11.11034,28.125 0.25235,1.71875 2.18953,6.78125 4.30486,11.25 6.61639,13.97756 4.24882,22.60042 -7.73761,28.181 -10.71647,4.98932 -12.81253,4.35482 -18.2081,-5.51176 l -3.60818,-6.59807 -0.81041,5.06804 c -0.52691,3.29515 -1.7903,5.6898 -3.61155,6.84545 -3.02262,1.91796 -13.61014,3.34776 -18.01033,2.43223 z M 183.89729,230.3125 c 3.12307,-3.26563 7.3851,-8.1875 9.47117,-10.9375 5.36925,-7.07811 14.20114,-25.62026 14.98424,-31.45878 0.62986,-4.6959 0.3334,-5.22376 -6.37889,-11.35842 -8.93481,-8.16591 -24.35996,-19.07001 -26.9033,-19.01805 -4.68777,0.0958 -6.42185,3.60194 -11.18558,22.61637 -5.06843,20.23057 -6.99802,35.18835 -5.43414,42.12448 0.79401,3.52159 2.27094,4.88077 9.68059,8.90884 4.80898,2.61427 9.04602,4.82238 9.41561,4.9069 0.3696,0.0845 3.22724,-2.51822 6.3503,-5.78384 z"
       id="path3424"
       inkscape:connector-curvature="0" />
    <path
       style="fill:#eeb0ad"
       d="m 130.625,633.24725 c -2.0625,-0.91062 -4.875,-2.91846 -6.25,-4.46186 -2.31925,-2.60329 -2.50473,-4.62651 -2.56543,-27.98329 C 121.73416,571.7829 120.8181,562.09071 117.2443,552.5 105.17389,520.1076 100.11077,505.64616 94.774386,488.32084 89.895202,472.47987 89.762578,471.56847 89.929257,455.02522 90.150426,433.07395 86.396486,414.46055 76.436856,388.125 l -7.090911,-18.75 -11.860473,0 -11.860472,0 -0.813879,-6.875 c -0.447633,-3.78125 -0.869509,-16.24801 -0.9375,-27.70393 L 43.75,313.96716 l -4.0625,1.42878 c -2.234375,0.78582 -4.307631,1.59147 -4.607238,1.79032 -0.299605,0.19885 -0.930885,3.6365 -1.402843,7.63922 -0.476118,4.03799 -2.86072,11.71301 -5.356825,17.24132 -3.985575,8.82716 -4.354959,10.48433 -3.238373,14.52826 0.69319,2.51054 1.802019,4.89938 2.464063,5.30854 1.804009,1.11495 1.449325,3.0964 -0.554259,3.0964 -1.142564,0 -1.529114,0.87518 -1.104211,2.5 0.461679,1.76546 0.03835,2.5 -1.440796,2.5 -1.152008,0 -1.770938,0.52364 -1.375399,1.16363 2.590207,4.19105 -11.084917,0.48426 -17.7590821,-4.81379 -3.9141288,-3.10709 -4.0624645,-3.55621 -4.0625,-12.3002 -3.68e-5,-9.0568 0.01566,-9.09844 7.6751292,-20.35794 7.5582829,-11.11076 7.6909989,-11.45416 8.7148219,-22.54959 0.571811,-6.19685 1.333767,-11.74288 1.693236,-12.32451 0.359469,-0.58164 2.921945,-12.50666 5.694392,-26.50006 2.772446,-13.9934 6.291041,-29.38004 7.819099,-34.19254 2.482309,-7.81784 2.714486,-10.61431 2.17942,-26.25 -0.329375,-9.625 -0.600178,-29.3125 -0.601781,-43.75 -0.0038,-34.18928 0.352736,-35.42839 13.075646,-45.44324 2.879309,-2.26645 3.140421,-3.32849 3.321153,-13.5083 0.107883,-6.07665 0.799866,-14.98596 1.537738,-19.79846 0.737874,-4.8125 1.35273,-12.362415 1.366348,-16.777587 C 53.765852,59.430421 60.744951,25.584906 64.82882,18.75 68.043728,13.36942 75.432756,6.1374041 80.262702,3.644082 85.161941,1.114989 93.75,0.38649293 93.75,2.5 c 0,0.6875 2.085179,1.25 4.63373,1.25 4.04145,0 5.61569,1.0063999 12.31614,7.873623 8.73428,8.951677 10.94249,13.832955 16.92122,37.404478 3.84168,15.146105 4.42917,27.646578 1.76401,37.534399 -0.88498,3.283276 -0.7254,3.4375 3.55676,3.4375 3.49236,0 5.07265,0.797141 7.14973,3.606544 2.54028,3.435915 3.20736,3.63062 14.09992,4.115452 9.71053,0.43222 12.44213,1.059604 18.12673,4.163274 7.73203,4.22152 21.55705,18.00948 45.73736,45.61473 25.81705,29.47382 27.00199,33.42736 15.54765,51.875 -7.5914,12.22622 -11.02494,17.21071 -20.30185,29.47232 -3.34048,4.41523 -7.4115,10.9808 -9.04674,14.59018 -2.72886,6.02334 -3.31796,6.5625 -7.17016,6.5625 -2.60954,0 -5.05279,0.9456 -6.4595,2.5 -2.73843,3.02592 -6.97995,3.16434 -14.84508,0.48441 -3.25347,-1.10857 -6.23004,-1.70096 -6.61458,-1.31641 -0.38455,0.38454 0.53591,6.77594 2.04546,14.20309 5.10082,25.09662 4.5512,65.49561 -1.25936,92.56641 C 168.5469,364.98109 168.5289,365 163.70511,365 l -4.83774,0 -3.87262,12.08955 c -12.81881,40.0177 -14.11773,51.57061 -7.49475,66.66045 2.0625,4.69921 3.75,9.22711 3.75,10.06197 0,0.83487 1.0502,3.27184 2.33379,5.41549 3.33406,5.56804 4.9858,19.02025 5.85041,47.64754 0.41529,13.75 0.94975,27.61052 1.18771,30.80117 0.43485,5.83073 4.57846,20.25157 7.49193,26.07383 0.86006,1.71875 2.27608,5.375 3.14673,8.125 0.87064,2.75 3.16712,8.16669 5.10328,12.0371 1.93616,3.8704 3.21422,7.34316 2.84015,7.71724 -0.37409,0.37407 1.33949,5.15318 3.80792,10.62022 2.46844,5.46705 4.48598,11.83804 4.4834,14.15776 -0.007,6.5209 -4.13848,12.05867 -11.58093,15.52368 -10.83828,5.04604 -13.99623,3.88921 -18.84878,-6.90465 l -2.54065,-5.65135 -1.09045,5.33476 c -0.67774,3.3157 -2.1254,5.98163 -3.82497,7.04386 -4.1663,2.60393 -14.60895,3.42552 -18.98454,1.49363 z M 183.87007,230.3125 c 7.11052,-7.47087 14.87993,-17.25495 14.87993,-18.7384 0,-0.62158 1.69521,-4.26003 3.76715,-8.08545 2.07194,-3.82541 4.58691,-9.67915 5.58884,-13.00831 l 1.82168,-6.05302 -7.15133,-6.92836 C 194.38984,169.37393 177.89644,157.5 174.99692,157.5 c -4.64901,0 -6.29493,3.34951 -11.14542,22.68136 -5.1248,20.42518 -7.19115,36.6963 -5.43033,42.76038 0.78263,2.69526 3.16362,4.73607 9.74475,8.35246 4.78999,2.63215 9.01148,4.82399 9.38107,4.87076 0.3696,0.0468 3.21498,-2.58683 6.32308,-5.85246 z"
       id="path3422"
       inkscape:connector-curvature="0" />
    <path
       style="fill:#efa19e"
       d="m 131.80612,633.64524 c -2.10038,-0.59975 -5.19413,-2.55529 -6.875,-4.34564 -3.03156,-3.22901 -3.0568,-3.46278 -3.14052,-29.08989 C 121.7442,586.00063 121.26279,571 120.72086,566.875 c -1.04903,-7.98488 -4.12805,-19.06067 -5.95881,-21.43496 -0.60856,-0.78924 -1.32459,-2.47674 -1.59119,-3.75 -0.26659,-1.27328 -2.79936,-8.50254 -5.62837,-16.06504 -2.82901,-7.5625 -7.881214,-22.48475 -11.227126,-33.16058 C 90.296671,473.26057 90.23022,472.86426 90.075397,455.24975 89.889942,434.15014 86.45471,415.00432 79.377239,395.625 76.866438,388.75 73.657018,379.82916 72.245191,375.80091 l -2.566955,-7.32408 -11.540609,0.86523 c -10.47381,0.78525 -11.630575,0.65344 -12.51386,-1.42591 -0.535288,-1.26014 -1.244247,-13.88835 -1.575465,-28.06271 l -0.602212,-25.77157 -3.910545,1.39657 c -5.036021,1.7985 -5.743214,2.87095 -5.766404,8.74471 -0.01112,2.8324 -2.089824,9.69471 -4.999424,16.50484 -5.145593,12.0436 -5.601882,17.44533 -1.744073,20.64703 2.224733,1.84637 2.208239,3.62498 -0.03361,3.62498 -1.142564,0 -1.529114,0.87517 -1.104211,2.5 0.454668,1.73865 0.03835,2.5 -1.367025,2.5 -1.11144,0 -2.020795,0.88165 -2.020795,1.95924 0,1.45297 -0.72674,1.73727 -2.8125,1.10026 -6.732094,-2.05606 -11.799319,-4.66895 -15,-7.73468 C 1.6263534,362.39275 1.25,361.14089 1.25,353.89066 c 0,-7.84279 0.2730294,-8.55682 7.4385424,-19.45364 7.2012736,-10.9512 10.4543896,-19.53944 9.2074546,-24.30772 -0.331598,-1.26804 0.0041,-4.48775 0.746062,-7.15491 0.741931,-2.66716 3.866702,-17.25026 6.943935,-32.40689 3.077234,-15.15664 6.558065,-30.06289 7.735181,-33.125 1.779458,-4.62904 2.05857,-8.83336 1.655856,-24.9425 -0.992169,-39.68823 -0.584397,-70.51593 1.002946,-75.823 0.855095,-2.8589 3.032229,-6.51515 4.838075,-8.125 11.082575,-9.87974 10.51067,-8.80532 10.340164,-19.42573 -0.0861,-5.3632 0.450681,-13.68877 1.192855,-18.50127 C 53.093245,85.8125 53.713417,78.21875 53.729233,73.75 53.776415,60.418053 59.428899,32.071199 64.3297,20.589322 68.45945,10.913909 80.784627,1.25 88.994726,1.25 91.610126,1.25 93.75,1.8125 93.75,2.5 c 0,0.6875 1.434184,1.25 3.187075,1.25 7.097135,0 16.736025,8.479311 22.289295,19.607838 1.77925,3.565561 5.26762,14.209206 7.75191,23.652543 3.88782,14.778413 4.42748,18.488974 3.87487,26.642163 -0.35312,5.209851 -1.03636,11.019331 -1.51831,12.909956 -0.83459,3.273932 -0.66295,3.4375 3.60702,3.4375 3.49139,0 5.07268,0.797176 7.14721,3.603149 2.51305,3.399076 3.27726,3.632472 13.49284,4.120886 18.80028,0.898852 25.19032,5.638965 58.63756,43.497215 22.11389,25.03024 25.90354,30.14864 27.92902,37.72165 1.30838,4.89191 1.16353,6.03566 -1.40183,11.06887 -3.9243,7.6994 -16.92096,27.52882 -24.98031,38.11323 -3.66441,4.8125 -7.97258,11.70312 -9.5737,15.3125 -2.60949,5.88252 -3.31326,6.5625 -6.79223,6.5625 -2.13461,0 -5.31131,1.125 -7.05933,2.5 -3.83834,3.01924 -6.81182,3.12489 -14.47363,0.51424 -3.20534,-1.09217 -6.32231,-1.79529 -6.92661,-1.5625 -0.60429,0.2328 -0.0876,4.64201 1.14817,9.79826 5.436,22.68133 6.17552,57.7324 1.79334,85 -3.21374,19.99716 -2.67307,18.75 -8.12834,18.75 l -4.79732,0 -4.44769,13.4375 c -11.56645,34.945 -13.43005,50.19872 -7.79315,63.78766 1.63123,3.93241 3.68149,9.39984 4.55614,12.14984 0.87466,2.75 2.13866,5.3561 2.8089,5.79133 2.24174,1.45571 4.43639,20.69803 5.28329,46.32281 1.0788,32.64216 1.40852,37.97732 2.4513,39.66457 0.47165,0.76314 1.13351,2.92513 1.4708,4.80441 0.3373,1.87928 1.14211,3.95125 1.78848,4.60438 0.64638,0.65312 1.17715,2.05937 1.17952,3.125 0.005,2.33355 5.88487,16.96791 10.38496,25.84776 1.78671,3.52564 2.92909,6.72973 2.53862,7.1202 -0.39047,0.39048 1.32227,5.44144 3.80609,11.22438 2.48383,5.78293 4.51604,11.77508 4.51604,13.31588 0,7.91964 -8.27055,16.03525 -18.52145,18.17449 -5.15321,1.0754 -8.26248,-1.39527 -11.79206,-9.37021 l -2.48954,-5.625 -1.41098,5.61519 c -1.00587,4.00301 -2.3082,6.02313 -4.53597,7.03605 -4.61466,2.09817 -12.59525,2.86072 -16.94388,1.619 z M 185.17035,229.0625 c 11.11246,-11.74416 17.57612,-22.38006 22.24626,-36.606 l 2.61229,-7.95743 -5.32695,-5.45826 c -2.92983,-3.00205 -10.17286,-9.07684 -16.09564,-13.49954 -11.75216,-8.77566 -16.066,-9.95602 -19.10932,-5.22877 -2.73625,4.25027 -10.47127,37.7055 -11.34349,49.0625 -1.13349,14.75891 -0.28638,16.62919 10.0316,22.14799 4.77945,2.55638 9.02615,4.66576 9.43713,4.6875 0.41097,0.0217 3.80762,-3.19487 7.54812,-7.14799 z"
       id="path3420"
       inkscape:connector-curvature="0" />
    <path
       style="fill:#f99491"
       d="m 133.4858,633.98989 c -1.86406,-0.21814 -5.04208,-1.94064 -7.06225,-3.82778 -4.55123,-4.25147 -5.37602,-10.7024 -5.05513,-39.53711 0.20673,-18.57533 -0.54055,-29.82364 -2.28368,-34.375 -0.39496,-1.03125 -0.80319,-2.4375 -0.90719,-3.125 -0.10398,-0.6875 -0.91015,-2.9375 -1.79146,-5 C 110.72754,534.8825 100.61323,506.19732 94.569141,486.25 90.520246,472.88741 90.201146,470.59847 90.038337,453.75 89.81804,430.95229 86.716605,415.5071 77.013002,388.88369 73.155851,378.30096 70,369.36451 70,369.02492 c 0,-0.33959 -5.272551,-0.23041 -11.716779,0.24263 -10.57768,0.77645 -11.807862,0.64119 -12.653654,-1.39125 -0.51528,-1.23821 -1.222973,-13.86812 -1.572653,-28.06645 l -0.63578,-25.81516 -3.898068,1.33241 c -4.942446,1.68939 -5.730336,2.91261 -5.753925,8.93322 -0.01187,3.04619 -1.952842,9.08314 -5.155676,16.03608 -5.455519,11.84324 -5.79529,16.47086 -1.55347,21.15801 1.79756,1.98629 1.811694,2.32735 0.123288,2.97525 -1.223559,0.46953 -1.660518,1.6744 -1.219225,3.3619 0.541136,2.06931 0.245151,2.46026 -1.388135,1.83352 C 23.074596,369.04895 22.5,369.50958 22.5,371.28922 c 0,2.97267 0.742706,2.97359 -7.417941,-0.009 C 11.365352,369.92149 6.732668,367.285 4.7872051,365.42113 1.6020039,362.36951 1.25,361.20909 1.25,353.76024 c 0,-7.81707 0.3145917,-8.71515 5.7197611,-16.32864 8.9625799,-12.62429 10.5595289,-16.47719 11.1261699,-26.8437 0.280936,-5.13964 0.79659,-9.80724 1.145895,-10.37242 0.349306,-0.56519 3.217835,-13.77063 6.374508,-29.34543 3.156672,-15.5748 6.689497,-30.43894 7.850722,-33.03143 1.786835,-3.9892 2.029428,-7.88342 1.578486,-25.33862 -1.066795,-41.2939 -0.678592,-69.15081 1.044718,-74.96749 1.161814,-3.92147 3.674192,-7.5308 8.408314,-12.07952 C 51.802,118.43556 51.674236,118.78947 51.882325,105 52.416119,69.627134 59.246718,28.322519 66.52401,16.461773 72.435237,6.8274799 87.154697,-1.1282878 92.681989,2.3235631 93.938237,3.1081034 96.295564,3.75 97.920491,3.75 c 3.948409,0 12.448329,6.305216 17.034339,12.636019 4.6993,6.48719 7.77704,14.72738 12.52481,33.533342 4.07748,16.15095 4.787,27.71732 2.0969,34.183288 -2.21837,5.332066 -1.52005,6.816155 2.90183,6.167159 2.90484,-0.426339 4.42155,0.287473 7.29463,3.43309 3.4553,3.783061 4.12448,3.988172 14.11464,4.32627 18.40488,0.622877 26.71481,7.030062 63.0538,48.616202 18.03512,20.6393 23.32191,28.67675 23.50705,35.73745 0.1509,5.75494 -9.37223,22.15144 -25.10379,43.22257 -5.65415,7.57328 -11.04187,16.01961 -11.9727,18.76961 -1.45215,4.29016 -2.29966,5.08872 -5.96971,5.625 -2.35252,0.34375 -5.88978,1.71706 -7.8606,3.0518 -3.49936,2.36995 -3.78684,2.37436 -12.2719,0.18856 -4.77873,-1.23102 -8.88743,-2.0394 -9.13044,-1.79637 -0.24302,0.24302 0.60014,4.81544 1.87369,10.16091 5.76134,24.18204 6.23865,56.57229 1.27496,86.5201 -1.36739,8.25 -2.49782,15.38954 -2.51209,15.86563 -0.0143,0.47609 -2.3558,1.03859 -5.20345,1.25 l -5.17752,0.38437 -4.19458,13.125 c -9.29725,29.09155 -10.65542,35.50975 -10.12832,47.86257 0.40357,9.45802 1.2507,13.40848 4.7471,22.13743 2.34071,5.84375 4.77217,10.99086 5.40322,11.43802 2.21905,1.57242 4.38939,22.97844 5.22754,51.55921 0.85646,29.20511 1.68193,35.05307 6.81105,48.25277 1.46931,3.78125 3.7447,9.88499 5.05641,13.56386 1.31172,3.67889 3.4945,8.48418 4.85062,10.67843 1.35612,2.19425 2.38916,5.09051 2.29563,6.43613 -0.0935,1.34562 1.9014,7.01738 4.43318,12.60391 2.53176,5.58652 4.60321,11.38913 4.60321,12.89467 0,6.70194 -7.05971,14.47419 -15.39584,16.94975 -7.78402,2.31161 -9.86015,1.25105 -14.1614,-7.23414 l -3.30386,-6.51761 -1.71435,5.87603 c -0.94289,3.23181 -2.26941,6.21907 -2.94784,6.63836 -1.89367,1.17036 -12.68911,2.54541 -16.49091,2.1005 z m 49.34156,-402.07223 c 10.71546,-10.40672 21.34678,-27.53692 25.1715,-40.55875 1.97436,-6.72201 1.9667,-6.79309 -1.17576,-10.91307 -1.73969,-2.28084 -4.55969,-5.14235 -6.26666,-6.35892 -1.70698,-1.21656 -7.10843,-5.22666 -12.0032,-8.91134 -11.37395,-8.56207 -15.19883,-9.78112 -18.30385,-5.83372 -2.61154,3.32004 -10.97159,36.13857 -12.18253,47.8242 -0.44404,4.28509 -0.4335,10.50935 0.0235,13.8317 0.82811,6.02115 0.85974,6.05524 9.80774,10.57214 4.93732,2.49232 9.31254,4.56494 9.7227,4.6058 0.41016,0.0409 2.75314,-1.87525 5.20661,-4.25804 z"
       id="path3418"
       inkscape:connector-curvature="0" />
  </g>
</svg>
